<?xml version="1.0" encoding="utf-8"?>
<!-- Generator: Adobe Illustrator 25.3.1, SVG Export Plug-In . SVG Version: 6.00 Build 0)  -->
<svg version="1.1" id="Layer_1" xmlns="http://www.w3.org/2000/svg" xmlns:xlink="http://www.w3.org/1999/xlink" x="0px" y="0px"
	 viewBox="0 0 204 200.2" style="enable-background:new 0 0 204 200.2;" xml:space="preserve">
<style type="text/css">
	.st0{opacity:0.12;}
</style>
<g class="st0">
	<polygon points="104.2,105.1 102.3,105.5 100.6,104.5 98.8,103.6 98.2,101.7 97.4,99.9 98.2,98 98.7,96.1 100.5,95.2 102.1,94.1 
		104.1,94.5 106.1,94.8 107.3,96.3 108.6,97.8 108.5,99.8 108.7,101.7 107.3,103.2 106.2,104.8 	"/>
	<path d="M72.8,153.7c-0.9,0-1.8,0-2.6-0.1c-1.4-0.2-2.8-0.6-4-1.1c-0.3-0.1-0.6-0.3-0.9-0.5c-0.3-0.2-0.6-0.3-0.9-0.5
		c-0.6-0.4-1.2-0.8-1.7-1.4c-1-1-1.7-2.4-2.1-3.8c-0.3-1.4-0.3-2.9,0.1-4.2c0.2-0.7,0.5-1.3,0.8-1.9c0.3-0.6,0.9-1.2,1.5-1.6
		c1.2-0.8,2.8-0.9,4-0.3c0.3,0.1,0.6,0.3,0.9,0.5c0.3,0.2,0.5,0.5,0.6,0.9c0.3,0.6,0.2,1.4-0.2,1.9c0.3-0.6,0.3-1.3,0-1.8
		c-0.3-0.6-0.8-0.9-1.4-1.1c-1.2-0.4-2.5-0.1-3.4,0.6c-0.5,0.4-0.8,0.8-1.1,1.4c-0.2,0.6-0.5,1.1-0.6,1.7c-0.2,1.2-0.1,2.4,0.2,3.5
		c0.4,1.1,1,2.1,1.9,2.9c0.4,0.4,0.9,0.7,1.4,1c0.3,0.1,0.6,0.2,0.8,0.4c0.3,0.1,0.6,0.3,0.8,0.3c1.1,0.4,2.3,0.6,3.5,0.7
		c1.2,0,2.4,0,3.6-0.3c0.2,0,0.3-0.1,0.5-0.1c0,0.1,0.1,0.3,0.1,0.4c0.4,1.1,1,2.2,1.6,3.2c0.7,1,1.5,1.9,2.4,2.6
		c0.2,0.2,0.5,0.4,0.7,0.6c0.2,0.2,0.5,0.4,0.7,0.5c0.5,0.3,1,0.5,1.6,0.7c1.1,0.3,2.3,0.4,3.5,0.1c1.1-0.3,2.3-0.8,3.1-1.6
		c0.5-0.4,0.8-0.9,1.2-1.4c0.3-0.5,0.5-1,0.6-1.6c0.1-1.2-0.3-2.4-1.3-3.2c-0.5-0.4-1-0.7-1.7-0.6c-0.6,0-1.2,0.4-1.6,0.9
		c0.3-0.6,0.9-1,1.6-1.2c0.3-0.1,0.7,0,1,0.1c0.3,0.1,0.6,0.3,0.9,0.5c1.1,0.8,1.9,2.2,1.8,3.6c0,0.7-0.2,1.4-0.6,2.1
		c-0.3,0.6-0.7,1.2-1.2,1.7c-0.9,1-2.2,1.8-3.6,2.2c-1.4,0.4-2.9,0.5-4.3,0.2c-0.7-0.1-1.4-0.4-2.1-0.8c-0.3-0.2-0.6-0.4-0.9-0.5
		c-0.3-0.2-0.6-0.4-0.9-0.6c-1.2-0.8-2.2-1.8-3.1-2.9C73.7,155.2,73.2,154.4,72.8,153.7z"/>
	<path d="M45.3,121.5c-0.7-0.5-1.3-1.2-2-1.8c-0.9-1.1-1.8-2.2-2.4-3.5c-0.2-0.3-0.3-0.6-0.4-1c-0.1-0.3-0.3-0.6-0.4-1
		c-0.2-0.7-0.4-1.4-0.4-2.2c-0.1-1.5,0.2-2.9,0.8-4.2c0.6-1.3,1.6-2.4,2.8-3.2c0.6-0.4,1.2-0.7,1.9-0.9c0.7-0.3,1.4-0.3,2.1-0.2
		c1.4,0.2,2.7,1.1,3.3,2.4c0.1,0.3,0.3,0.6,0.3,1c0,0.3,0,0.7-0.1,1c-0.2,0.7-0.8,1.2-1.4,1.4c0.6-0.3,1-0.8,1.2-1.4
		c0.2-0.6,0-1.2-0.4-1.7c-0.6-1.1-1.8-1.7-3-1.8c-0.6,0-1.2,0.1-1.7,0.3c-0.5,0.3-1.1,0.6-1.5,1c-1,0.7-1.6,1.8-2.1,2.9
		c-0.4,1.1-0.6,2.3-0.4,3.4c0.1,0.6,0.2,1.1,0.4,1.7c0.1,0.3,0.3,0.5,0.4,0.8c0.1,0.3,0.3,0.5,0.4,0.8c0.6,1.1,1.4,2,2.2,2.8
		c0.9,0.8,1.8,1.5,2.9,2.1c0.1,0.1,0.3,0.1,0.4,0.2c-0.1,0.1-0.1,0.3-0.2,0.4c-0.4,1.1-0.7,2.3-0.8,3.5c-0.1,1.2-0.1,2.4,0.2,3.6
		c0,0.3,0.1,0.6,0.2,0.9c0.1,0.3,0.1,0.6,0.2,0.9c0.2,0.5,0.4,1.1,0.7,1.5c0.6,1,1.5,1.8,2.6,2.3c1,0.5,2.2,0.8,3.5,0.8
		c0.6,0,1.2-0.1,1.8-0.3c0.6-0.2,1.1-0.5,1.5-0.9c0.9-0.8,1.3-2.1,1.1-3.3c-0.1-0.6-0.3-1.2-0.9-1.6c-0.5-0.4-1.2-0.5-1.8-0.3
		c0.6-0.3,1.3-0.2,1.9,0.1c0.3,0.2,0.6,0.4,0.8,0.7c0.2,0.3,0.3,0.6,0.4,1c0.4,1.3,0,2.9-0.9,3.9c-0.5,0.5-1.1,1-1.8,1.2
		c-0.6,0.2-1.3,0.4-2,0.5c-1.4,0.2-2.8-0.1-4.2-0.6c-1.3-0.6-2.5-1.4-3.4-2.6c-0.5-0.6-0.8-1.2-1.1-1.9c-0.1-0.3-0.2-0.7-0.4-1
		c-0.1-0.3-0.2-0.7-0.3-1c-0.4-1.4-0.5-2.8-0.5-4.2C45,123.3,45.1,122.4,45.3,121.5z"/>
	<path d="M44.9,79.2c-0.2-0.9-0.3-1.7-0.3-2.6c0-1.4,0.1-2.8,0.4-4.2c0.1-0.3,0.2-0.7,0.3-1c0.1-0.3,0.2-0.7,0.3-1
		c0.3-0.7,0.6-1.3,1.1-1.9c0.8-1.2,2-2.1,3.3-2.7c1.3-0.6,2.8-0.8,4.2-0.7c0.7,0.1,1.4,0.2,2,0.5c0.7,0.2,1.3,0.7,1.8,1.2
		c1,1.1,1.3,2.6,1,3.9c-0.1,0.3-0.2,0.7-0.4,1c-0.2,0.3-0.4,0.5-0.7,0.7c-0.6,0.4-1.3,0.4-1.9,0.2c0.6,0.2,1.3,0,1.8-0.3
		c0.5-0.4,0.8-1,0.8-1.6c0.2-1.2-0.3-2.5-1.2-3.3c-0.4-0.4-0.9-0.7-1.5-0.8c-0.6-0.1-1.2-0.3-1.8-0.3c-1.2,0-2.4,0.3-3.4,0.8
		c-1,0.6-1.9,1.4-2.5,2.4c-0.3,0.5-0.5,1-0.7,1.6c-0.1,0.3-0.1,0.6-0.2,0.9c-0.1,0.3-0.2,0.6-0.2,0.9c-0.2,1.2-0.2,2.4-0.1,3.6
		c0.2,1.2,0.4,2.4,0.9,3.5c0.1,0.1,0.1,0.3,0.2,0.4c-0.1,0.1-0.3,0.1-0.4,0.2c-1,0.6-2,1.3-2.9,2.1c-0.8,0.9-1.6,1.8-2.2,2.9
		c-0.2,0.3-0.3,0.5-0.4,0.8c-0.1,0.3-0.3,0.6-0.4,0.8c-0.2,0.5-0.4,1.1-0.4,1.7c-0.2,1.1,0,2.3,0.5,3.4c0.5,1.1,1.2,2.1,2.1,2.8
		c0.5,0.4,1,0.7,1.6,0.9c0.5,0.2,1.1,0.3,1.7,0.3c1.2-0.1,2.3-0.7,3-1.8c0.3-0.5,0.5-1.1,0.3-1.8c-0.1-0.6-0.6-1.1-1.2-1.4
		c0.6,0.2,1.2,0.7,1.4,1.3c0.1,0.3,0.2,0.7,0.1,1c0,0.4-0.2,0.7-0.3,1c-0.6,1.3-1.8,2.2-3.2,2.4c-0.7,0.1-1.5,0-2.1-0.2
		c-0.7-0.2-1.3-0.5-1.9-0.9c-1.2-0.8-2.1-1.9-2.8-3.1c-0.6-1.3-1-2.7-0.9-4.2c0-0.7,0.2-1.5,0.4-2.2c0.1-0.3,0.2-0.7,0.4-1
		c0.1-0.3,0.2-0.7,0.4-1c0.6-1.3,1.4-2.4,2.3-3.5C43.6,80.4,44.2,79.8,44.9,79.2z"/>
	<path d="M71.8,46.6c0.4-0.8,0.9-1.5,1.4-2.2c0.9-1.1,1.9-2.1,3-2.9c0.3-0.2,0.6-0.4,0.9-0.6c0.3-0.2,0.6-0.4,0.9-0.5
		c0.7-0.3,1.3-0.6,2-0.8c1.4-0.4,2.9-0.3,4.3,0.1c1.4,0.4,2.6,1.1,3.6,2.2c0.5,0.5,0.9,1.1,1.3,1.7c0.4,0.6,0.6,1.3,0.6,2.1
		c0.1,1.4-0.6,2.8-1.7,3.7c-0.3,0.2-0.6,0.4-0.9,0.5c-0.3,0.1-0.7,0.1-1,0.1c-0.7-0.1-1.3-0.5-1.6-1.1c0.4,0.5,1,0.9,1.6,0.9
		c0.6,0,1.2-0.2,1.7-0.7c0.9-0.8,1.4-2.1,1.2-3.3c-0.1-0.6-0.3-1.1-0.6-1.6c-0.4-0.5-0.7-1-1.2-1.4c-0.9-0.8-2-1.3-3.2-1.6
		c-1.2-0.2-2.4-0.2-3.5,0.2c-0.6,0.2-1.1,0.4-1.6,0.7c-0.2,0.2-0.5,0.4-0.7,0.5c-0.2,0.2-0.5,0.4-0.7,0.6c-0.9,0.8-1.7,1.7-2.4,2.7
		c-0.6,1-1.2,2.1-1.5,3.2c0,0.1-0.1,0.3-0.1,0.4c-0.2,0-0.3-0.1-0.5-0.1c-1.2-0.2-2.4-0.3-3.6-0.2c-1.2,0.1-2.4,0.3-3.5,0.8
		c-0.3,0.1-0.6,0.2-0.8,0.4c-0.3,0.1-0.6,0.2-0.8,0.4c-0.5,0.3-1,0.6-1.4,1c-0.9,0.8-1.5,1.8-1.8,2.9c-0.3,1.1-0.4,2.4-0.2,3.5
		c0.1,0.6,0.3,1.2,0.6,1.7c0.2,0.5,0.6,1,1.1,1.3c0.9,0.7,2.3,0.9,3.4,0.5c0.6-0.2,1.1-0.5,1.4-1.1c0.3-0.6,0.3-1.3,0-1.8
		c0.4,0.5,0.5,1.3,0.2,1.9c-0.1,0.3-0.3,0.6-0.6,0.9c-0.3,0.2-0.6,0.4-0.9,0.6c-1.2,0.6-2.8,0.5-4-0.2c-0.6-0.4-1.2-0.9-1.5-1.5
		c-0.3-0.6-0.7-1.2-0.9-1.9c-0.4-1.3-0.4-2.8-0.1-4.2c0.3-1.4,1-2.7,2-3.8c0.5-0.5,1.1-1,1.7-1.4c0.3-0.2,0.6-0.3,0.9-0.5
		c0.3-0.2,0.6-0.3,0.9-0.5c1.3-0.6,2.6-1,4-1.2C70,46.6,70.9,46.5,71.8,46.6z"/>
	<path d="M113.4,38.8c0.8-0.3,1.7-0.6,2.5-0.8c1.4-0.3,2.8-0.4,4.2-0.3c0.4,0,0.7,0.1,1,0.1c0.3,0.1,0.7,0.1,1,0.2
		c0.7,0.2,1.4,0.4,2.1,0.7c1.3,0.6,2.4,1.6,3.2,2.8c0.8,1.2,1.3,2.6,1.4,4c0.1,0.7,0,1.4-0.1,2.1c-0.1,0.7-0.4,1.4-0.9,2
		c-0.9,1.1-2.3,1.8-3.7,1.7c-0.3,0-0.7-0.1-1-0.2c-0.3-0.1-0.6-0.3-0.8-0.6c-0.5-0.5-0.6-1.2-0.5-1.9c-0.1,0.7,0.2,1.3,0.6,1.7
		c0.5,0.4,1.1,0.6,1.7,0.5c1.2,0,2.4-0.7,3-1.7c0.3-0.5,0.5-1.1,0.6-1.6c0-0.6,0.1-1.2-0.1-1.8c-0.2-1.2-0.7-2.3-1.4-3.2
		c-0.8-0.9-1.7-1.6-2.8-2.1c-0.5-0.2-1.1-0.4-1.7-0.4c-0.3,0-0.6,0-0.9-0.1c-0.3,0-0.6,0-0.9,0c-1.2,0-2.4,0.2-3.6,0.5
		c-1.1,0.4-2.2,0.8-3.2,1.5c-0.1,0.1-0.3,0.2-0.4,0.3c-0.1-0.1-0.2-0.2-0.3-0.4c-0.7-0.9-1.6-1.7-2.6-2.4c-1-0.7-2.1-1.3-3.2-1.6
		c-0.3-0.1-0.6-0.2-0.9-0.3c-0.3-0.1-0.6-0.2-0.9-0.2c-0.6-0.1-1.1-0.2-1.7-0.1c-1.2,0-2.3,0.4-3.3,1c-1,0.6-1.9,1.5-2.4,2.6
		c-0.3,0.5-0.5,1.1-0.6,1.7c-0.2,0.6-0.1,1.2,0,1.7c0.3,1.1,1.1,2.2,2.3,2.6c0.6,0.2,1.2,0.3,1.8,0c0.6-0.2,1-0.8,1.2-1.4
		c-0.1,0.6-0.5,1.3-1.1,1.6c-0.3,0.2-0.6,0.3-1,0.3c-0.4,0-0.7,0-1-0.1c-1.3-0.3-2.5-1.4-2.9-2.8c-0.2-0.7-0.3-1.4-0.2-2.1
		c0.1-0.7,0.3-1.4,0.6-2c0.5-1.3,1.5-2.4,2.6-3.3c1.1-0.8,2.5-1.5,4-1.6c0.7-0.1,1.5-0.1,2.2,0c0.4,0,0.7,0.1,1,0.2
		c0.3,0.1,0.7,0.1,1,0.2c1.4,0.3,2.6,1,3.9,1.7C112,37.7,112.7,38.2,113.4,38.8z"/>
	<path d="M150.2,59.6c0.8,0.3,1.7,0.6,2.4,1c1.2,0.7,2.4,1.5,3.4,2.5c0.3,0.2,0.5,0.5,0.7,0.7c0.2,0.3,0.5,0.5,0.7,0.8
		c0.4,0.6,0.8,1.2,1.1,1.9c0.6,1.3,0.8,2.8,0.7,4.2c-0.2,1.4-0.7,2.8-1.5,3.9c-0.4,0.6-0.9,1.1-1.4,1.5c-0.5,0.5-1.2,0.8-1.9,1
		c-1.4,0.3-2.9-0.1-3.9-1.1c-0.2-0.2-0.5-0.5-0.6-0.8c-0.2-0.3-0.2-0.7-0.2-1c0-0.7,0.3-1.4,0.8-1.8c-0.5,0.5-0.7,1.1-0.6,1.7
		c0.1,0.6,0.4,1.1,0.9,1.5c1,0.8,2.3,1,3.4,0.6c0.6-0.2,1.1-0.5,1.5-0.9c0.4-0.4,0.8-0.9,1.1-1.4c0.6-1,0.9-2.2,1-3.4
		c0-1.2-0.2-2.4-0.8-3.4c-0.3-0.5-0.6-1-1-1.4c-0.2-0.2-0.4-0.4-0.6-0.6c-0.2-0.2-0.4-0.4-0.7-0.6c-0.9-0.8-2-1.4-3.1-1.9
		c-1.1-0.4-2.3-0.8-3.4-1c-0.2,0-0.3,0-0.5-0.1c0-0.2,0-0.3,0-0.5c0-1.2-0.1-2.4-0.4-3.5c-0.3-1.1-0.8-2.3-1.4-3.3
		c-0.1-0.3-0.3-0.5-0.5-0.8c-0.2-0.2-0.3-0.5-0.5-0.7c-0.4-0.4-0.8-0.9-1.2-1.2c-0.9-0.7-2-1.1-3.2-1.3c-1.2-0.1-2.4,0-3.5,0.4
		c-0.6,0.2-1.1,0.5-1.6,0.9c-0.5,0.3-0.9,0.8-1.1,1.3c-0.5,1-0.5,2.4,0.1,3.5c0.3,0.6,0.7,1,1.3,1.2c0.6,0.2,1.3,0.1,1.8-0.3
		c-0.5,0.4-1.2,0.7-1.9,0.6c-0.3-0.1-0.7-0.2-1-0.4c-0.3-0.2-0.5-0.5-0.7-0.8c-0.8-1.1-1-2.7-0.5-4c0.3-0.7,0.7-1.3,1.2-1.8
		c0.5-0.4,1.1-0.9,1.7-1.2c1.2-0.7,2.7-0.9,4.1-0.9c1.4,0.1,2.9,0.5,4.1,1.3c0.6,0.4,1.2,0.9,1.7,1.4c0.2,0.3,0.4,0.5,0.7,0.8
		c0.2,0.3,0.4,0.5,0.6,0.8c0.8,1.1,1.4,2.4,1.9,3.8C149.8,57.9,150,58.7,150.2,59.6z"/>
	<path d="M165,99.2c0.5,0.8,0.9,1.5,1.2,2.4c0.5,1.3,0.9,2.7,1,4.1c0.1,0.3,0.1,0.7,0.1,1c0,0.4,0,0.7,0,1.1c0,0.7-0.1,1.5-0.3,2.2
		c-0.4,1.4-1.2,2.7-2.2,3.7c-1,1-2.3,1.7-3.7,2c-0.7,0.2-1.4,0.2-2.1,0.3c-0.7,0-1.5-0.2-2.1-0.5c-1.3-0.7-2.2-2-2.3-3.3
		c0-0.3,0-0.7,0-1c0.1-0.3,0.2-0.7,0.5-0.9c0.4-0.5,1.1-0.8,1.8-0.8c-0.7,0.1-1.3,0.4-1.6,0.9c-0.4,0.5-0.4,1.2-0.2,1.8
		c0.2,1.2,1.1,2.2,2.2,2.7c0.5,0.2,1.1,0.3,1.7,0.3c0.6-0.1,1.2-0.2,1.8-0.4c1.1-0.4,2.1-1.1,2.9-2c0.8-0.9,1.3-2,1.5-3.1
		c0.1-0.6,0.2-1.1,0.1-1.7c0-0.3-0.1-0.6-0.1-0.9c0-0.3-0.1-0.6-0.1-0.9c-0.2-1.2-0.6-2.3-1.1-3.4c-0.6-1.1-1.2-2.1-2-2.9
		c-0.1-0.1-0.2-0.2-0.3-0.3c0.1-0.1,0.2-0.2,0.3-0.3c0.8-0.9,1.4-1.9,2-3c0.5-1.1,0.9-2.2,1.1-3.4c0.1-0.3,0.1-0.6,0.1-0.9
		c0-0.3,0.1-0.6,0.1-0.9c0-0.6,0-1.1-0.2-1.7c-0.2-1.1-0.8-2.2-1.6-3.1c-0.8-0.9-1.8-1.6-3-1.9c-0.6-0.2-1.2-0.3-1.8-0.3
		c-0.6-0.1-1.2,0.1-1.7,0.3c-1.1,0.5-1.9,1.5-2.2,2.7c-0.1,0.6-0.1,1.2,0.3,1.8c0.3,0.5,1,0.9,1.6,0.9c-0.7,0-1.3-0.2-1.8-0.8
		c-0.2-0.3-0.4-0.6-0.5-0.9c-0.1-0.3-0.1-0.7,0-1c0.1-1.4,1-2.7,2.2-3.4c0.6-0.3,1.4-0.5,2.1-0.5c0.7,0,1.4,0,2.1,0.2
		c1.4,0.3,2.7,1,3.7,2c1,1,1.9,2.2,2.3,3.6c0.2,0.7,0.3,1.4,0.4,2.2c0,0.4,0,0.7,0,1.1c0,0.3,0,0.7-0.1,1c-0.1,1.4-0.5,2.8-1,4.1
		C165.9,97.7,165.5,98.5,165,99.2z"/>
	<path d="M151,139.1c-0.1,0.9-0.3,1.7-0.6,2.6c-0.5,1.3-1,2.6-1.8,3.8c-0.2,0.3-0.4,0.6-0.6,0.9c-0.2,0.3-0.4,0.6-0.7,0.8
		c-0.5,0.5-1,1-1.7,1.4c-1.2,0.8-2.6,1.3-4.1,1.4c-1.4,0.1-2.9-0.2-4.1-0.8c-0.6-0.3-1.2-0.7-1.8-1.1c-0.6-0.5-1-1.1-1.3-1.7
		c-0.6-1.3-0.4-2.9,0.4-4c0.2-0.3,0.4-0.6,0.7-0.8c0.3-0.2,0.6-0.4,0.9-0.4c0.7-0.1,1.4,0.1,1.9,0.5c-0.5-0.4-1.2-0.5-1.8-0.3
		c-0.6,0.2-1,0.6-1.3,1.2c-0.6,1.1-0.6,2.4,0,3.5c0.3,0.5,0.7,1,1.1,1.3c0.5,0.3,1,0.7,1.6,0.9c1.1,0.4,2.4,0.5,3.5,0.4
		c1.2-0.2,2.3-0.7,3.2-1.4c0.5-0.3,0.9-0.8,1.2-1.2c0.2-0.2,0.3-0.5,0.5-0.7c0.2-0.3,0.3-0.5,0.5-0.8c0.6-1,1-2.2,1.3-3.3
		c0.3-1.2,0.4-2.4,0.4-3.5c0-0.2,0-0.3,0-0.5c0.2,0,0.3,0,0.5-0.1c1.2-0.2,2.3-0.6,3.4-1c1.1-0.5,2.1-1.1,3-2
		c0.2-0.2,0.5-0.4,0.7-0.6c0.2-0.2,0.4-0.4,0.6-0.6c0.4-0.4,0.7-0.9,1-1.4c0.5-1,0.8-2.2,0.7-3.4c-0.1-1.2-0.4-2.4-1-3.4
		c-0.3-0.5-0.7-1-1.1-1.4c-0.4-0.4-0.9-0.7-1.5-0.9c-1.1-0.3-2.5-0.1-3.4,0.7c-0.5,0.4-0.9,0.9-0.9,1.5c-0.1,0.6,0.2,1.3,0.6,1.7
		c-0.5-0.4-0.9-1-0.9-1.7c0-0.3,0.1-0.7,0.2-1c0.2-0.3,0.4-0.6,0.6-0.8c1-1,2.5-1.4,3.9-1.2c0.7,0.1,1.4,0.5,1.9,0.9
		c0.5,0.4,1,0.9,1.5,1.5c0.9,1.1,1.4,2.5,1.6,3.9c0.2,1.4,0,2.9-0.6,4.3c-0.3,0.7-0.7,1.3-1.1,1.9c-0.2,0.3-0.5,0.5-0.7,0.8
		c-0.2,0.3-0.5,0.5-0.7,0.8c-1,1-2.2,1.8-3.4,2.5C152.6,138.4,151.8,138.8,151,139.1z"/>
	<path d="M114.5,160.6c-0.7,0.6-1.4,1.1-2.1,1.6c-1.2,0.7-2.5,1.4-3.8,1.7c-0.3,0.1-0.7,0.2-1,0.3c-0.3,0.1-0.7,0.2-1,0.2
		c-0.7,0.1-1.5,0.1-2.2,0c-1.5-0.1-2.8-0.7-4-1.5c-1.1-0.9-2.1-2-2.7-3.3c-0.3-0.6-0.5-1.3-0.6-2c-0.1-0.7-0.1-1.5,0.1-2.1
		c0.4-1.4,1.6-2.5,2.9-2.8c0.3-0.1,0.7-0.2,1-0.2c0.4,0,0.7,0.1,1,0.3c0.6,0.3,1,1,1.1,1.6c-0.2-0.6-0.6-1.2-1.2-1.4
		c-0.6-0.3-1.2-0.2-1.8,0.1c-1.2,0.5-2,1.5-2.2,2.7c-0.1,0.6-0.1,1.2,0,1.7c0.2,0.6,0.4,1.2,0.7,1.7c0.6,1.1,1.5,1.9,2.5,2.6
		c1,0.6,2.2,1,3.3,1c0.6,0,1.1,0,1.7-0.2c0.3-0.1,0.6-0.2,0.9-0.2c0.3-0.1,0.6-0.2,0.9-0.3c1.1-0.4,2.2-1,3.2-1.7
		c0.9-0.7,1.8-1.6,2.6-2.5c0.1-0.1,0.2-0.2,0.3-0.4c0.1,0.1,0.3,0.2,0.4,0.2c1,0.6,2.1,1.1,3.3,1.4c1.2,0.3,2.4,0.5,3.6,0.5
		c0.3,0,0.6,0,0.9,0c0.3,0,0.6,0,0.9-0.1c0.6-0.1,1.1-0.2,1.6-0.5c1.1-0.4,2-1.2,2.7-2.1c0.7-0.9,1.2-2.1,1.4-3.3
		c0.1-0.6,0.1-1.2,0-1.8c-0.1-0.6-0.3-1.1-0.6-1.6c-0.6-1-1.8-1.7-3.1-1.7c-0.6,0-1.2,0.1-1.7,0.6c-0.5,0.4-0.7,1.1-0.6,1.7
		c-0.1-0.6,0-1.4,0.5-1.9c0.2-0.3,0.5-0.5,0.8-0.6c0.3-0.1,0.7-0.2,1-0.2c1.4-0.1,2.8,0.5,3.7,1.6c0.4,0.6,0.8,1.2,0.9,2
		c0.1,0.7,0.2,1.4,0.1,2.1c-0.1,1.4-0.5,2.8-1.3,4c-0.8,1.2-1.9,2.2-3.2,2.9c-0.6,0.3-1.3,0.6-2.1,0.7c-0.4,0.1-0.7,0.1-1,0.2
		c-0.3,0.1-0.7,0.1-1,0.1c-1.4,0.1-2.8,0-4.2-0.2C116.2,161.2,115.4,160.9,114.5,160.6z"/>
	<path d="M99.2,124c1.2,0.3,2.4,0.6,3.6,1.1c1.9,0.7,3.8,1.6,5.6,2.8c1.2-1.7,2.7-3.3,4.2-4.6c1-0.8,2-1.6,3-2.3
		c1.1-0.6,2.3-1.1,3.5-1.5c2-0.7,4-1.2,6.1-1.4c-0.2-2.1-0.1-4.2,0.2-6.3c0.2-1.3,0.5-2.5,0.8-3.7c0.5-1.2,1-2.3,1.7-3.4
		c1.1-1.8,2.3-3.5,3.7-5c-1.5-1.5-2.7-3.2-3.8-4.9c-0.7-1.1-1.2-2.2-1.7-3.4c-0.4-1.2-0.7-2.4-0.9-3.7c-0.3-2-0.5-4.2-0.4-6.2
		c-2.1-0.2-4.1-0.7-6.1-1.3c-1.2-0.4-2.4-0.9-3.5-1.5c-1.1-0.7-2.1-1.4-3.1-2.2c-1.6-1.3-3.1-2.9-4.3-4.6c-1.7,1.2-3.6,2.2-5.5,2.9
		c-1.2,0.5-2.4,0.8-3.6,1.1c-1.2,0.2-2.5,0.3-3.8,0.3c-2.1,0-4.2-0.2-6.2-0.7c-0.6,2-1.4,4-2.4,5.8c-0.6,1.1-1.3,2.2-2.1,3.2
		c-0.9,0.9-1.8,1.8-2.7,2.6c-1.6,1.3-3.3,2.5-5.2,3.4c0.9,1.9,1.5,3.9,1.9,6c0.2,1.3,0.4,2.5,0.5,3.8c-0.1,1.3-0.2,2.5-0.4,3.8
		c-0.4,2-1,4.1-1.8,6c1.9,0.9,3.7,2,5.3,3.3c1,0.8,1.9,1.7,2.8,2.6c0.8,1,1.5,2.1,2.1,3.2c1,1.8,1.9,3.7,2.5,5.7
		c2-0.5,4.1-0.8,6.2-0.8C96.7,123.8,97.9,123.8,99.2,124z M109.6,134.1c-0.6-0.6-1.3-1.2-1.9-1.7c-2.7-2-5.9-3.3-9.2-4
		c-3.4-0.4-6.8-0.3-10,0.8c-0.8,0.3-1.6,0.6-2.4,1c-0.1-0.8-0.2-1.7-0.4-2.5c-0.8-3.3-2.4-6.3-4.5-9c-2.3-2.5-5.1-4.6-8.2-5.9
		c-0.8-0.3-1.6-0.6-2.4-0.8c0.5-0.7,0.9-1.4,1.3-2.2c1.5-3,2.2-6.3,2.3-9.8c-0.2-3.4-0.9-6.8-2.5-9.7c-0.4-0.7-0.9-1.5-1.3-2.2
		c0.8-0.2,1.6-0.5,2.4-0.8c3.1-1.3,5.8-3.4,8.1-6c2.1-2.7,3.6-5.8,4.3-9.1c0.2-0.8,0.3-1.7,0.4-2.5c0.8,0.4,1.6,0.7,2.4,0.9
		c3.2,1,6.6,1.1,10,0.6c3.4-0.8,6.5-2.1,9.2-4.2c0.7-0.5,1.3-1.1,1.9-1.7c0.4,0.8,0.8,1.5,1.2,2.2c1.8,2.8,4.4,5.1,7.3,6.9
		c3.1,1.6,6.3,2.6,9.7,2.7c0.8,0,1.7,0,2.5-0.1c-0.2,0.8-0.4,1.7-0.5,2.5c-0.4,3.3,0.1,6.7,1.2,10c1.3,3.2,3.2,6.1,5.7,8.3
		c0.6,0.6,1.3,1.1,2,1.6c-0.7,0.5-1.4,1-2,1.6c-2.5,2.3-4.3,5.2-5.5,8.4c-1,3.3-1.4,6.7-1,10c0.1,0.8,0.3,1.7,0.5,2.5
		c-0.8-0.1-1.7-0.1-2.5,0c-3.4,0.2-6.6,1.3-9.6,2.9c-2.9,1.9-5.4,4.2-7.2,7C110.4,132.6,110,133.4,109.6,134.1z"/>
	<path d="M101.2,111.7c0.6,0.1,1.2,0.2,1.8,0.3c0.8,0.1,1.7,0.3,2.5,0.5c0.7-0.5,1.4-0.9,2.2-1.3c0.5-0.3,1.1-0.6,1.6-0.9
		c0.5-0.3,1-0.7,1.6-1c0.7-0.4,1.5-0.9,2.2-1.3c0.3-0.8,0.5-1.6,0.8-2.4c0.2-0.6,0.4-1.2,0.6-1.7c0.2-0.6,0.4-1.2,0.6-1.7
		c0.3-0.8,0.6-1.6,0.9-2.4c-0.3-0.8-0.6-1.6-0.9-2.4c-0.2-0.6-0.4-1.2-0.6-1.7c-0.2-0.6-0.5-1.1-0.7-1.7c-0.3-0.8-0.6-1.6-0.9-2.4
		c-0.8-0.4-1.5-0.8-2.3-1.2c-0.5-0.3-1.1-0.6-1.6-0.9c-0.5-0.3-1.1-0.6-1.6-0.9c-0.7-0.4-1.5-0.9-2.2-1.3c-0.8,0.2-1.7,0.4-2.5,0.5
		c-0.6,0.1-1.2,0.2-1.8,0.3c-0.6,0.1-1.2,0.3-1.8,0.4c-0.8,0.2-1.7,0.3-2.5,0.4c-0.5,0.7-1,1.4-1.6,2c-0.4,0.5-0.8,0.9-1.2,1.4
		c-0.4,0.5-0.8,1-1.1,1.4c-0.5,0.7-1.1,1.3-1.7,1.9c0,0.9,0.1,1.7,0.1,2.6c0,0.6,0,1.2,0,1.8c0,0.6,0,1.2,0.1,1.8c0,0.9,0,1.7,0,2.6
		c0.6,0.6,1.2,1.3,1.7,1.9c0.4,0.5,0.8,0.9,1.2,1.4c0.4,0.5,0.8,0.9,1.2,1.4c0.6,0.7,1.1,1.3,1.6,2c0.8,0.1,1.7,0.2,2.5,0.4
		C100,111.5,100.6,111.6,101.2,111.7z M106.5,117.6c-1.4-0.4-2.8-0.7-4.3-1c-0.6-0.1-1.2-0.2-1.8-0.3c-0.6-0.1-1.2-0.2-1.8-0.3
		c-1.5-0.2-2.9-0.4-4.4-0.5c-0.8-1.2-1.7-2.4-2.6-3.5c-0.4-0.5-0.8-0.9-1.2-1.4c-0.4-0.5-0.8-0.9-1.2-1.4c-1-1.1-2-2.1-3.1-3.2
		c0.1-1.5,0.2-2.9,0.2-4.4c0-0.6,0-1.2,0-1.8c0-0.6,0-1.2,0-1.8c-0.1-1.5-0.2-2.9-0.3-4.4c1-1,2-2.1,3-3.2c0.4-0.5,0.8-0.9,1.1-1.4
		c0.4-0.5,0.8-0.9,1.1-1.4c0.9-1.2,1.8-2.3,2.6-3.6c1.5-0.1,2.9-0.3,4.4-0.5c0.6-0.1,1.2-0.2,1.8-0.3c0.6-0.1,1.2-0.2,1.8-0.3
		c1.4-0.3,2.9-0.7,4.3-1.1c1.2,0.8,2.4,1.6,3.7,2.4c0.5,0.3,1,0.6,1.6,0.9c0.5,0.3,1,0.6,1.6,0.9c1.3,0.7,2.6,1.3,3.9,1.9
		c0.4,1.4,0.8,2.8,1.3,4.2c0.2,0.6,0.4,1.1,0.6,1.7c0.2,0.6,0.4,1.1,0.6,1.7c0.6,1.4,1.1,2.7,1.8,4c-0.6,1.3-1.2,2.7-1.7,4
		c-0.2,0.6-0.4,1.1-0.6,1.7c-0.2,0.6-0.4,1.1-0.6,1.7c-0.4,1.4-0.9,2.8-1.2,4.2c-1.3,0.6-2.6,1.3-3.9,2c-0.5,0.3-1,0.6-1.6,0.9
		c-0.5,0.3-1,0.6-1.6,0.9C108.9,115.9,107.7,116.7,106.5,117.6z"/>
	<g>
		<path d="M117.8,178.3c-0.5,0.5-1.3,0.8-2.1,0.7c-1.4-0.1-2.5-1.4-2.4-2.8c0.1-1.4,1.4-2.5,2.8-2.4c0.3,0,0.5,0.1,0.8,0.2
			c0.2-0.2,0.4-0.3,0.7-0.5c1.3-0.6,2.9-0.1,3.5,1.2c0.6,1.3,0.1,2.9-1.2,3.5C119.3,178.6,118.5,178.6,117.8,178.3z"/>
		<path d="M63.9,169.4c-0.7,0.1-1.5-0.2-2-0.8c-1-1-1-2.7,0-3.7c1-1,2.7-1,3.7,0c0.2,0.2,0.4,0.4,0.5,0.7c0.3,0,0.5,0,0.8,0.1
			c1.4,0.3,2.3,1.8,1.9,3.2c-0.3,1.4-1.8,2.3-3.2,1.9C64.9,170.5,64.3,170,63.9,169.4z"/>
		<path d="M28.4,127.9c-0.6-0.4-1-1.1-1.1-1.9c-0.1-1.4,0.9-2.7,2.4-2.8c1.4-0.1,2.7,0.9,2.8,2.4c0,0.3,0,0.6-0.1,0.8
			c0.2,0.2,0.4,0.3,0.6,0.6c0.9,1.2,0.6,2.8-0.6,3.6c-1.2,0.9-2.8,0.6-3.6-0.6C28.4,129.4,28.2,128.6,28.4,127.9z"/>
		<path d="M27.9,73.2c-0.2-0.7-0.1-1.5,0.4-2.1c0.8-1.2,2.5-1.5,3.6-0.6c1.2,0.8,1.5,2.5,0.6,3.6c-0.2,0.2-0.4,0.4-0.6,0.6
			c0.1,0.3,0.1,0.5,0.1,0.8c-0.1,1.4-1.3,2.5-2.8,2.4s-2.5-1.3-2.4-2.8C26.9,74.3,27.3,73.7,27.9,73.2z"/>
		<path d="M62.6,31c0.3-0.7,0.9-1.2,1.7-1.4c1.4-0.4,2.8,0.5,3.2,1.9c0.4,1.4-0.5,2.8-1.9,3.2c-0.3,0.1-0.5,0.1-0.8,0.1
			c-0.1,0.2-0.3,0.5-0.5,0.7c-1,1-2.6,1.1-3.7,0.1c-1-1-1.1-2.6-0.1-3.7C61.1,31.3,61.9,31,62.6,31z"/>
		<path d="M116.3,21c0.7-0.3,1.5-0.3,2.2,0c1.3,0.6,1.9,2.2,1.2,3.5c-0.6,1.3-2.2,1.9-3.5,1.2c-0.3-0.1-0.5-0.3-0.7-0.5
			c-0.2,0.1-0.5,0.2-0.8,0.2c-1.4,0.2-2.7-0.9-2.9-2.3c-0.2-1.4,0.9-2.7,2.3-2.9C115,20.2,115.8,20.5,116.3,21z"/>
		<path d="M163.9,47.9c0.7,0.2,1.3,0.7,1.7,1.4c0.6,1.3,0,2.9-1.3,3.5c-1.3,0.6-2.9,0-3.5-1.3c-0.1-0.3-0.2-0.5-0.2-0.8
			c-0.3-0.1-0.5-0.2-0.7-0.3c-1.2-0.8-1.5-2.4-0.7-3.6c0.8-1.2,2.4-1.5,3.6-0.7C163.4,46.5,163.8,47.1,163.9,47.9z"/>
		<g>
			<path d="M55,185.2c-0.2-0.2-0.4-0.4-0.6-0.6c-3.9-3.9-5.7-9.7-4.8-15c0.1-0.7,0.2-1.3,0.5-2l0.3-1l0.4-0.9
				c0.2-0.6,0.6-1.2,0.9-1.8c0.1-0.3,0.3-0.6,0.5-0.9c0.2-0.3,0.4-0.6,0.7-0.8c1.8-2.1,4.7-3.3,7.4-3.1c1.4,0.1,2.7,0.5,3.8,1.1
				c0.6,0.3,1.2,0.7,1.6,1.3c0.4,0.5,0.8,1.1,1,1.8c0.1,0.3,0.1,0.6,0.2,0.9c0.3-0.1,0.6-0.2,0.8-0.3c0.7-0.2,1.4-0.2,2-0.1
				c0.7,0.1,1.4,0.4,1.9,0.7c1.1,0.7,2.2,1.6,2.9,2.7c1.5,2.2,2,5.2,1.1,7.9c-0.1,0.3-0.2,0.7-0.4,1c-0.1,0.3-0.3,0.6-0.5,0.9
				c-0.3,0.6-0.6,1.2-1.1,1.7l-0.6,0.8l-0.7,0.8c-0.4,0.5-0.9,1-1.4,1.4c-4.1,3.5-9.9,5-15.3,3.7C55.5,185.4,55.3,185.3,55,185.2z
				 M64.5,168.3c-0.6,0.1-1.3,0-1.8-0.3c0.6,0.3,1.4,0.3,2,0c0.1,0.7,0.4,1.3,1.1,1.7C65.2,169.4,64.7,168.9,64.5,168.3z
				 M66.2,165.4c0-0.6-0.1-1.2-0.3-1.8c-0.4-1.1-1.2-1.9-2.3-2.3c-1.1-0.5-2.2-0.7-3.3-0.6c-2.3,0.1-4.4,1.2-5.7,2.9
				c-0.2,0.2-0.3,0.4-0.5,0.7c-0.1,0.2-0.3,0.5-0.4,0.7c-0.2,0.5-0.5,1-0.7,1.6l-0.3,0.8l-0.2,0.8c-0.2,0.6-0.2,1.1-0.3,1.7
				c-0.5,4.5,1.3,9.2,4.5,12.1c4.2,1.3,9.1,0.4,12.7-2.4c0.4-0.4,0.9-0.7,1.3-1.1l0.6-0.6l0.6-0.7c0.4-0.4,0.7-0.9,1-1.4
				c0.2-0.2,0.3-0.5,0.4-0.7c0.1-0.2,0.2-0.5,0.3-0.7c0.8-2,0.6-4.5-0.4-6.4c-0.5-1-1.3-1.9-2.3-2.5c-0.9-0.7-2-1-3.2-0.8
				C67.3,164.8,66.7,165,66.2,165.4z"/>
			<path d="M11.4,134.2c0-0.3-0.1-0.5-0.1-0.8c-0.5-5.5,1.9-11.1,6-14.6c0.5-0.4,1-0.9,1.6-1.2l0.8-0.5l0.9-0.5
				c0.6-0.3,1.2-0.5,1.8-0.8c0.3-0.1,0.6-0.2,1-0.3c0.3-0.1,0.7-0.2,1-0.2c2.8-0.4,5.7,0.5,7.6,2.4c1,0.9,1.8,2.1,2.2,3.3
				c0.3,0.6,0.4,1.3,0.4,2c0,0.7-0.1,1.4-0.4,2c-0.1,0.3-0.3,0.5-0.4,0.8c0.3,0.1,0.6,0.2,0.8,0.3c0.6,0.3,1.2,0.7,1.6,1.2
				c0.5,0.5,0.8,1.2,1,1.8c0.5,1.2,0.6,2.6,0.5,4c-0.3,2.7-1.8,5.3-4.2,6.8c-0.3,0.2-0.6,0.4-0.9,0.5c-0.3,0.2-0.6,0.3-0.9,0.4
				c-0.6,0.2-1.2,0.5-1.9,0.6l-1,0.2l-1,0.2c-0.7,0.1-1.3,0.1-2,0.2c-5.4,0.1-10.9-2.5-14.1-7C11.7,134.7,11.5,134.5,11.4,134.2z
				 M29.6,127.4c-0.6-0.3-1-0.8-1.2-1.4c0.3,0.7,0.9,1.1,1.5,1.3c-0.4,0.6-0.5,1.3-0.3,2C29.4,128.7,29.3,128,29.6,127.4z
				 M32.7,126.2c0.4-0.4,0.7-1,0.9-1.5c0.4-1.1,0.2-2.2-0.3-3.2c-0.5-1-1.2-2-2.1-2.6c-1.8-1.4-4.2-2-6.3-1.4
				c-0.3,0.1-0.5,0.1-0.8,0.2c-0.3,0.1-0.5,0.2-0.8,0.3c-0.5,0.3-1.1,0.5-1.5,0.8l-0.7,0.4l-0.7,0.5c-0.5,0.3-0.9,0.7-1.3,1.1
				c-3.3,3.1-4.9,7.8-4.3,12.2c2.4,3.7,6.7,6.2,11.2,6.4c0.6,0,1.1,0.1,1.7,0l0.9-0.1l0.8-0.1c0.6-0.1,1.1-0.3,1.7-0.4
				c0.3-0.1,0.5-0.2,0.8-0.3c0.3-0.1,0.5-0.2,0.7-0.3c1.9-1,3.3-3,3.8-5.2c0.2-1.1,0.2-2.3-0.1-3.4c-0.2-1.1-0.9-2.1-1.9-2.7
				C33.9,126.5,33.3,126.3,32.7,126.2z"/>
			<path d="M10.7,67.2c0.1-0.2,0.3-0.5,0.5-0.7c3.2-4.6,8.6-7.3,14-7.3c0.7,0,1.3,0,2,0.1l1,0.1l1,0.2c0.7,0.1,1.3,0.4,1.9,0.6
				c0.3,0.1,0.6,0.2,1,0.4c0.3,0.1,0.6,0.3,0.9,0.5c2.4,1.4,4,4,4.3,6.7c0.2,1.3,0,2.7-0.4,4c-0.2,0.6-0.5,1.3-1,1.8
				c-0.4,0.5-1,1-1.6,1.3c-0.3,0.1-0.6,0.2-0.8,0.3c0.2,0.2,0.3,0.5,0.5,0.8c0.3,0.6,0.4,1.3,0.5,2c0,0.7-0.2,1.4-0.4,2
				c-0.5,1.2-1.2,2.4-2.2,3.4c-1.9,1.9-4.8,2.9-7.6,2.5c-0.3-0.1-0.7-0.1-1-0.2c-0.3-0.1-0.7-0.2-1-0.3c-0.6-0.2-1.3-0.4-1.9-0.7
				l-0.9-0.4l-0.9-0.5c-0.6-0.3-1.1-0.8-1.6-1.2c-4.2-3.4-6.7-8.9-6.3-14.5C10.7,67.7,10.7,67.4,10.7,67.2z M29,73.6
				c-0.2-0.6-0.2-1.3,0-1.8c-0.2,0.7-0.1,1.4,0.3,2c-0.6,0.2-1.2,0.7-1.5,1.3C28.1,74.5,28.5,73.9,29,73.6z M32.2,74.8
				c0.6-0.1,1.2-0.3,1.7-0.6c1-0.6,1.6-1.6,1.8-2.7c0.3-1.1,0.3-2.3,0.1-3.4c-0.5-2.2-1.9-4.2-3.9-5.1c-0.2-0.1-0.5-0.2-0.7-0.3
				c-0.2-0.1-0.5-0.2-0.8-0.3c-0.6-0.1-1.1-0.3-1.7-0.4l-0.9-0.1l-0.9,0c-0.6-0.1-1.1,0-1.7,0c-4.5,0.3-8.8,2.8-11.1,6.6
				c-0.6,4.4,1.2,9,4.5,12.1c0.4,0.4,0.8,0.8,1.3,1.1l0.7,0.5l0.7,0.4c0.5,0.3,1,0.5,1.6,0.8c0.3,0.1,0.5,0.2,0.8,0.3
				c0.3,0.1,0.5,0.1,0.8,0.2c2.1,0.5,4.5-0.1,6.3-1.6c0.9-0.7,1.6-1.6,2.1-2.7c0.5-1,0.6-2.2,0.3-3.2C33,75.7,32.7,75.2,32.2,74.8z"
				/>
			<path d="M53.4,15.4c0.3-0.1,0.5-0.2,0.8-0.2c5.4-1.4,11.3-0.1,15.4,3.4c0.5,0.5,1,0.9,1.5,1.4l0.7,0.7l0.6,0.8
				c0.4,0.5,0.7,1.1,1.1,1.7c0.2,0.3,0.3,0.6,0.5,0.9c0.2,0.3,0.3,0.6,0.4,1c0.9,2.7,0.5,5.7-1,7.9c-0.7,1.1-1.7,2.1-2.9,2.8
				c-0.5,0.4-1.2,0.7-1.9,0.8c-0.7,0.1-1.4,0.1-2-0.1c-0.3-0.1-0.6-0.2-0.8-0.3c0,0.3-0.1,0.6-0.1,0.9c-0.2,0.7-0.5,1.3-0.9,1.8
				c-0.4,0.5-1,1-1.6,1.3c-1.2,0.7-2.5,1.1-3.8,1.2c-2.7,0.2-5.5-0.9-7.4-3c-0.2-0.3-0.5-0.5-0.7-0.8c-0.2-0.3-0.4-0.6-0.6-0.9
				c-0.3-0.6-0.7-1.1-0.9-1.8L49.1,34l-0.3-1c-0.2-0.6-0.4-1.3-0.5-2c-1-5.3,0.6-11.1,4.5-15.1C53,15.7,53.2,15.5,53.4,15.4z
				 M63.2,32.1c0.2-0.6,0.6-1.1,1.2-1.4c-0.6,0.4-1,1-1,1.7c-0.6-0.3-1.3-0.3-2,0.1C61.9,32.1,62.6,32,63.2,32.1z M64.9,35
				c0.5,0.3,1.1,0.6,1.7,0.6c1.1,0.2,2.2-0.1,3.1-0.9c0.9-0.7,1.7-1.6,2.2-2.6c1-2,1.2-4.4,0.3-6.4c-0.1-0.2-0.2-0.5-0.4-0.7
				c-0.1-0.2-0.3-0.5-0.4-0.7c-0.3-0.5-0.7-1-1.1-1.4l-0.6-0.6l-0.6-0.6c-0.4-0.4-0.9-0.7-1.3-1.1c-3.7-2.7-8.6-3.5-12.7-2.1
				c-3.2,3-4.9,7.7-4.3,12.2c0.1,0.6,0.1,1.1,0.3,1.7l0.2,0.8l0.3,0.8c0.2,0.6,0.4,1.1,0.7,1.6c0.1,0.3,0.3,0.5,0.4,0.7
				c0.1,0.2,0.3,0.4,0.5,0.7c1.3,1.7,3.5,2.8,5.8,2.8c1.1,0,2.3-0.2,3.3-0.7c1.1-0.4,1.9-1.3,2.3-2.3C64.9,36.2,65,35.6,64.9,35z"/>
			<path d="M119.3,3.1c0.3,0.1,0.5,0.2,0.8,0.3c5,2.3,8.7,7.2,9.6,12.5c0.1,0.7,0.2,1.3,0.2,2l0,1l-0.1,1c0,0.7-0.1,1.3-0.2,2
				c0,0.3-0.1,0.7-0.2,1c-0.1,0.3-0.2,0.7-0.3,1c-1,2.6-3.3,4.7-5.9,5.4c-1.3,0.4-2.7,0.5-4,0.3c-0.6-0.1-1.4-0.3-1.9-0.6
				c-0.6-0.3-1.1-0.8-1.5-1.4c-0.2-0.2-0.3-0.5-0.5-0.8c-0.2,0.2-0.4,0.4-0.7,0.6c-0.6,0.4-1.2,0.7-1.9,0.8c-0.7,0.1-1.4,0.1-2,0
				c-1.3-0.2-2.6-0.8-3.7-1.6c-2.2-1.6-3.7-4.2-3.8-7c0-0.3,0-0.7,0-1c0-0.4,0.1-0.7,0.1-1c0.1-0.7,0.2-1.3,0.4-2l0.3-1l0.4-0.9
				c0.2-0.6,0.6-1.2,0.9-1.8c2.6-4.7,7.6-8.1,13.2-8.7C118.8,3.1,119,3.1,119.3,3.1z M116.1,22.2c0.5-0.3,1.2-0.4,1.8-0.3
				c-0.7-0.1-1.4,0.2-1.9,0.6c-0.3-0.6-0.9-1.1-1.6-1.2C115.1,21.4,115.7,21.7,116.1,22.2z M115.6,25.6c0.2,0.6,0.5,1.1,0.9,1.6
				c0.8,0.9,1.8,1.3,3,1.3c1.2,0.1,2.3-0.1,3.4-0.5c2.1-0.9,3.8-2.6,4.4-4.7c0.1-0.3,0.2-0.5,0.2-0.8c0.1-0.3,0.1-0.5,0.1-0.8
				c0-0.6,0.1-1.2,0.1-1.7l0-0.9l-0.1-0.9c0-0.6-0.2-1.1-0.3-1.7c-1.1-4.4-4.3-8.2-8.4-9.8c-4.4,0.2-8.7,2.7-11.1,6.6
				c-0.3,0.5-0.6,1-0.8,1.5l-0.4,0.8l-0.3,0.8c-0.2,0.5-0.3,1.1-0.5,1.7c-0.1,0.3-0.1,0.6-0.2,0.8c-0.1,0.3-0.1,0.5-0.1,0.8
				c-0.1,2.2,0.9,4.4,2.6,5.9c0.9,0.8,1.9,1.3,3,1.6c1.1,0.4,2.2,0.3,3.2-0.3C114.7,26.5,115.2,26.1,115.6,25.6z"/>
			<path d="M177.7,36c0.1,0.2,0.2,0.5,0.4,0.7c2.4,5,2,11.1-0.7,15.8c-0.4,0.6-0.7,1.2-1.1,1.7l-0.6,0.8l-0.7,0.7
				c-0.4,0.5-1,0.9-1.5,1.4c-0.2,0.2-0.5,0.4-0.8,0.6c-0.3,0.2-0.6,0.4-0.9,0.6c-2.5,1.4-5.5,1.5-8,0.4c-1.3-0.5-2.4-1.4-3.2-2.3
				c-0.4-0.5-0.9-1.1-1.1-1.7c-0.2-0.6-0.3-1.3-0.3-2c0-0.3,0.1-0.6,0.1-0.9c-0.3,0-0.6,0-0.9,0c-0.7-0.1-1.3-0.3-2-0.6
				c-0.6-0.3-1.1-0.8-1.5-1.3c-0.9-1-1.5-2.2-1.8-3.6c-0.7-2.6-0.1-5.6,1.6-7.8c0.2-0.3,0.4-0.6,0.7-0.8c0.2-0.3,0.5-0.5,0.7-0.7
				c0.5-0.4,1-0.9,1.6-1.2l0.8-0.6l0.9-0.5c0.6-0.3,1.2-0.6,1.8-0.8c5-1.9,11.1-1.3,15.7,1.8C177.3,35.7,177.5,35.9,177.7,36z
				 M163,48.7c0.6,0.1,1.2,0.4,1.6,0.9c-0.5-0.5-1.2-0.8-1.8-0.7c0.2-0.6,0-1.4-0.4-1.9C162.7,47.4,163,48,163,48.7z M160.4,50.9
				c-0.2,0.6-0.4,1.2-0.3,1.8c0,1.1,0.5,2.2,1.4,2.9c0.8,0.8,1.8,1.4,2.9,1.8c2.2,0.7,4.6,0.4,6.4-0.8c0.2-0.2,0.5-0.3,0.7-0.5
				c0.2-0.2,0.4-0.3,0.6-0.6c0.4-0.4,0.8-0.8,1.2-1.3l0.5-0.7l0.5-0.7c0.3-0.5,0.6-1,0.8-1.5c2-4.1,2-9-0.1-12.9
				c-3.5-2.7-8.4-3.5-12.7-2.1c-0.5,0.2-1.1,0.3-1.6,0.6l-0.8,0.4l-0.7,0.4c-0.5,0.3-1,0.6-1.4,1c-0.2,0.2-0.5,0.3-0.7,0.5
				c-0.2,0.2-0.4,0.4-0.6,0.6c-1.5,1.6-2.1,4-1.8,6.2c0.2,1.1,0.6,2.2,1.3,3.2c0.6,1,1.6,1.6,2.7,1.8C159.2,51,159.8,51,160.4,50.9z
				"/>
			<path d="M201.3,98.9c-0.1,0.3-0.1,0.5-0.2,0.8c-1.4,5.4-5.6,9.8-10.6,11.7c-0.6,0.2-1.3,0.4-1.9,0.6l-1,0.2l-1,0.1
				c-0.7,0.1-1.3,0.1-2,0.1c-0.3,0-0.7,0-1,0c-0.4,0-0.7-0.1-1-0.2c-2.8-0.5-5.1-2.4-6.4-4.8c-0.6-1.2-0.9-2.5-1-3.9
				c0-0.6,0-1.4,0.3-2c0.2-0.7,0.6-1.2,1.1-1.7c0.2-0.2,0.4-0.4,0.7-0.6c-0.2-0.2-0.5-0.4-0.7-0.6c-0.5-0.5-0.9-1.1-1.1-1.7
				c-0.2-0.6-0.3-1.4-0.3-2c0-1.3,0.3-2.7,0.9-3.9c1.2-2.4,3.5-4.4,6.3-4.9c0.3-0.1,0.7-0.1,1-0.2c0.4,0,0.7-0.1,1-0.1
				c0.7,0,1.3,0,2,0.1l1,0.1l1,0.2c0.7,0.1,1.3,0.3,1.9,0.5c5.1,1.8,9.3,6.1,10.9,11.4C201.1,98.3,201.2,98.6,201.3,98.9z
				 M181.9,99.1c0.4,0.5,0.6,1.1,0.6,1.7c0-0.7-0.4-1.3-1-1.7c0.5-0.4,0.9-1,0.9-1.8C182.5,97.9,182.3,98.6,181.9,99.1z M178.5,99.1
				c-0.5,0.3-1,0.7-1.4,1.1c-0.7,0.9-1,2-0.8,3.2c0.1,1.2,0.5,2.3,1.1,3.2c1.2,1.9,3.2,3.3,5.4,3.5c0.3,0,0.5,0.1,0.8,0.1
				c0.3,0,0.5,0,0.8,0c0.6-0.1,1.2-0.1,1.7-0.2l0.8-0.2l0.8-0.3c0.6-0.1,1.1-0.4,1.6-0.6c4.2-1.8,7.3-5.7,8.2-10
				c-1-4.3-4.2-8.1-8.4-9.8c-0.5-0.2-1.1-0.4-1.6-0.6l-0.8-0.2l-0.8-0.1c-0.6-0.1-1.1-0.1-1.7-0.2c-0.3,0-0.6,0-0.8,0
				c-0.3,0-0.5,0-0.8,0.1c-2.2,0.3-4.2,1.7-5.4,3.6c-0.6,1-0.9,2.1-1.1,3.2c-0.2,1.1,0.1,2.3,0.9,3.1
				C177.4,98.4,177.9,98.8,178.5,99.1z"/>
			<path d="M178.9,162.1c-0.2,0.2-0.4,0.3-0.7,0.5c-4.5,3.2-10.6,3.9-15.6,2.1c-0.6-0.3-1.3-0.5-1.8-0.8l-0.9-0.5l-0.8-0.5
				c-0.6-0.3-1.1-0.8-1.6-1.2c-0.3-0.2-0.5-0.4-0.8-0.7c-0.3-0.2-0.5-0.5-0.7-0.8c-1.8-2.2-2.4-5.2-1.8-7.8c0.3-1.3,0.9-2.6,1.8-3.6
				c0.4-0.5,0.9-1,1.5-1.4c0.6-0.3,1.3-0.6,1.9-0.6c0.3,0,0.6,0,0.9,0c-0.1-0.3-0.1-0.6-0.2-0.9c-0.1-0.7,0-1.4,0.3-2
				c0.2-0.6,0.6-1.3,1.1-1.8c0.9-1,1.9-1.9,3.2-2.4c2.5-1.1,5.5-1.1,8,0.2c0.3,0.2,0.6,0.3,0.9,0.5c0.3,0.2,0.6,0.4,0.8,0.6
				c0.5,0.4,1,0.8,1.5,1.3l0.7,0.7l0.6,0.8c0.4,0.5,0.8,1.1,1.1,1.7c2.8,4.6,3.2,10.7,1,15.7C179.2,161.6,179.1,161.9,178.9,162.1z
				 M163.9,149.8c0,0.6-0.2,1.3-0.6,1.7c0.4-0.6,0.5-1.3,0.4-1.9c0.7,0,1.4-0.2,1.8-0.7C165.2,149.3,164.6,149.7,163.9,149.8z
				 M161.3,147.6c-0.6-0.1-1.2-0.1-1.8,0c-1.1,0.2-2.1,0.9-2.7,1.9c-0.6,1-1.1,2.1-1.2,3.2c-0.3,2.2,0.4,4.6,1.9,6.2
				c0.2,0.2,0.4,0.4,0.6,0.6c0.2,0.2,0.4,0.4,0.7,0.5c0.5,0.3,0.9,0.7,1.5,0.9l0.8,0.4l0.8,0.3c0.5,0.3,1.1,0.4,1.6,0.6
				c4.4,1.3,9.2,0.4,12.7-2.4c2-3.9,2-8.9-0.1-12.9c-0.3-0.5-0.5-1-0.9-1.5l-0.5-0.7l-0.6-0.7c-0.4-0.5-0.8-0.8-1.2-1.3
				c-0.2-0.2-0.4-0.4-0.6-0.6c-0.2-0.2-0.4-0.3-0.7-0.5c-1.8-1.2-4.3-1.4-6.4-0.7c-1.1,0.4-2.1,1-2.9,1.8c-0.9,0.8-1.3,1.8-1.3,3
				C161,146.5,161.1,147.1,161.3,147.6z"/>
			<path d="M121.2,196.2c-0.3,0-0.6,0-0.8-0.1c-5.5-0.5-10.6-3.8-13.3-8.4c-0.3-0.6-0.7-1.2-0.9-1.8l-0.4-0.9l-0.3-1
				c-0.2-0.6-0.3-1.3-0.5-1.9c-0.1-0.3-0.1-0.7-0.1-1c0-0.3,0-0.7,0-1c0-2.8,1.5-5.5,3.6-7.1c1.1-0.8,2.3-1.4,3.6-1.6
				c0.6-0.1,1.4-0.2,2-0.1c0.7,0.1,1.3,0.4,1.9,0.8c0.3,0.2,0.5,0.4,0.7,0.6c0.1-0.3,0.3-0.5,0.4-0.8c0.4-0.6,0.9-1,1.5-1.4
				c0.6-0.4,1.3-0.6,1.9-0.7c1.3-0.2,2.7-0.2,4,0.2c2.6,0.7,4.9,2.7,6,5.3c0.1,0.3,0.3,0.6,0.3,1c0.1,0.3,0.2,0.7,0.2,1
				c0.1,0.7,0.3,1.3,0.3,2l0.1,1l0,1c0,0.7-0.1,1.3-0.2,2c-0.8,5.3-4.4,10.2-9.4,12.7C121.7,196,121.4,196.1,121.2,196.2z
				 M117.6,177.1c-0.4,0.5-1,0.8-1.6,0.9c0.7-0.2,1.3-0.6,1.5-1.2c0.5,0.5,1.2,0.7,1.9,0.6C118.8,177.6,118.2,177.5,117.6,177.1z
				 M117,173.8c-0.4-0.5-0.8-0.9-1.4-1.2c-1-0.5-2.2-0.6-3.2-0.3c-1.1,0.3-2.1,0.9-3,1.7c-1.7,1.5-2.6,3.8-2.5,5.9
				c0,0.3,0,0.5,0.1,0.8c0,0.3,0.1,0.5,0.2,0.8c0.2,0.6,0.3,1.1,0.5,1.7l0.3,0.8l0.4,0.8c0.2,0.5,0.6,1,0.9,1.5
				c2.5,3.8,6.8,6.2,11.3,6.3c4.1-1.7,7.2-5.5,8.2-10c0.1-0.6,0.3-1.1,0.3-1.7l0.1-0.9l0-0.9c0-0.6-0.1-1.2-0.1-1.7
				c0-0.3-0.1-0.6-0.1-0.8c0-0.3-0.1-0.5-0.2-0.8c-0.7-2.1-2.4-3.8-4.5-4.6c-1.1-0.4-2.2-0.6-3.4-0.5c-1.2,0-2.2,0.5-2.9,1.4
				C117.4,172.7,117.2,173.2,117,173.8z"/>
			<path d="M183.1,99c0.4,0.6,0.6,1.4,0.4,2.2c-0.4,1.4-1.8,2.2-3.2,1.8c-1.4-0.4-2.2-1.8-1.8-3.2c0.1-0.3,0.2-0.5,0.3-0.7
				c-0.1-0.2-0.3-0.5-0.3-0.7c-0.4-1.4,0.4-2.8,1.8-3.2c1.4-0.4,2.8,0.4,3.2,1.8C183.6,97.6,183.5,98.4,183.1,99z"/>
		</g>
		<path d="M164.9,150.6c-0.1,0.7-0.5,1.4-1.1,1.9c-1.2,0.8-2.8,0.5-3.6-0.7c-0.8-1.2-0.5-2.8,0.7-3.6c0.2-0.2,0.5-0.3,0.7-0.4
			c0-0.3,0.1-0.5,0.2-0.8c0.6-1.3,2.1-1.9,3.4-1.3c1.3,0.6,1.9,2.1,1.3,3.4C166.2,149.8,165.6,150.3,164.9,150.6z"/>
	</g>
	<g>
		<path d="M90,178.1c-0.7,0.3-1.5,0.3-2.2,0c-1.3-0.6-1.9-2.2-1.3-3.5c0.6-1.3,2.2-1.9,3.5-1.3c0.3,0.1,0.5,0.3,0.7,0.5
			c0.2-0.1,0.5-0.2,0.8-0.2c1.4-0.2,2.7,0.9,2.9,2.3c0.2,1.4-0.9,2.7-2.3,2.9C91.3,178.9,90.5,178.6,90,178.1z"/>
		<path d="M42.3,151.4c-0.7-0.2-1.3-0.7-1.7-1.4c-0.6-1.3,0-2.9,1.3-3.5c1.3-0.6,2.9,0,3.5,1.3c0.1,0.3,0.2,0.5,0.2,0.8
			c0.3,0.1,0.5,0.2,0.7,0.3c1.2,0.8,1.5,2.4,0.7,3.6c-0.8,1.2-2.4,1.5-3.6,0.7C42.8,152.9,42.4,152.2,42.3,151.4z"/>
		<path d="M22.9,100.4c-0.4-0.6-0.6-1.4-0.4-2.2c0.4-1.4,1.8-2.2,3.2-1.8c1.4,0.4,2.2,1.8,1.8,3.2c-0.1,0.3-0.2,0.5-0.3,0.7
			c0.2,0.2,0.3,0.5,0.3,0.7c0.4,1.4-0.4,2.8-1.8,3.2c-1.4,0.4-2.8-0.4-3.2-1.8C22.3,101.8,22.5,101,22.9,100.4z"/>
		<path d="M40.9,48.8c0.1-0.7,0.4-1.4,1.1-1.9c1.2-0.8,2.8-0.5,3.6,0.6c0.8,1.2,0.5,2.8-0.6,3.6c-0.2,0.2-0.5,0.3-0.7,0.4
			c0,0.3-0.1,0.5-0.2,0.8c-0.6,1.3-2.1,1.9-3.4,1.4c-1.3-0.6-1.9-2.1-1.4-3.4C39.5,49.5,40.1,49,40.9,48.8z"/>
		<path d="M87.8,20.8c0.5-0.5,1.3-0.8,2.1-0.7c1.4,0.1,2.5,1.4,2.4,2.8c-0.1,1.4-1.4,2.5-2.8,2.4c-0.3,0-0.5-0.1-0.8-0.2
			c-0.2,0.2-0.4,0.3-0.7,0.5c-1.3,0.6-2.9,0.1-3.5-1.2c-0.6-1.3-0.1-2.9,1.2-3.5C86.3,20.5,87.1,20.5,87.8,20.8z"/>
		<path d="M141.7,29.5c0.7-0.1,1.5,0.2,2.1,0.8c1,1,1,2.7,0,3.7s-2.7,1-3.7,0c-0.2-0.2-0.4-0.4-0.5-0.7c-0.3,0-0.5,0-0.8-0.1
			c-1.4-0.3-2.3-1.7-1.9-3.1c0.3-1.4,1.7-2.3,3.1-1.9C140.8,28.4,141.4,28.9,141.7,29.5z"/>
		<path d="M177.4,70.9c0.6,0.4,1,1.1,1.1,1.9c0.1,1.4-0.9,2.7-2.4,2.8c-1.4,0.1-2.7-0.9-2.8-2.4c0-0.3,0-0.6,0.1-0.8
			c-0.2-0.2-0.4-0.3-0.6-0.6c-0.9-1.2-0.6-2.8,0.5-3.7c1.2-0.9,2.8-0.6,3.7,0.5C177.4,69.4,177.6,70.2,177.4,70.9z"/>
		<g>
			<path d="M28.5,163.3c-0.1-0.2-0.2-0.5-0.4-0.7c-2.4-5-2.1-11.1,0.6-15.8c0.4-0.6,0.7-1.2,1.1-1.7l0.6-0.8l0.7-0.7
				c0.4-0.5,1-0.9,1.5-1.4c0.2-0.2,0.5-0.4,0.8-0.6c0.3-0.2,0.6-0.4,0.9-0.6c2.5-1.4,5.5-1.5,8-0.4c1.3,0.5,2.4,1.3,3.2,2.3
				c0.4,0.5,0.9,1.1,1.1,1.7c0.2,0.6,0.3,1.3,0.3,2c0,0.3-0.1,0.6-0.1,0.9c0.3,0,0.6,0,0.9,0c0.7,0.1,1.3,0.3,2,0.6
				c0.6,0.3,1.1,0.8,1.5,1.3c0.9,1,1.5,2.2,1.8,3.5c0.7,2.6,0.1,5.6-1.6,7.8c-0.2,0.3-0.4,0.6-0.7,0.8c-0.2,0.3-0.5,0.5-0.7,0.7
				c-0.5,0.4-1,0.9-1.6,1.2l-0.8,0.6l-0.9,0.5c-0.6,0.3-1.2,0.6-1.8,0.9c-5,2-11.1,1.4-15.7-1.7C29,163.6,28.7,163.5,28.5,163.3z
				 M43.2,150.6c-0.6-0.1-1.2-0.4-1.6-0.9c0.5,0.5,1.2,0.8,1.9,0.7c-0.1,0.6,0,1.4,0.4,1.9C43.5,151.9,43.2,151.3,43.2,150.6z
				 M45.8,148.4c0.2-0.6,0.3-1.2,0.3-1.8c0-1.1-0.5-2.2-1.4-2.9c-0.8-0.8-1.8-1.4-2.9-1.7c-2.2-0.7-4.6-0.4-6.4,0.8
				c-0.2,0.2-0.5,0.3-0.7,0.5c-0.2,0.2-0.4,0.3-0.6,0.6c-0.4,0.4-0.8,0.8-1.2,1.3l-0.5,0.7l-0.5,0.7c-0.3,0.5-0.6,1-0.8,1.5
				c-2,4.1-1.9,9,0.2,12.9c3.5,2.6,8.4,3.5,12.7,2.1c0.5-0.2,1.1-0.3,1.6-0.6l0.8-0.4l0.7-0.4c0.5-0.3,1-0.6,1.4-1
				c0.2-0.2,0.5-0.3,0.7-0.5c0.2-0.2,0.4-0.4,0.6-0.6c1.5-1.6,2.1-4,1.8-6.2c-0.2-1.1-0.6-2.2-1.3-3.2c-0.6-1-1.6-1.6-2.7-1.8
				C47,148.2,46.4,148.3,45.8,148.4z"/>
			<path d="M4.7,100.6c0.1-0.3,0.1-0.5,0.2-0.8c1.4-5.4,5.5-9.8,10.6-11.7c0.6-0.2,1.3-0.5,1.9-0.6l1-0.2l1-0.1
				c0.7-0.1,1.3-0.1,2-0.1c0.3,0,0.7,0,1,0c0.4,0,0.7,0.1,1,0.1c2.8,0.5,5.2,2.4,6.4,4.8c0.6,1.2,0.9,2.5,1,3.9c0,0.6,0,1.4-0.3,2
				c-0.2,0.7-0.6,1.2-1.1,1.7c-0.2,0.2-0.4,0.4-0.7,0.6c0.2,0.2,0.5,0.4,0.7,0.6c0.5,0.5,0.9,1.1,1.1,1.7c0.3,0.6,0.3,1.4,0.3,2
				c0,1.3-0.3,2.7-0.9,3.9c-1.2,2.4-3.5,4.4-6.3,5c-0.3,0.1-0.7,0.2-1,0.2c-0.4,0-0.7,0.1-1,0.1c-0.7,0-1.3,0-2-0.1l-1-0.1l-1-0.2
				c-0.7-0.1-1.3-0.3-1.9-0.5c-5.1-1.7-9.4-6.1-10.9-11.4C4.8,101.1,4.8,100.9,4.7,100.6z M24.1,100.3c-0.4-0.5-0.7-1.1-0.6-1.7
				c0,0.7,0.4,1.3,1,1.7c-0.5,0.4-0.9,1-0.9,1.8C23.5,101.5,23.7,100.8,24.1,100.3z M27.5,100.3c0.5-0.3,1-0.7,1.4-1.1
				c0.7-0.9,1-2,0.8-3.2c-0.1-1.2-0.5-2.3-1.1-3.2c-1.2-1.9-3.3-3.2-5.4-3.5c-0.3,0-0.5-0.1-0.8-0.1c-0.3,0-0.5,0-0.8,0
				c-0.6,0.1-1.2,0.1-1.7,0.2l-0.8,0.2l-0.8,0.3c-0.6,0.1-1.1,0.4-1.6,0.6c-4.1,1.8-7.3,5.7-8.2,10c1,4.3,4.2,8.1,8.4,9.8
				c0.5,0.2,1.1,0.4,1.6,0.6l0.8,0.2l0.8,0.1c0.6,0.1,1.1,0.1,1.7,0.2c0.3,0,0.6,0,0.8,0c0.3,0,0.5,0,0.8-0.1
				c2.2-0.3,4.2-1.7,5.3-3.6c0.6-1,0.9-2.1,1-3.2c0.2-1.1-0.2-2.3-0.9-3.1C28.5,100.9,28,100.6,27.5,100.3z"/>
			<path d="M26.8,37.3c0.2-0.2,0.4-0.3,0.7-0.5c4.5-3.2,10.5-4,15.6-2.2c0.6,0.3,1.3,0.5,1.9,0.8l0.9,0.5l0.8,0.5
				c0.6,0.3,1.1,0.8,1.6,1.2c0.3,0.2,0.5,0.4,0.8,0.7c0.3,0.2,0.5,0.5,0.7,0.8c1.8,2.2,2.4,5.1,1.8,7.8c-0.3,1.3-0.9,2.6-1.7,3.6
				c-0.4,0.5-0.9,1-1.5,1.4c-0.6,0.4-1.3,0.6-1.9,0.6c-0.3,0-0.6,0-0.9,0c0.1,0.3,0.1,0.6,0.2,0.9c0.1,0.7,0,1.4-0.2,2
				c-0.2,0.6-0.6,1.3-1.1,1.8c-0.9,1-1.9,1.9-3.2,2.4c-2.5,1.1-5.5,1.1-8-0.2c-0.3-0.2-0.6-0.3-0.9-0.5c-0.3-0.2-0.6-0.4-0.8-0.6
				c-0.5-0.4-1-0.8-1.5-1.3l-0.7-0.7l-0.6-0.8c-0.4-0.5-0.8-1.1-1.2-1.7c-2.8-4.6-3.3-10.7-1-15.7C26.5,37.8,26.6,37.5,26.8,37.3z
				 M41.8,49.5c0-0.6,0.2-1.3,0.6-1.7c-0.4,0.6-0.5,1.3-0.4,1.9c-0.7,0-1.4,0.2-1.8,0.8C40.6,50,41.2,49.6,41.8,49.5z M44.4,51.7
				c0.6,0.1,1.2,0.1,1.8,0c1.1-0.2,2.1-0.9,2.6-1.9c0.6-1,1.1-2.1,1.2-3.2c0.3-2.2-0.4-4.6-1.9-6.2c-0.2-0.2-0.4-0.4-0.6-0.6
				c-0.2-0.2-0.4-0.4-0.7-0.5c-0.5-0.3-0.9-0.7-1.5-0.9L44.7,38l-0.8-0.3c-0.5-0.2-1.1-0.4-1.6-0.6c-4.4-1.3-9.2-0.3-12.7,2.4
				c-2,3.9-1.9,8.9,0.2,12.9c0.3,0.5,0.5,1,0.9,1.5l0.5,0.7l0.6,0.7c0.4,0.5,0.8,0.8,1.2,1.2c0.2,0.2,0.4,0.4,0.6,0.5
				c0.2,0.2,0.4,0.3,0.7,0.5c1.9,1.2,4.3,1.4,6.4,0.6c1.1-0.4,2.1-1,2.9-1.8c0.9-0.8,1.3-1.8,1.3-3C44.8,52.8,44.7,52.2,44.4,51.7z"
				/>
			<path d="M84.4,2.9c0.3,0,0.6,0,0.8,0.1c5.5,0.4,10.6,3.7,13.4,8.4c0.3,0.6,0.7,1.2,0.9,1.8l0.4,0.9l0.3,1
				c0.2,0.6,0.3,1.3,0.5,1.9c0.1,0.3,0.1,0.7,0.1,1c0,0.3,0,0.7,0,1c0,2.8-1.5,5.5-3.6,7.1c-1.1,0.8-2.3,1.4-3.6,1.6
				c-0.6,0.2-1.4,0.2-2,0.1c-0.7-0.1-1.3-0.4-1.9-0.7c-0.3-0.2-0.5-0.4-0.7-0.6c-0.1,0.3-0.3,0.5-0.4,0.8c-0.4,0.6-0.9,1-1.5,1.4
				c-0.6,0.4-1.3,0.6-1.9,0.7c-1.3,0.2-2.7,0.2-4-0.2c-2.6-0.7-4.9-2.7-6-5.3c-0.1-0.3-0.3-0.6-0.4-1c-0.1-0.3-0.2-0.7-0.2-1
				c-0.1-0.7-0.3-1.3-0.3-2l-0.1-1l0-1c0-0.7,0.1-1.3,0.2-2c0.8-5.3,4.3-10.3,9.3-12.7C83.9,3.1,84.1,3,84.4,2.9z M88,22
				c0.4-0.5,1-0.8,1.6-0.9c-0.7,0.2-1.2,0.7-1.5,1.3c-0.5-0.5-1.2-0.7-1.9-0.6C86.8,21.6,87.5,21.7,88,22z M88.7,25.3
				c0.4,0.5,0.8,0.9,1.4,1.2c1,0.5,2.2,0.6,3.2,0.2c1.1-0.3,2.1-0.9,3-1.7c1.7-1.5,2.6-3.8,2.5-6c0-0.3,0-0.5-0.1-0.8
				c0-0.3-0.1-0.5-0.2-0.8c-0.2-0.6-0.3-1.1-0.5-1.7L97.6,15l-0.4-0.8c-0.2-0.5-0.6-1-0.9-1.5C93.8,9,89.5,6.6,85.1,6.5
				c-4.1,1.7-7.2,5.6-8.2,10c-0.1,0.6-0.2,1.1-0.3,1.7L76.5,19l0,0.9c0,0.6,0.1,1.2,0.1,1.7c0,0.3,0.1,0.6,0.1,0.8
				c0,0.3,0.1,0.5,0.2,0.8c0.7,2.1,2.4,3.8,4.5,4.6c1.1,0.4,2.2,0.6,3.4,0.5c1.2,0,2.2-0.5,2.9-1.4C88.2,26.4,88.5,25.9,88.7,25.3z"
				/>
			<path d="M150.6,13.6c0.2,0.2,0.4,0.4,0.6,0.6c4,3.9,5.7,9.7,4.8,15c-0.1,0.7-0.2,1.3-0.5,2l-0.3,1l-0.4,0.9
				c-0.2,0.6-0.6,1.2-0.9,1.8c-0.1,0.3-0.3,0.6-0.5,0.9c-0.2,0.3-0.4,0.6-0.6,0.8c-1.8,2.1-4.6,3.3-7.3,3.1
				c-1.4-0.1-2.7-0.5-3.8-1.1c-0.6-0.3-1.2-0.7-1.6-1.2c-0.4-0.5-0.8-1.1-1-1.8c-0.1-0.3-0.1-0.6-0.2-0.9c-0.3,0.1-0.6,0.2-0.8,0.3
				c-0.7,0.2-1.4,0.2-2,0.1c-0.7-0.1-1.4-0.4-1.9-0.7c-1.2-0.7-2.2-1.6-2.9-2.7c-1.5-2.2-2-5.2-1.2-7.9c0.1-0.3,0.2-0.7,0.4-1
				c0.1-0.3,0.3-0.6,0.5-0.9c0.3-0.6,0.6-1.2,1.1-1.7l0.6-0.8l0.7-0.8c0.4-0.5,0.9-1,1.4-1.4c4.1-3.6,9.9-5.1,15.3-3.7
				C150.1,13.5,150.3,13.6,150.6,13.6z M141.1,30.6c0.6-0.1,1.3,0,1.8,0.3c-0.6-0.3-1.4-0.3-2,0c-0.1-0.7-0.4-1.3-1.1-1.7
				C140.5,29.5,140.9,30,141.1,30.6z M139.5,33.5c0,0.6,0.1,1.2,0.3,1.8c0.4,1.1,1.3,1.9,2.3,2.3c1.1,0.5,2.2,0.7,3.4,0.6
				c2.3-0.1,4.4-1.2,5.7-3c0.2-0.2,0.3-0.4,0.5-0.7c0.1-0.2,0.3-0.5,0.4-0.7c0.2-0.5,0.5-1,0.7-1.6l0.3-0.8l0.2-0.8
				c0.2-0.6,0.2-1.1,0.3-1.7c0.5-4.5-1.3-9.2-4.6-12.1c-4.2-1.3-9.1-0.4-12.7,2.4c-0.4,0.4-0.9,0.7-1.3,1.1l-0.6,0.6l-0.6,0.7
				c-0.4,0.4-0.7,0.9-1,1.4c-0.2,0.2-0.3,0.5-0.4,0.7c-0.1,0.2-0.2,0.5-0.3,0.7c-0.8,2-0.6,4.5,0.5,6.4c0.5,1,1.3,1.9,2.3,2.5
				c0.9,0.7,2,1,3.2,0.8C138.4,34.1,139,33.9,139.5,33.5z"/>
			<path d="M194.4,64.4c0,0.3,0.1,0.5,0.1,0.8c0.5,5.5-1.8,11.1-5.9,14.6c-0.5,0.4-1,0.9-1.6,1.2l-0.8,0.5l-0.9,0.5
				c-0.6,0.3-1.2,0.5-1.8,0.8c-0.3,0.1-0.6,0.2-1,0.3c-0.3,0.1-0.7,0.2-1,0.2c-2.8,0.5-5.7-0.5-7.6-2.3c-1-0.9-1.8-2.1-2.2-3.3
				c-0.3-0.6-0.4-1.3-0.4-2c0-0.7,0.1-1.4,0.4-2c0.1-0.3,0.3-0.5,0.4-0.8c-0.3-0.1-0.6-0.2-0.9-0.3c-0.6-0.3-1.2-0.7-1.6-1.2
				c-0.5-0.5-0.8-1.2-1-1.8c-0.5-1.2-0.7-2.6-0.5-4c0.3-2.7,1.8-5.3,4.2-6.8c0.3-0.2,0.6-0.4,0.9-0.5c0.3-0.2,0.6-0.3,0.9-0.4
				c0.6-0.2,1.2-0.5,1.9-0.6l1-0.2l1-0.2c0.7-0.1,1.3-0.1,2-0.2c5.4-0.1,10.9,2.5,14.1,7C194.1,64,194.3,64.2,194.4,64.4z
				 M176.3,71.3c0.6,0.3,1,0.8,1.2,1.4c-0.3-0.7-0.9-1.1-1.5-1.3c0.4-0.6,0.5-1.3,0.3-2C176.5,70,176.5,70.7,176.3,71.3z
				 M173.1,72.5c-0.4,0.4-0.7,1-0.9,1.5c-0.4,1.1-0.2,2.2,0.3,3.2c0.5,1,1.3,2,2.2,2.6c1.8,1.4,4.2,1.9,6.3,1.4
				c0.3-0.1,0.5-0.1,0.8-0.2c0.3-0.1,0.5-0.2,0.8-0.3c0.5-0.3,1.1-0.5,1.5-0.8l0.7-0.4l0.7-0.5c0.5-0.3,0.9-0.7,1.3-1.1
				c3.3-3.2,4.9-7.8,4.2-12.2c-2.4-3.7-6.7-6.1-11.3-6.3c-0.6,0-1.1-0.1-1.7,0l-0.9,0.1l-0.8,0.2c-0.6,0.1-1.1,0.3-1.7,0.4
				c-0.3,0.1-0.5,0.2-0.8,0.3c-0.3,0.1-0.5,0.2-0.7,0.3c-1.9,1-3.3,3-3.8,5.2c-0.2,1.1-0.2,2.3,0.1,3.4c0.2,1.1,0.9,2.1,1.9,2.6
				C171.9,72.3,172.5,72.5,173.1,72.5z"/>
			<path d="M195.4,131.5c-0.1,0.2-0.3,0.5-0.5,0.7c-3.2,4.6-8.5,7.3-13.9,7.4c-0.7,0-1.3,0-2-0.1l-1-0.1l-1-0.2
				c-0.7-0.1-1.3-0.4-1.9-0.6c-0.3-0.1-0.6-0.2-1-0.4c-0.3-0.1-0.6-0.3-0.9-0.5c-2.4-1.4-4-4-4.4-6.7c-0.2-1.3,0-2.7,0.4-4
				c0.2-0.6,0.5-1.3,0.9-1.8c0.4-0.5,1-1,1.6-1.3c0.3-0.1,0.6-0.2,0.8-0.3c-0.2-0.2-0.3-0.5-0.5-0.8c-0.3-0.6-0.5-1.3-0.5-2
				c0-0.7,0.1-1.4,0.4-2c0.5-1.2,1.2-2.4,2.2-3.4c1.9-1.9,4.8-2.9,7.6-2.5c0.3,0,0.7,0.1,1,0.2c0.3,0.1,0.7,0.2,1,0.3
				c0.6,0.2,1.3,0.4,1.9,0.7l0.9,0.4l0.9,0.5c0.6,0.3,1.1,0.8,1.7,1.2c4.2,3.4,6.7,8.9,6.3,14.4C195.4,131,195.4,131.2,195.4,131.5z
				 M177,125.1c0.2,0.6,0.2,1.3,0,1.8c0.2-0.7,0.1-1.4-0.3-2c0.6-0.2,1.2-0.7,1.5-1.3C178,124.3,177.6,124.8,177,125.1z M173.8,124
				c-0.6,0.1-1.2,0.3-1.7,0.6c-1,0.6-1.6,1.6-1.8,2.7c-0.3,1.1-0.3,2.3,0,3.4c0.5,2.2,2,4.2,3.9,5.1c0.2,0.1,0.5,0.2,0.7,0.3
				c0.2,0.1,0.5,0.2,0.8,0.3c0.6,0.1,1.1,0.3,1.7,0.4l0.9,0.1l0.9,0c0.6,0.1,1.1,0,1.7,0c4.5-0.3,8.8-2.9,11.1-6.6
				c0.5-4.4-1.2-9-4.6-12.1c-0.4-0.4-0.8-0.8-1.3-1.1l-0.7-0.5l-0.7-0.4c-0.5-0.3-1-0.5-1.6-0.8c-0.3-0.1-0.5-0.2-0.8-0.3
				c-0.3-0.1-0.5-0.1-0.8-0.2c-2.1-0.5-4.5,0.2-6.3,1.6c-0.9,0.7-1.6,1.6-2.1,2.7c-0.5,1-0.6,2.2-0.2,3.2
				C173.1,123,173.4,123.6,173.8,124z"/>
			<path d="M153,183.5c-0.3,0.1-0.5,0.2-0.8,0.2c-5.4,1.5-11.3,0.1-15.4-3.3c-0.5-0.5-1-0.9-1.5-1.4l-0.7-0.7l-0.6-0.8
				c-0.4-0.5-0.8-1.1-1.1-1.7c-0.2-0.3-0.3-0.6-0.5-0.9c-0.2-0.3-0.3-0.6-0.4-1c-0.9-2.7-0.5-5.7,1-7.9c0.7-1.1,1.7-2.1,2.9-2.8
				c0.5-0.4,1.2-0.7,1.9-0.8c0.7-0.1,1.4-0.1,2,0.1c0.3,0.1,0.6,0.2,0.9,0.3c0-0.3,0.1-0.6,0.1-0.9c0.2-0.7,0.5-1.3,0.9-1.8
				c0.4-0.5,1-1,1.6-1.3c1.1-0.7,2.5-1.1,3.8-1.2c2.7-0.2,5.5,0.8,7.4,2.9c0.2,0.3,0.5,0.5,0.7,0.8c0.2,0.3,0.4,0.6,0.6,0.9
				c0.3,0.6,0.7,1.1,0.9,1.8l0.4,0.9l0.3,1c0.2,0.6,0.4,1.3,0.5,1.9c1.1,5.3-0.6,11.1-4.4,15.1C153.4,183.1,153.2,183.3,153,183.5z
				 M143,166.8c-0.2,0.6-0.6,1.1-1.2,1.4c0.6-0.4,1-1,1-1.7c0.6,0.3,1.4,0.3,2-0.1C144.3,166.8,143.7,166.9,143,166.8z M141.3,163.9
				c-0.5-0.3-1.1-0.5-1.7-0.6c-1.1-0.2-2.2,0.2-3.1,0.9c-0.9,0.7-1.7,1.6-2.2,2.6c-1,2-1.2,4.4-0.3,6.4c0.1,0.2,0.2,0.5,0.4,0.7
				c0.1,0.2,0.3,0.5,0.5,0.7c0.3,0.5,0.7,1,1.1,1.4l0.6,0.6l0.6,0.6c0.4,0.4,0.9,0.7,1.3,1.1c3.7,2.7,8.6,3.5,12.8,2.1
				c3.2-3,4.9-7.7,4.3-12.2c-0.1-0.6-0.1-1.1-0.3-1.7l-0.2-0.8l-0.3-0.8c-0.2-0.6-0.5-1.1-0.7-1.6c-0.1-0.3-0.3-0.5-0.4-0.7
				c-0.1-0.2-0.3-0.4-0.5-0.7c-1.3-1.7-3.5-2.8-5.8-2.8c-1.1,0-2.3,0.2-3.3,0.7c-1.1,0.4-1.9,1.3-2.3,2.3
				C141.3,162.7,141.2,163.3,141.3,163.9z"/>
			<path d="M87.1,196.1c-0.3-0.1-0.5-0.2-0.8-0.3c-5-2.3-8.7-7.1-9.7-12.5c-0.1-0.7-0.2-1.3-0.2-2l0-1l0-1c0-0.7,0.1-1.3,0.2-2
				c0-0.3,0.1-0.7,0.2-1c0.1-0.3,0.2-0.7,0.3-1c1-2.6,3.2-4.7,5.8-5.5c1.3-0.4,2.7-0.5,4-0.3c0.6,0.1,1.4,0.3,2,0.6
				c0.6,0.3,1.1,0.8,1.5,1.4c0.2,0.2,0.3,0.5,0.5,0.8c0.2-0.2,0.4-0.4,0.7-0.6c0.6-0.4,1.2-0.7,1.9-0.8c0.7-0.1,1.4-0.1,2,0
				c1.3,0.2,2.6,0.7,3.7,1.5c2.2,1.6,3.7,4.2,3.8,7c0,0.3,0,0.7,0,1c0,0.4-0.1,0.7-0.1,1c-0.1,0.7-0.2,1.3-0.4,2l-0.3,1l-0.4,0.9
				c-0.2,0.6-0.6,1.2-0.9,1.8c-2.6,4.7-7.6,8.2-13.1,8.8C87.6,196,87.3,196,87.1,196.1z M90.2,176.9c-0.5,0.3-1.2,0.4-1.8,0.3
				c0.7,0.1,1.4-0.2,1.9-0.7c0.3,0.6,0.9,1.1,1.6,1.2C91.2,177.7,90.6,177.4,90.2,176.9z M90.7,173.5c-0.2-0.6-0.5-1.1-0.9-1.6
				c-0.8-0.9-1.8-1.3-3-1.3c-1.2-0.1-2.3,0.1-3.4,0.6c-2.1,0.9-3.8,2.6-4.4,4.8c-0.1,0.3-0.2,0.5-0.2,0.8c-0.1,0.3-0.1,0.5-0.1,0.8
				c0,0.6-0.1,1.2-0.1,1.7l0,0.9l0.1,0.9c0,0.6,0.2,1.1,0.3,1.7c1.1,4.4,4.3,8.2,8.4,9.8c4.4-0.2,8.7-2.8,11.1-6.6
				c0.3-0.5,0.6-1,0.8-1.5l0.4-0.8l0.3-0.8c0.2-0.5,0.3-1.1,0.5-1.7c0.1-0.3,0.1-0.6,0.2-0.8c0.1-0.3,0.1-0.5,0.1-0.8
				c0.1-2.2-0.9-4.4-2.6-5.9c-0.9-0.7-1.9-1.3-3-1.6c-1.1-0.4-2.2-0.2-3.2,0.3C91.5,172.6,91.1,173,90.7,173.5z"/>
			<path d="M178.2,125.5c0.2,0.7,0.1,1.5-0.4,2.2c-0.8,1.2-2.5,1.5-3.6,0.6c-1.2-0.8-1.5-2.5-0.6-3.6c0.2-0.2,0.4-0.4,0.6-0.6
				c-0.1-0.3-0.1-0.5-0.1-0.8c0.1-1.4,1.3-2.5,2.8-2.4c1.4,0.1,2.5,1.3,2.4,2.8C179.2,124.4,178.8,125.1,178.2,125.5z"/>
		</g>
		<path d="M143.6,167.9c-0.3,0.7-0.9,1.2-1.7,1.4c-1.4,0.4-2.8-0.5-3.2-1.8c-0.4-1.4,0.5-2.8,1.8-3.2c0.3-0.1,0.5-0.1,0.8-0.1
			c0.1-0.2,0.3-0.5,0.5-0.7c1-1,2.6-1.1,3.7-0.1c1,1,1.1,2.6,0.1,3.7C145.1,167.6,144.4,167.9,143.6,167.9z"/>
	</g>
	<path d="M99.3,154.3c0.1-1.4,1.4-2.5,2.8-2.4c1.4,0.1,2.5,1.4,2.4,2.8c-0.1,1.4-1.4,2.5-2.8,2.4C100.2,157,99.2,155.8,99.3,154.3z"
		/>
	<path d="M135.3,144.1c-0.8-1.2-0.5-2.8,0.7-3.6c1.2-0.8,2.8-0.5,3.6,0.7c0.8,1.2,0.5,2.8-0.7,3.6
		C137.7,145.6,136.1,145.3,135.3,144.1z"/>
	<path d="M156.2,113.1c-1.4-0.4-2.2-1.8-1.8-3.2c0.4-1.4,1.8-2.2,3.2-1.8c1.4,0.4,2.2,1.8,1.8,3.2
		C159,112.7,157.6,113.5,156.2,113.1z"/>
	<path d="M152.4,75.9c-1.3,0.6-2.9,0-3.5-1.3c-0.6-1.3,0-2.9,1.3-3.5c1.3-0.6,2.9,0,3.5,1.3C154.2,73.8,153.7,75.3,152.4,75.9z"/>
	<path d="M125.5,49.9c-0.6,1.3-2.2,1.9-3.5,1.2c-1.3-0.6-1.9-2.2-1.2-3.5c0.6-1.3,2.2-1.9,3.5-1.2C125.6,47.1,126.1,48.6,125.5,49.9
		z"/>
	<path d="M88.2,47.3c0.4,1.4-0.5,2.8-1.9,3.2c-1.4,0.4-2.8-0.5-3.2-1.9c-0.4-1.4,0.5-2.8,1.9-3.2C86.4,45,87.9,45.9,88.2,47.3z"/>
	<path d="M57.9,69.2c1.2,0.8,1.5,2.5,0.6,3.6c-0.8,1.2-2.5,1.5-3.6,0.6c-1.2-0.8-1.5-2.5-0.6-3.6C55.1,68.6,56.8,68.3,57.9,69.2z"/>
	<path d="M48.8,105.4c1.4-0.1,2.7,0.9,2.8,2.4c0.1,1.4-0.9,2.7-2.4,2.8c-1.4,0.1-2.7-0.9-2.8-2.4C46.3,106.8,47.4,105.6,48.8,105.4z
		"/>
	<path d="M65.2,139.1c1-1,2.7-1,3.7,0c1,1,1,2.7,0,3.7c-1,1-2.7,1-3.7,0C64.1,141.7,64.2,140.1,65.2,139.1z"/>
	<path d="M89.2,152.6c0.3-1.4-0.5-2.8-1.9-3.2c-1.4-0.3-2.8,0.5-3.2,1.9c-0.3,1.4,0.5,2.8,1.9,3.2C87.5,154.9,88.9,154,89.2,152.6z"
		/>
	<path d="M126.5,149.3c-0.6-1.3-2.2-1.8-3.5-1.2c-1.3,0.6-1.8,2.2-1.2,3.5c0.6,1.3,2.2,1.8,3.5,1.2S127.1,150.6,126.5,149.3z"/>
	<path d="M152.8,122.7c-1.3-0.6-2.9,0-3.4,1.3c-0.6,1.3,0,2.9,1.3,3.4c1.3,0.6,2.9,0,3.4-1.3C154.7,124.9,154.1,123.3,152.8,122.7z"
		/>
	<path d="M155.9,85.5c-1.4,0.4-2.2,1.9-1.8,3.2c0.4,1.4,1.9,2.2,3.2,1.8c1.4-0.4,2.2-1.9,1.8-3.2C158.8,85.9,157.3,85.1,155.9,85.5z
		"/>
	<path d="M134.4,54.9c-0.8,1.2-0.5,2.8,0.7,3.6c1.2,0.8,2.8,0.5,3.6-0.7c0.8-1.2,0.5-2.8-0.7-3.6C136.8,53.4,135.2,53.7,134.4,54.9z
		"/>
	<path d="M98.3,45.4c0.2,1.4,1.4,2.5,2.9,2.3c1.4-0.2,2.5-1.4,2.3-2.9c-0.2-1.4-1.4-2.5-2.9-2.3S98.1,44,98.3,45.4z"/>
	<path d="M64.4,61.3c1,1,2.7,1,3.7-0.1c1-1,1-2.7-0.1-3.7c-1-1-2.7-1-3.7,0.1C63.3,58.7,63.4,60.3,64.4,61.3z"/>
	<path d="M48.7,95.2c1.4,0.1,2.7-1,2.8-2.4c0.1-1.4-1-2.7-2.4-2.8c-1.4-0.1-2.7,1-2.8,2.4C46.2,93.9,47.3,95.1,48.7,95.2z"/>
	<path d="M58.5,131.3c1.2-0.9,1.4-2.5,0.6-3.6c-0.9-1.2-2.5-1.4-3.6-0.6c-1.2,0.9-1.4,2.5-0.6,3.6C55.8,131.9,57.4,132.2,58.5,131.3
		z"/>
</g>
</svg>
