<?xml version="1.0" encoding="utf-8"?>
<!-- Generator: Adobe Illustrator 25.3.1, SVG Export Plug-In . SVG Version: 6.00 Build 0)  -->
<svg version="1.1" id="Layer_1" xmlns="http://www.w3.org/2000/svg" xmlns:xlink="http://www.w3.org/1999/xlink" x="0px" y="0px"
	 viewBox="0 0 698.7 632.7" style="enable-background:new 0 0 698.7 632.7;" xml:space="preserve">
<style type="text/css">
	.st0{fill:#F3BB4A;}
	.st1{fill:#FFFFFF;}
	.st2{fill:#468E8A;}
	.st3{fill:#BE1B22;}
	.st4{fill:#54A09F;}
	.st5{fill:#F2BB49;}
	.st6{fill:#160B29;}
	.st7{opacity:0.19;}
	.st8{fill:#E73D32;}
	.st9{opacity:0.17;}
	.st10{fill:#E8AB3F;}
	.st11{fill:#AF1521;}
</style>
<g>
	<path class="st0" d="M348.2,434.8C348.2,434.8,348.2,434.8,348.2,434.8C348.2,434.8,348.2,434.8,348.2,434.8
		C348.2,434.8,348.2,434.8,348.2,434.8z"/>
	<g>
		<path class="st1" d="M279.2,243.4h7v18.1h7.5v-18.1h7v44.5h-7v-20h-7.5v20h-7V243.4z"/>
		<path class="st1" d="M311.3,243.4h9.5l7.3,44.5h-7l-1.3-8.8v0.1h-8l-1.3,8.7H304L311.3,243.4z M318.9,273.2l-3.1-22h-0.1l-3.1,22
			H318.9z"/>
		<path class="st1" d="M331.4,243.4h10.3c3.5,0,6.1,0.9,7.8,2.8c1.7,1.9,2.6,4.6,2.6,8.2v4.4c0,3.6-0.9,6.3-2.6,8.2
			c-1.7,1.9-4.3,2.8-7.8,2.8h-3.3v18.1h-7V243.4z M341.7,263.4c1.1,0,2-0.3,2.6-1c0.6-0.6,0.9-1.7,0.9-3.2v-5.3
			c0-1.5-0.3-2.6-0.9-3.2c-0.6-0.6-1.4-1-2.6-1h-3.3v13.7H341.7z"/>
		<path class="st1" d="M356,243.4h10.3c3.5,0,6.1,0.9,7.8,2.8c1.7,1.9,2.6,4.6,2.6,8.2v4.4c0,3.6-0.9,6.3-2.6,8.2
			c-1.7,1.9-4.3,2.8-7.8,2.8H363v18.1h-7V243.4z M366.3,263.4c1.1,0,2-0.3,2.6-1c0.6-0.6,0.9-1.7,0.9-3.2v-5.3
			c0-1.5-0.3-2.6-0.9-3.2c-0.6-0.6-1.4-1-2.6-1H363v13.7H366.3z"/>
		<path class="st1" d="M386.6,269l-8.5-25.6h7.4l4.8,16.4h0.1l4.8-16.4h6.8l-8.5,25.6v19h-7V269z"/>
		<path class="st1" d="M259.1,328.2h13.5c4.4,0,7.7,1.2,9.9,3.5c2.2,2.4,3.3,5.8,3.3,10.4v28.6c0,4.6-1.1,8-3.3,10.4
			c-2.2,2.4-5.5,3.5-9.9,3.5h-13.5V328.2z M272.5,376.6c1.5,0,2.6-0.4,3.3-1.3c0.8-0.9,1.2-2.3,1.2-4.2v-29.4c0-1.9-0.4-3.3-1.2-4.2
			c-0.8-0.9-1.9-1.3-3.3-1.3H268v40.3H272.5z"/>
		<path class="st1" d="M291.9,328.2h8.9v56.5h-8.9V328.2z"/>
		<path class="st1" d="M305.3,328.2h8.5l4,43.4h0.2l4.2-43.4h9.7l4.2,43.4h0.2l4-43.4h7.7l-5.7,56.5h-11l-4-38.1h-0.2l-4,38.1H311
			L305.3,328.2z"/>
		<path class="st1" d="M358,328.2h12l9.2,56.5h-8.9l-1.6-11.2v0.2h-10.1l-1.6,11h-8.2L358,328.2z M367.7,366l-4-27.9h-0.2l-3.9,27.9
			H367.7z"/>
		<path class="st1" d="M383.5,328.2h8.9v48.4H407v8.1h-23.5V328.2z"/>
		<path class="st1" d="M411.2,328.2h8.9v56.5h-8.9V328.2z"/>
	</g>
	<g>
		<g>
			<path class="st2" d="M430.4,545c1.6-0.7,3.1-1.1,4.8-1.2c6.6-0.3,13.2,1.1,19,4.2c2,1.1,4,2.4,5.4,4.3c1,1.3,1.7,2.9,1.2,4.4
				c-0.4,1.2-1.4,2.1-2.6,2.6c-3.5,1.6-7.5,0.2-11-1.4c-6.6-3-13.1-6.8-17-12.9"/>
		</g>
		<g>
			<path class="st2" d="M422.4,547c-1.8,0.2-3.3,0.6-4.8,1.3c-5.9,2.9-11.1,7.3-14.7,12.9c-1.2,1.9-2.3,4-2.6,6.3
				c-0.2,1.6,0,3.4,1.1,4.5c0.9,0.9,2.3,1.2,3.5,1.1c3.8-0.3,6.6-3.4,8.9-6.5c4.3-5.7,8.2-12.2,8.7-19.5"/>
		</g>
		<g>
			<path class="st2" d="M426.7,547.7c1.5,0.9,2.8,1.9,3.9,3.2c4.3,5.1,7.3,11.3,8.3,17.9c0.4,2.3,0.5,4.7-0.1,6.9
				c-0.4,1.5-1.3,3.1-2.7,3.6c-1.2,0.4-2.5,0.1-3.6-0.5c-3.3-1.9-4.7-6-5.6-9.7c-1.7-7.1-2.7-14.7-0.3-21.5"/>
		</g>
	</g>
	<g>
		<g>
			<path class="st3" d="M671.9,360.4c0.1-1.1,0.4-2.1,0.9-3.1c1.9-3.8,4.8-7.1,8.5-9.3c1.3-0.8,2.6-1.4,4.1-1.6c1-0.1,2.2,0,2.9,0.7
				c0.6,0.6,0.7,1.5,0.7,2.3c-0.2,2.4-2.3,4.3-4.3,5.7c-3.8,2.7-8,5.2-12.7,5.4"/>
		</g>
		<g>
			<path class="st3" d="M670.5,365.5c-0.5,1-0.7,2-0.8,3.1c-0.3,4.2,0.6,8.6,2.5,12.3c0.7,1.3,1.5,2.6,2.7,3.5
				c0.8,0.6,1.9,1.1,2.9,0.8c0.8-0.2,1.4-0.9,1.7-1.6c1-2.2,0.2-4.8-0.8-7.1C676.9,372.3,674.5,368,670.5,365.5"/>
		</g>
		<g>
			<path class="st3" d="M672.3,363.3c1-0.6,2-1,3-1.1c4.2-0.8,8.7-0.5,12.7,1.1c1.4,0.5,2.8,1.2,3.8,2.3c0.7,0.7,1.3,1.7,1.2,2.7
				c-0.1,0.8-0.7,1.5-1.4,1.9c-2.1,1.3-4.9,0.7-7.2,0c-4.5-1.3-9.1-3.2-12.2-6.7"/>
		</g>
	</g>
	<g>
		<g>
			<path class="st3" d="M27.5,360.9c-0.1-1.1-0.4-2.1-0.9-3.1c-1.9-3.8-4.8-7.1-8.5-9.3c-1.3-0.8-2.6-1.4-4.1-1.6
				c-1-0.1-2.2,0-2.9,0.7c-0.6,0.6-0.7,1.5-0.7,2.3c0.2,2.4,2.3,4.3,4.3,5.7c3.8,2.7,8,5.2,12.7,5.4"/>
		</g>
		<g>
			<path class="st3" d="M28.9,366c0.5,1,0.7,2,0.8,3.1c0.3,4.2-0.6,8.6-2.5,12.3c-0.7,1.3-1.5,2.6-2.7,3.5c-0.8,0.6-1.9,1.1-2.9,0.8
				c-0.8-0.2-1.4-0.9-1.7-1.6c-1-2.2-0.2-4.8,0.8-7.1C22.5,372.8,24.9,368.5,28.9,366"/>
		</g>
		<g>
			<path class="st3" d="M27.1,363.8c-1-0.6-2-1-3-1.1c-4.2-0.8-8.7-0.5-12.7,1.1c-1.4,0.5-2.8,1.2-3.8,2.3c-0.7,0.7-1.3,1.7-1.2,2.7
				c0.1,0.8,0.7,1.5,1.4,1.9c2.1,1.3,4.9,0.7,7.2,0c4.5-1.3,9.1-3.2,12.2-6.7"/>
		</g>
	</g>
	<g>
		<g>
			<path class="st2" d="M345.4,78.9c-1.8,0.2-3.3,0.2-4.9-0.2c-6.4-1.5-12.4-4.6-17.2-9.2c-1.6-1.6-3.1-3.4-4-5.6
				c-0.6-1.5-0.8-3.3,0.1-4.6c0.7-1.1,1.9-1.7,3.2-1.9c3.7-0.6,7.2,1.9,10.2,4.3c5.5,4.6,10.8,10.1,12.9,17"/>
		</g>
		<g>
			<path class="st2" d="M353.6,79.1c1.7,0.3,3.3,0.4,5,0.1c6.5-1.2,12.7-4,17.6-8.4c1.7-1.5,3.3-3.3,4.2-5.4c0.6-1.5,1-3.2,0.2-4.6
				c-0.6-1.1-1.9-1.8-3.1-2c-3.7-0.8-7.3,1.5-10.4,3.8c-5.7,4.4-11.2,9.5-13.7,16.4"/>
		</g>
		<g>
			<path class="st2" d="M349.7,77.3c-1.2-1.3-2.2-2.6-2.8-4.1c-2.7-6.1-3.9-12.9-3.1-19.5c0.3-2.3,0.8-4.6,2-6.6
				c0.8-1.4,2.1-2.6,3.6-2.7c1.3-0.1,2.5,0.6,3.4,1.5c2.7,2.7,2.9,7,2.8,10.9c-0.3,7.3-1.4,14.8-5.5,20.8"/>
		</g>
	</g>
	<g>
		<g>
			<path class="st2" d="M270.5,545.6c1.8,0,3.3,0.2,4.9,0.8c6.2,2.3,11.8,6.1,15.9,11.3c1.4,1.8,2.7,3.8,3.3,6
				c0.4,1.5,0.4,3.3-0.6,4.6c-0.8,1-2.1,1.4-3.4,1.4c-3.8,0.1-7-2.8-9.5-5.6c-4.9-5.3-9.4-11.3-10.7-18.5"/>
		</g>
		<g>
			<path class="st2" d="M262.3,544.4c-1.7-0.5-3.2-0.8-4.9-0.7c-6.5,0.4-13.1,2.4-18.5,6.1c-1.9,1.3-3.7,2.8-4.9,4.8
				c-0.8,1.4-1.3,3.1-0.7,4.5c0.5,1.2,1.6,2,2.8,2.4c3.6,1.2,7.5-0.6,10.8-2.5c6.2-3.6,12.3-8.1,15.6-14.5"/>
		</g>
		<g>
			<path class="st2" d="M266,546.7c1.1,1.4,1.8,2.8,2.3,4.5c1.9,6.4,2.3,13.3,0.7,19.8c-0.6,2.3-1.4,4.5-2.8,6.3
				c-1,1.3-2.4,2.3-3.9,2.3c-1.3-0.1-2.4-0.9-3.2-1.9c-2.4-3-2-7.3-1.4-11.1c1.2-7.2,3.2-14.5,8.1-19.9"/>
		</g>
	</g>
	<circle class="st2" cx="346.1" cy="565.7" r="4"/>
	<g>
		<g>
			<polygon class="st3" points="521,226.7 519.2,225.4 550.3,179 591.9,216.4 590.5,218.1 550.7,182.4 			"/>
		</g>
		<g>
			<g>
				<path class="st3" d="M532.1,324.2c4,8.2,5.8,17.9,6.9,26.9c1.9,15.8,1,31.9,2.6,47.8c0.9,9.6,2.7,19.1,5.1,28.4
					c0.4,1.4,2.4,0.5,2-0.9c-4.3-16.3-5.7-32.8-6.2-49.5c-0.5-15.1-0.8-30.2-5.2-44.8c-0.9-3-1.9-6-3.2-8.8
					C533.5,322.1,531.4,322.9,532.1,324.2L532.1,324.2z"/>
			</g>
			<g>
				<path class="st3" d="M544.5,322.1c-1.8,8.5-1.3,17.9-0.3,26.4c1.8,15.9,6.6,31.3,9.1,47.1c1.6,9.9,2.4,20,2.3,30
					c0,1.4,2.2,1.8,2.2,0.3c0.2-16.4-2.2-32.4-5.7-48.4c-3.3-15.1-7-30.2-6.3-45.8c0.1-3.1,0.3-6.3,1-9.3
					C546.9,321,544.8,320.7,544.5,322.1L544.5,322.1z"/>
			</g>
			<g>
				<path class="st3" d="M551.1,321.9c4,8.2,5.8,17.9,6.9,26.9c1.9,15.8,1,31.9,2.6,47.8c0.9,9.6,2.7,19.1,5.1,28.4
					c0.4,1.4,2.4,0.5,2-0.9c-4.3-16.3-5.7-32.8-6.2-49.5c-0.5-15.1-0.8-30.2-5.2-44.8c-0.9-3-1.9-6-3.2-8.8
					C552.5,319.7,550.4,320.5,551.1,321.9L551.1,321.9z"/>
			</g>
			<g>
				<path class="st3" d="M563.4,319.7c-1.8,8.5-1.3,17.9-0.3,26.4c1.8,15.9,6.6,31.3,9.1,47.1c1.6,9.9,2.4,20,2.3,30
					c0,1.4,2.2,1.8,2.2,0.3c0.2-16.4-2.2-32.4-5.7-48.4c-3.3-15.1-7-30.2-6.3-45.8c0.1-3.1,0.3-6.3,1-9.3
					C565.9,318.6,563.7,318.3,563.4,319.7L563.4,319.7z"/>
			</g>
			<g>
				<path class="st3" d="M570,319.5c4,8.2,5.8,17.9,6.9,26.9c1.9,15.8,1,31.9,2.6,47.8c0.9,9.6,2.7,19.1,5.1,28.4
					c0.4,1.4,2.4,0.5,2-0.9c-4.3-16.3-5.7-32.8-6.2-49.5c-0.5-15.1-0.8-30.2-5.2-44.8c-0.9-3-1.9-6-3.2-8.8
					C571.4,317.3,569.4,318.2,570,319.5L570,319.5z"/>
			</g>
			<g>
				<path class="st3" d="M582.4,317.3c-1.8,8.5-1.3,17.9-0.3,26.4c1.8,15.9,6.6,31.3,9.1,47.1c1.6,9.9,2.4,20,2.3,30
					c0,1.4,2.2,1.8,2.2,0.3c0.2-16.4-2.2-32.4-5.7-48.4c-3.3-15.1-7-30.2-6.3-45.8c0.1-3.1,0.3-6.3,1-9.3
					C584.9,316.3,582.7,315.9,582.4,317.3L582.4,317.3z"/>
			</g>
			<g>
				<path class="st3" d="M589,317.1c4,8.2,5.8,17.9,6.9,26.9c1.9,15.8,1,31.9,2.6,47.8c0.9,9.6,2.7,19.1,5.1,28.4
					c0.4,1.4,2.4,0.5,2-0.9c-4.3-16.3-5.7-32.8-6.2-49.5c-0.5-15.1-0.8-30.2-5.2-44.8c-0.9-3-1.9-6-3.2-8.8
					C590.4,315,588.4,315.8,589,317.1L589,317.1z"/>
			</g>
			<g>
				<path class="st3" d="M601.4,315c-1.8,8.5-1.3,17.9-0.3,26.4c1.8,15.9,6.6,31.3,9.1,47.1c1.6,9.9,2.4,20,2.3,30
					c0,1.4,2.2,1.8,2.2,0.3c0.2-16.4-2.2-32.4-5.7-48.4c-3.3-15.1-7-30.2-6.3-45.8c0.1-3.1,0.3-6.3,1-9.3
					C603.9,313.9,601.7,313.6,601.4,315L601.4,315z"/>
			</g>
		</g>
		<path class="st4" d="M518.8,224.2l1.4,11c0,0,34.2-20.7,73.1-9.1l-1.4-11C553.1,203.4,518.8,224.2,518.8,224.2z"/>
		<path class="st4" d="M530.4,317.4l1.3,10.4c0,0,28.6,11.6,73.1-9.1l-1.3-10.4C559,329,530.4,317.4,530.4,317.4z"/>
		<path class="st5" d="M520.2,235.1l10.2,82.3c0,0,28.6,11.6,73.1-9.1L593.3,226C554.4,214.4,520.2,235.1,520.2,235.1z"/>
		<polygon class="st3" points="498.6,278.2 521.9,238.8 560.5,270.5 530.6,311.3 		"/>
		<g>
			<path class="st1" d="M506.2,277.9c5.3-8.9,10.6-17.9,15.9-26.8c0.7-1.2,1.5-2.5,2.2-3.7c-0.4,0.1-0.8,0.1-1.2,0.2
				c3.4,2.8,6.8,5.6,10.1,8.3c5.4,4.4,10.7,8.8,16.1,13.2c1.2,1,2.5,2,3.7,3.1c-0.1-0.4-0.1-0.8-0.2-1.2c-2.6,3.6-5.2,7.1-7.8,10.7
				c-4.2,5.7-8.3,11.4-12.5,17c-1,1.3-1.9,2.6-2.9,3.9c0.5,0,0.9,0,1.4,0c-7.2-7.5-14.5-15-21.7-22.5c-1-1.1-2.1-2.1-3.1-3.2
				c-0.8-0.8-2.1,0.2-1.4,1c7.2,7.5,14.5,15,21.7,22.5c1,1.1,2.1,2.1,3.1,3.2c0.4,0.4,1,0.5,1.4,0c2.6-3.6,5.2-7.1,7.8-10.7
				c4.2-5.7,8.3-11.4,12.5-17c1-1.3,1.9-2.6,2.9-3.9c0.3-0.4,0.2-0.9-0.2-1.2c-3.4-2.8-6.8-5.6-10.1-8.3
				c-5.4-4.4-10.7-8.8-16.1-13.2c-1.2-1-2.5-2-3.7-3.1c-0.3-0.3-1-0.2-1.2,0.2c-5.3,8.9-10.6,17.9-15.9,26.8
				c-0.7,1.2-1.5,2.5-2.2,3.7C504.3,277.8,505.6,278.9,506.2,277.9z"/>
		</g>
		<g>
			<polygon class="st6" points="517.9,276 526,262.2 539.5,273.3 529.1,287.6 			"/>
		</g>
		<polygon class="st3" points="625.4,262.4 593.2,229.9 563.5,270.1 602.5,302.4 		"/>
		<g>
			<path class="st1" d="M619,262.7c-7.3-7.4-14.6-14.7-21.9-22.1c-1-1-2-2.1-3.1-3.1c-0.3-0.3-1-0.2-1.2,0.2
				c-2.6,3.5-5.2,7-7.8,10.6c-4.1,5.6-8.2,11.2-12.3,16.7c-1,1.3-1.9,2.6-2.9,3.9c-0.3,0.4-0.2,0.9,0.2,1.2
				c3.4,2.8,6.8,5.6,10.2,8.5c5.4,4.5,10.9,9,16.3,13.5c1.2,1,2.5,2.1,3.7,3.1c0.5,0.4,1.1,0.1,1.3-0.3c5.2-9,10.4-18.1,15.6-27.1
				c0.7-1.3,1.5-2.6,2.2-3.9c0.6-1-1-1.6-1.6-0.7c-5.2,9-10.4,18.1-15.6,27.1c-0.7,1.3-1.5,2.6-2.2,3.9c0.4-0.1,0.9-0.2,1.3-0.3
				c-3.4-2.8-6.8-5.6-10.2-8.5c-5.4-4.5-10.9-9-16.3-13.5c-1.2-1-2.5-2.1-3.7-3.1c0.1,0.4,0.1,0.8,0.2,1.2c2.6-3.5,5.2-7,7.8-10.6
				c4.1-5.6,8.2-11.2,12.3-16.7c1-1.3,1.9-2.6,2.9-3.9c-0.4,0.1-0.8,0.1-1.2,0.2c7.3,7.4,14.6,14.7,21.9,22.1c1,1,2,2.1,3.1,3.1
				C618.7,264.8,619.8,263.4,619,262.7z"/>
		</g>
		<polygon class="st6" points="544.4,308.7 563.4,284.5 586.7,304.3 		"/>
		<polygon class="st6" points="578.6,234.3 559.7,258.6 536.4,238.9 		"/>
		<g>
			<polygon class="st6" points="609.1,264.6 597.8,253.3 587.4,267.3 601,278.6 			"/>
		</g>
	</g>
	<g>
		<path class="st3" d="M461.3,189c0,0,8,13.9,28.1,13.3c0-3.7-0.5-6.3-0.5-6.3c-1.2-4-4.2-12.2-27.4-12.9c-14.3-0.4-21.8,5-25.3,9
			c-1.9,2.1-2.9,4.9-3,7.7c0,0.5,0,1.1,0,1.7C438.7,202.6,450.5,202.8,461.3,189z"/>
		<path class="st4" d="M461.3,189c-10.8,13.8-22.6,13.6-28.1,12.5c0,9.5,3.2,28,28,27.5c24.4-0.6,28-17.3,28.1-26.7
			C469.3,202.9,461.3,189,461.3,189z"/>
		<path class="st2" d="M475.3,200c-2.9,7.9-9.9,15.6-26.3,16c-5.7,0.1-10.2-0.7-13.9-2.3c2.9,8,10,15.6,26,15.2
			c24.4-0.6,28-17.3,28.1-26.7C483.8,202.4,479.2,201.5,475.3,200z"/>
		<circle class="st1" cx="439.9" cy="208.7" r="3.4"/>
		<circle class="st1" cx="451.1" cy="205.6" r="3.4"/>
		<circle class="st1" cx="483.2" cy="208.4" r="3.4"/>
		<circle class="st1" cx="470.4" cy="205" r="3.4"/>
		<circle class="st1" cx="460.9" cy="198.3" r="3.4"/>
		<path class="st0" d="M461.5,136.7L461.5,136.7l-0.2-0.2c-6.3,6.8-14.1,18.3-14.5,29.9c-0.4,11.6,13.7,12.3,13.7,12.3l0-0.1
			c0.3,0,0.7,0.1,1,0.1c0.2,0,0.4,0,0.6,0l0,0c0,0,14.1-0.7,13.7-12.3C475.4,154.9,467.7,143.5,461.5,136.7z"/>
		<path class="st1" d="M461.4,148.7L461.4,148.7l-0.2-0.2c-4.6,4.9-10.2,13.2-10.5,21.6c-0.3,8.4,9.9,8.9,9.9,8.9l0,0
			c0.2,0,0.5,0,0.7,0c0.1,0,0.3,0,0.4,0l0,0c0,0,10.2-0.5,9.9-8.9C471.5,161.8,466,153.6,461.4,148.7z"/>
		<path class="st3" d="M461.4,155.6L461.4,155.6l-0.1-0.1c-3.5,3.8-7.8,10.2-8.1,16.6c-0.2,6.4,7.6,6.8,7.6,6.8l0,0
			c0.2,0,0.4,0,0.6,0c0.1,0,0.2,0,0.3,0l0,0c0,0,7.8-0.4,7.6-6.8C469.1,165.7,464.9,159.4,461.4,155.6z"/>
	</g>
	<g>
		<g>
			<path class="st0" d="M540.8,115.2c0,0-2.9-25.4,0.8-25.4C545.7,89.7,540.8,115.2,540.8,115.2z"/>
			<path class="st0" d="M549.9,119.1c0,0,15.5-20.3,18.2-17.8C571.1,104.1,549.9,119.1,549.9,119.1z"/>
			<path class="st0" d="M553.8,128.2c0,0,25.3-3.9,25.5-0.3C579.4,132.1,553.8,128.2,553.8,128.2z"/>
			<path class="st0" d="M550.2,137.5c0,0,21,14.7,18.6,17.4C566.1,158,550.2,137.5,550.2,137.5z"/>
			<path class="st0" d="M541.2,141.8c0,0,5,25.1,1.3,25.4C538.5,167.5,541.2,141.8,541.2,141.8z"/>
			<path class="st0" d="M531.8,138.6c0,0-13.8,21.6-16.6,19.3C512,155.3,531.8,138.6,531.8,138.6z"/>
			<path class="st0" d="M527.2,129.8c0,0-24.9,6-25.3,2.4C501.4,128.1,527.2,129.8,527.2,129.8z"/>
			<path class="st0" d="M530,120.3c0,0-22.1-12.9-19.9-15.8C512.5,101.1,530,120.3,530,120.3z"/>
		</g>
		<g>
			<path class="st0" d="M543.5,122.3c0,0,3.9-12.9,5.6-12.1C551.2,111,543.5,122.3,543.5,122.3z"/>
			<path class="st0" d="M547.1,126c0,0,11.7-6.6,12.5-4.8C560.4,123.2,547.1,126,547.1,126z"/>
			<path class="st0" d="M547.1,131.3c0,0,13,3.4,12.3,5.1C558.6,138.4,547.1,131.3,547.1,131.3z"/>
			<path class="st0" d="M543.5,135c0,0,7.1,11.4,5.3,12.2C546.8,148.2,543.5,135,543.5,135z"/>
			<path class="st0" d="M538.2,135.2c0,0-2.8,13.1-4.6,12.5C531.6,147,538.2,135.2,538.2,135.2z"/>
			<path class="st0" d="M534.4,131.7c0,0-11.1,7.5-12,5.8C521.3,135.6,534.4,131.7,534.4,131.7z"/>
			<path class="st0" d="M534,126.5c0,0-13.2-2.3-12.7-4.1C521.9,120.3,534,126.5,534,126.5z"/>
			<path class="st0" d="M537.3,122.5c0,0-8-10.8-6.3-11.8C532.8,109.6,537.3,122.5,537.3,122.5z"/>
		</g>
	</g>
	<g>
		<g>
			<g>
				<path class="st1" d="M415.6,125c0,0-1.8-16,0.5-16C418.7,108.9,415.6,125,415.6,125z"/>
				<path class="st1" d="M421.4,127.4c0,0,9.8-12.8,11.4-11.2C434.7,118,421.4,127.4,421.4,127.4z"/>
				<path class="st1" d="M423.8,133.2c0,0,15.9-2.5,16-0.2C440,135.6,423.8,133.2,423.8,133.2z"/>
				<path class="st1" d="M421.6,139.1c0,0,13.2,9.3,11.7,11C431.6,152,421.6,139.1,421.6,139.1z"/>
				<path class="st1" d="M415.9,141.7c0,0,3.1,15.8,0.8,16C414.2,158,415.9,141.7,415.9,141.7z"/>
				<path class="st1" d="M410,139.7c0,0-8.7,13.6-10.5,12.1C397.5,150.2,410,139.7,410,139.7z"/>
				<path class="st1" d="M407.1,134.2c0,0-15.7,3.8-16,1.5C390.8,133.1,407.1,134.2,407.1,134.2z"/>
				<path class="st1" d="M408.8,128.2c0,0-13.9-8.1-12.6-10C397.8,116.1,408.8,128.2,408.8,128.2z"/>
			</g>
			<g>
				<path class="st1" d="M417.4,129.4c0,0,2.4-8.1,3.6-7.6C422.2,122.4,417.4,129.4,417.4,129.4z"/>
				<path class="st1" d="M419.6,131.8c0,0,7.4-4.1,7.8-3C428,130,419.6,131.8,419.6,131.8z"/>
				<path class="st1" d="M419.6,135.1c0,0,8.2,2.1,7.8,3.2C426.9,139.6,419.6,135.1,419.6,135.1z"/>
				<path class="st1" d="M417.3,137.5c0,0,4.4,7.2,3.4,7.7C419.4,145.8,417.3,137.5,417.3,137.5z"/>
				<path class="st1" d="M414,137.6c0,0-1.8,8.3-2.9,7.9C409.8,145,414,137.6,414,137.6z"/>
				<path class="st1" d="M411.6,135.4c0,0-7,4.7-7.6,3.7C403.4,137.9,411.6,135.4,411.6,135.4z"/>
				<path class="st1" d="M411.3,132.1c0,0-8.3-1.4-8-2.6C403.7,128.2,411.3,132.1,411.3,132.1z"/>
				<path class="st1" d="M413.4,129.6c0,0-5-6.8-4-7.4C410.6,121.5,413.4,129.6,413.4,129.6z"/>
			</g>
		</g>
	</g>
	<g>
		<g>
			<path class="st0" d="M661.3,297.2c0,0-1.8-16,0.5-16C664.4,281.2,661.3,297.2,661.3,297.2z"/>
			<path class="st0" d="M667,299.7c0,0,9.8-12.8,11.4-11.2C680.4,290.3,667,299.7,667,299.7z"/>
			<path class="st0" d="M669.5,305.5c0,0,15.9-2.5,16-0.2C685.6,307.9,669.5,305.5,669.5,305.5z"/>
			<path class="st0" d="M667.2,311.3c0,0,13.2,9.3,11.7,11C677.2,324.2,667.2,311.3,667.2,311.3z"/>
			<path class="st0" d="M661.6,314c0,0,3.1,15.8,0.8,16C659.8,330.2,661.6,314,661.6,314z"/>
			<path class="st0" d="M655.6,312c0,0-8.7,13.6-10.5,12.1C643.1,322.5,655.6,312,655.6,312z"/>
			<path class="st0" d="M652.7,306.4c0,0-15.7,3.8-16,1.5C636.4,305.4,652.7,306.4,652.7,306.4z"/>
			<path class="st0" d="M654.5,300.4c0,0-13.9-8.1-12.6-10C643.5,288.4,654.5,300.4,654.5,300.4z"/>
		</g>
		<g>
			<path class="st0" d="M663,301.7c0,0,2.4-8.1,3.6-7.6C667.8,294.6,663,301.7,663,301.7z"/>
			<path class="st0" d="M665.3,304.1c0,0,7.4-4.1,7.8-3C673.6,302.3,665.3,304.1,665.3,304.1z"/>
			<path class="st0" d="M665.2,307.4c0,0,8.2,2.1,7.8,3.2C672.5,311.9,665.2,307.4,665.2,307.4z"/>
			<path class="st0" d="M663,309.7c0,0,4.4,7.2,3.4,7.7C665.1,318,663,309.7,663,309.7z"/>
			<path class="st0" d="M659.7,309.8c0,0-1.8,8.3-2.9,7.9C655.5,317.3,659.7,309.8,659.7,309.8z"/>
			<path class="st0" d="M657.2,307.6c0,0-7,4.7-7.6,3.7C649,310.1,657.2,307.6,657.2,307.6z"/>
			<path class="st0" d="M657,304.4c0,0-8.3-1.4-8-2.6C649.3,300.5,657,304.4,657,304.4z"/>
			<path class="st0" d="M659.1,301.8c0,0-5-6.8-4-7.4C656.3,293.7,659.1,301.8,659.1,301.8z"/>
		</g>
	</g>
	<g>
		<g>
			<path class="st0" d="M600.5,454.4c0,0-1.9-17.1,0.5-17.1C603.8,437.3,600.5,454.4,600.5,454.4z"/>
			<path class="st0" d="M606.6,457c0,0,10.4-13.6,12.2-12C620.8,447,606.6,457,606.6,457z"/>
			<path class="st0" d="M609.2,463.1c0,0,17-2.6,17.1-0.2C626.4,465.7,609.2,463.1,609.2,463.1z"/>
			<path class="st0" d="M606.8,469.4c0,0,14.1,9.9,12.5,11.7C617.4,483.1,606.8,469.4,606.8,469.4z"/>
			<path class="st0" d="M600.8,472.2c0,0,3.3,16.8,0.9,17.1C598.9,489.5,600.8,472.2,600.8,472.2z"/>
			<path class="st0" d="M594.5,470.1c0,0-9.3,14.5-11.2,12.9C581.1,481.3,594.5,470.1,594.5,470.1z"/>
			<path class="st0" d="M591.4,464.2c0,0-16.7,4-17,1.6C574,463,591.4,464.2,591.4,464.2z"/>
			<path class="st0" d="M593.2,457.8c0,0-14.8-8.7-13.4-10.6C581.5,444.9,593.2,457.8,593.2,457.8z"/>
		</g>
		<g>
			<path class="st0" d="M602.3,459.1c0,0,2.6-8.6,3.8-8.1C607.4,451.6,602.3,459.1,602.3,459.1z"/>
			<path class="st0" d="M604.7,461.7c0,0,7.9-4.4,8.4-3.2C613.6,459.8,604.7,461.7,604.7,461.7z"/>
			<path class="st0" d="M604.7,465.2c0,0,8.7,2.3,8.3,3.4C612.4,470,604.7,465.2,604.7,465.2z"/>
			<path class="st0" d="M602.3,467.7c0,0,4.7,7.7,3.6,8.2C604.5,476.5,602.3,467.7,602.3,467.7z"/>
			<path class="st0" d="M598.8,467.8c0,0-1.9,8.8-3.1,8.4C594.3,475.7,598.8,467.8,598.8,467.8z"/>
			<path class="st0" d="M596.2,465.5c0,0-7.5,5-8.1,3.9C587.4,468.1,596.2,465.5,596.2,465.5z"/>
			<path class="st0" d="M595.9,462c0,0-8.9-1.5-8.5-2.8C587.8,457.8,595.9,462,595.9,462z"/>
			<path class="st0" d="M598.1,459.3c0,0-5.4-7.2-4.2-7.9C595.1,450.7,598.1,459.3,598.1,459.3z"/>
		</g>
	</g>
	<g class="st7">
		<g>
			<path class="st0" d="M589.8,470.6c0,0-1.9-17.1,0.5-17.1C593.1,453.5,589.8,470.6,589.8,470.6z"/>
			<path class="st0" d="M596,473.2c0,0,10.4-13.6,12.2-12C610.2,463.2,596,473.2,596,473.2z"/>
			<path class="st0" d="M598.6,479.4c0,0,17-2.6,17.1-0.2C615.8,481.9,598.6,479.4,598.6,479.4z"/>
			<path class="st0" d="M596.2,485.6c0,0,14.1,9.9,12.5,11.7C606.8,499.4,596.2,485.6,596.2,485.6z"/>
			<path class="st0" d="M590.2,488.4c0,0,3.3,16.8,0.9,17.1C588.3,505.7,590.2,488.4,590.2,488.4z"/>
			<path class="st0" d="M583.8,486.3c0,0-9.3,14.5-11.2,12.9C570.5,497.5,583.8,486.3,583.8,486.3z"/>
			<path class="st0" d="M580.8,480.4c0,0-16.7,4-17,1.6C563.4,479.3,580.8,480.4,580.8,480.4z"/>
			<path class="st0" d="M582.6,474c0,0-14.8-8.7-13.4-10.6C570.9,461.2,582.6,474,582.6,474z"/>
		</g>
		<g>
			<path class="st0" d="M591.7,475.4c0,0,2.6-8.6,3.8-8.1C596.8,467.8,591.7,475.4,591.7,475.4z"/>
			<path class="st0" d="M594.1,477.9c0,0,7.9-4.4,8.4-3.2C603,476,594.1,477.9,594.1,477.9z"/>
			<path class="st0" d="M594.1,481.4c0,0,8.7,2.3,8.3,3.4C601.8,486.2,594.1,481.4,594.1,481.4z"/>
			<path class="st0" d="M591.6,483.9c0,0,4.7,7.7,3.6,8.2C593.9,492.7,591.6,483.9,591.6,483.9z"/>
			<path class="st0" d="M588.1,484c0,0-1.9,8.8-3.1,8.4C583.7,492,588.1,484,588.1,484z"/>
			<path class="st0" d="M585.5,481.7c0,0-7.5,5-8.1,3.9C576.8,484.3,585.5,481.7,585.5,481.7z"/>
			<path class="st0" d="M585.3,478.2c0,0-8.9-1.5-8.5-2.8C577.2,474,585.3,478.2,585.3,478.2z"/>
			<path class="st0" d="M587.5,475.5c0,0-5.4-7.2-4.2-7.9C584.5,466.9,587.5,475.5,587.5,475.5z"/>
		</g>
	</g>
	<g>
		<g>
			<g>
				<path class="st1" d="M418.2,447.6c0,0-1.4-12.3,0.4-12.3C420.5,435.3,418.2,447.6,418.2,447.6z"/>
				<path class="st1" d="M422.6,449.5c0,0,7.5-9.8,8.8-8.6C432.8,442.3,422.6,449.5,422.6,449.5z"/>
				<path class="st1" d="M424.4,453.9c0,0,12.2-1.9,12.3-0.1C436.8,455.8,424.4,453.9,424.4,453.9z"/>
				<path class="st1" d="M422.7,458.4c0,0,10.1,7.1,9,8.4C430.4,468.3,422.7,458.4,422.7,458.4z"/>
				<path class="st1" d="M418.4,460.4c0,0,2.4,12.1,0.6,12.3C417,472.9,418.4,460.4,418.4,460.4z"/>
				<path class="st1" d="M413.8,458.9c0,0-6.7,10.4-8,9.3C404.3,466.9,413.8,458.9,413.8,458.9z"/>
				<path class="st1" d="M411.6,454.7c0,0-12,2.9-12.2,1.1C399.1,453.8,411.6,454.7,411.6,454.7z"/>
				<path class="st1" d="M413,450.1c0,0-10.7-6.2-9.6-7.6C404.5,440.8,413,450.1,413,450.1z"/>
			</g>
			<g>
				<path class="st1" d="M419.5,451c0,0,1.9-6.2,2.7-5.8C423.2,445.6,419.5,451,419.5,451z"/>
				<path class="st1" d="M421.2,452.9c0,0,5.6-3.2,6-2.3C427.6,451.5,421.2,452.9,421.2,452.9z"/>
				<path class="st1" d="M421.2,455.4c0,0,6.3,1.6,5.9,2.5C426.8,458.8,421.2,455.4,421.2,455.4z"/>
				<path class="st1" d="M419.5,457.2c0,0,3.4,5.5,2.6,5.9C421.1,463.5,419.5,457.2,419.5,457.2z"/>
				<path class="st1" d="M416.9,457.3c0,0-1.4,6.3-2.2,6C413.7,463,416.9,457.3,416.9,457.3z"/>
				<path class="st1" d="M415.1,455.6c0,0-5.4,3.6-5.8,2.8C408.8,457.5,415.1,455.6,415.1,455.6z"/>
				<path class="st1" d="M414.9,453.1c0,0-6.4-1.1-6.1-2C409,450.1,414.9,453.1,414.9,453.1z"/>
				<path class="st1" d="M416.5,451.1c0,0-3.8-5.2-3.1-5.7C414.3,444.9,416.5,451.1,416.5,451.1z"/>
			</g>
		</g>
	</g>
	<g>
		<g>
			<g>
				<path class="st1" d="M276.3,447.6c0,0-1.4-12.3,0.4-12.3C278.6,435.3,276.3,447.6,276.3,447.6z"/>
				<path class="st1" d="M280.7,449.5c0,0,7.5-9.8,8.8-8.6C290.9,442.3,280.7,449.5,280.7,449.5z"/>
				<path class="st1" d="M282.5,453.9c0,0,12.2-1.9,12.3-0.1C294.9,455.8,282.5,453.9,282.5,453.9z"/>
				<path class="st1" d="M280.8,458.4c0,0,10.1,7.1,9,8.4C288.5,468.3,280.8,458.4,280.8,458.4z"/>
				<path class="st1" d="M276.5,460.4c0,0,2.4,12.1,0.6,12.3C275.1,472.9,276.5,460.4,276.5,460.4z"/>
				<path class="st1" d="M271.9,458.9c0,0-6.7,10.4-8,9.3C262.4,466.9,271.9,458.9,271.9,458.9z"/>
				<path class="st1" d="M269.7,454.7c0,0-12,2.9-12.2,1.1C257.2,453.8,269.7,454.7,269.7,454.7z"/>
				<path class="st1" d="M271,450.1c0,0-10.7-6.2-9.6-7.6C262.6,440.8,271,450.1,271,450.1z"/>
			</g>
			<g>
				<path class="st1" d="M277.6,451c0,0,1.9-6.2,2.7-5.8C281.3,445.6,277.6,451,277.6,451z"/>
				<path class="st1" d="M279.3,452.9c0,0,5.6-3.2,6-2.3C285.7,451.5,279.3,452.9,279.3,452.9z"/>
				<path class="st1" d="M279.3,455.4c0,0,6.3,1.6,5.9,2.5C284.9,458.8,279.3,455.4,279.3,455.4z"/>
				<path class="st1" d="M277.5,457.2c0,0,3.4,5.5,2.6,5.9C279.2,463.5,277.5,457.2,277.5,457.2z"/>
				<path class="st1" d="M275,457.3c0,0-1.4,6.3-2.2,6C271.8,463,275,457.3,275,457.3z"/>
				<path class="st1" d="M273.2,455.6c0,0-5.4,3.6-5.8,2.8C266.9,457.5,273.2,455.6,273.2,455.6z"/>
				<path class="st1" d="M273,453.1c0,0-6.4-1.1-6.1-2C267.1,450.1,273,453.1,273,453.1z"/>
				<path class="st1" d="M274.6,451.1c0,0-3.8-5.2-3.1-5.7C272.4,444.9,274.6,451.1,274.6,451.1z"/>
			</g>
		</g>
	</g>
	<g>
		<g>
			<path class="st0" d="M483.4,429.9L483.4,429.9l-0.3-0.3c-7.5,8-16.8,21.7-17.2,35.4c-0.4,13.7,16.3,14.5,16.3,14.5l0-0.1
				c0.4,0,0.8,0.1,1.2,0.1c0.2,0,0.4,0,0.7,0l0,0c0,0,16.7-0.8,16.3-14.5C499.9,451.4,490.8,437.9,483.4,429.9z"/>
			<path class="st1" d="M483.3,444L483.3,444l-0.2-0.2c-5.4,5.8-12.1,15.7-12.4,25.6c-0.3,9.9,11.8,10.5,11.8,10.5l0-0.1
				c0.3,0,0.6,0.1,0.9,0.1c0.2,0,0.3,0,0.5,0l0,0c0,0,12.1-0.6,11.8-10.5C495.3,459.6,488.7,449.9,483.3,444z"/>
			<path class="st8" d="M483.3,452.3L483.3,452.3l-0.1-0.2c-4.1,4.4-9.3,12-9.5,19.7c-0.2,7.6,9,8.1,9,8.1l0,0c0.2,0,0.4,0,0.7,0
				c0.1,0,0.2,0,0.4,0l0,0c0,0,9.3-0.4,9-8.1C492.4,464.3,487.4,456.8,483.3,452.3z"/>
		</g>
		<g>
			<path class="st4" d="M483.3,510.4c-10.6,4.6-17.7,2.2-22.5-2.1c8.1,21.7,29.4,23.3,29.4,23.3c53.2,4.8,52.5-40.5,52.5-41.9
				C520,526.6,483.3,510.4,483.3,510.4z"/>
			<path class="st3" d="M483.4,483.3c-9,16.8-25.4,11.7-25.4,11.7c0.4,5.1,1.4,9.4,2.8,13.2c4.8,4.4,11.9,6.7,22.5,2.1
				c0,0,36.6,16.2,59.4-20.8c0,0,0-0.1,0-0.1C501.3,508.8,483.4,483.3,483.4,483.3z"/>
			<circle class="st5" cx="465.4" cy="502.8" r="3.1"/>
			<circle class="st5" cx="474.3" cy="499.7" r="3.1"/>
			<circle class="st5" cx="483.1" cy="496.6" r="3.1"/>
			<circle class="st5" cx="501.8" cy="502.8" r="3.1"/>
			<circle class="st5" cx="522.2" cy="501.7" r="3.1"/>
			<circle class="st5" cx="492.5" cy="500.4" r="3.1"/>
			<circle class="st5" cx="511.8" cy="502.8" r="3.1"/>
			<circle class="st5" cx="530.7" cy="497.4" r="3.1"/>
		</g>
	</g>
	<circle class="st2" cx="475.8" cy="261.5" r="4"/>
	<circle class="st2" cx="617.7" cy="163.7" r="4"/>
	<circle class="st2" cx="469.3" cy="89.7" r="4"/>
	<circle class="st2" cx="654.5" cy="360.4" r="4"/>
	<circle class="st3" cx="649.9" cy="229" r="7.2"/>
	<circle class="st3" cx="649.9" cy="418.5" r="7.2"/>
	<circle class="st3" cx="500.3" cy="330" r="7.2"/>
	<circle class="st3" cx="422.5" cy="529.7" r="7.2"/>
	<circle class="st1" cx="189.5" cy="575" r="7.2"/>
	<circle class="st1" cx="511.8" cy="575" r="7.2"/>
	<circle class="st3" cx="404" cy="73.8" r="7.2"/>
	<circle class="st2" cx="593.7" cy="529.7" r="4"/>
	<circle class="st2" cx="493.7" cy="389.7" r="4"/>
	<g>
		<g>
			<polygon class="st3" points="172.1,226 173.9,224.6 141.9,178.8 101,216.9 102.4,218.5 141.5,182.1 			"/>
		</g>
		<g>
			<g>
				<path class="st3" d="M162.7,323.6c-3.9,8.3-5.5,18-6.4,27c-1.6,15.9-0.5,31.9-1.8,47.8c-0.8,9.6-2.4,19.1-4.6,28.5
					c-0.3,1.4-2.4,0.6-2-0.8c4-16.3,5.1-32.9,5.3-49.6c0.2-15.1,0.3-30.2,4.4-44.8c0.8-3,1.7-6,3.1-8.8
					C161.2,321.5,163.3,322.3,162.7,323.6L162.7,323.6z"/>
			</g>
			<g>
				<path class="st3" d="M150.2,321.7c1.9,8.5,1.6,17.8,0.8,26.4c-1.5,15.9-6.1,31.4-8.3,47.2c-1.4,10-2,20-1.7,30.1
					c0,1.4-2.1,1.8-2.2,0.4c-0.4-16.4,1.7-32.5,4.9-48.5c3-15.2,6.4-30.3,5.5-45.9c-0.2-3.1-0.4-6.3-1.1-9.3
					C147.7,320.7,149.9,320.3,150.2,321.7L150.2,321.7z"/>
			</g>
			<g>
				<path class="st3" d="M143.6,321.6c-3.9,8.3-5.5,18-6.4,27c-1.6,15.9-0.5,31.9-1.8,47.8c-0.8,9.6-2.4,19.1-4.6,28.5
					c-0.3,1.4-2.4,0.6-2-0.8c4-16.3,5.1-32.9,5.3-49.6c0.2-15.1,0.3-30.2,4.4-44.8c0.8-3,1.7-6,3.1-8.8
					C142.2,319.5,144.2,320.3,143.6,321.6L143.6,321.6z"/>
			</g>
			<g>
				<path class="st3" d="M131.2,319.7c1.9,8.5,1.6,17.8,0.8,26.4c-1.5,15.9-6.1,31.4-8.3,47.2c-1.4,10-2,20-1.7,30.1
					c0,1.4-2.1,1.8-2.2,0.4c-0.4-16.4,1.7-32.5,4.9-48.5c3-15.2,6.4-30.3,5.5-45.9c-0.2-3.1-0.4-6.3-1.1-9.3
					C128.7,318.6,130.9,318.3,131.2,319.7L131.2,319.7z"/>
			</g>
			<g>
				<path class="st3" d="M124.6,319.6c-3.9,8.3-5.5,18-6.4,27c-1.6,15.9-0.5,31.9-1.8,47.8c-0.8,9.6-2.4,19.1-4.6,28.5
					c-0.3,1.4-2.4,0.6-2-0.8c4-16.3,5.1-32.9,5.3-49.6c0.2-15.1,0.3-30.2,4.4-44.8c0.8-3,1.7-6,3.1-8.8
					C123.2,317.4,125.2,318.2,124.6,319.6L124.6,319.6z"/>
			</g>
			<g>
				<path class="st3" d="M112.2,317.6c1.9,8.5,1.6,17.8,0.8,26.4c-1.5,15.9-6.1,31.4-8.3,47.2c-1.4,10-2,20-1.7,30.1
					c0,1.4-2.1,1.8-2.2,0.4c-0.4-16.4,1.7-32.5,4.9-48.5c3-15.2,6.4-30.3,5.5-45.9c-0.2-3.1-0.4-6.3-1.1-9.3
					C109.7,316.6,111.9,316.2,112.2,317.6L112.2,317.6z"/>
			</g>
			<g>
				<path class="st3" d="M105.6,317.5c-3.9,8.3-5.5,18-6.4,27c-1.6,15.9-0.5,31.9-1.8,47.8c-0.8,9.6-2.4,19.1-4.6,28.5
					c-0.3,1.4-2.4,0.6-2-0.8c4-16.3,5.1-32.9,5.3-49.6c0.2-15.1,0.3-30.2,4.4-44.8c0.8-3,1.7-6,3.1-8.8
					C104.2,315.4,106.2,316.2,105.6,317.5L105.6,317.5z"/>
			</g>
			<g>
				<path class="st3" d="M93.2,315.6c1.9,8.5,1.6,17.8,0.8,26.4c-1.5,15.9-6.1,31.4-8.3,47.2c-1.4,10-2,20-1.7,30.1
					c0,1.4-2.1,1.8-2.2,0.4c-0.4-16.4,1.7-32.5,4.9-48.5c3-15.2,6.4-30.3,5.5-45.9c-0.2-3.1-0.4-6.3-1.1-9.3
					C90.7,314.6,92.9,314.2,93.2,315.6L93.2,315.6z"/>
			</g>
		</g>
		<path class="st4" d="M174.2,223.4l-1.2,11c0,0-34.6-20.1-73.2-7.8l1.2-11C139.6,203.2,174.2,223.4,174.2,223.4z"/>
		<path class="st4" d="M164.2,316.8l-1.1,10.4c0,0-28.4,12.1-73.2-7.8l1.1-10.4C135.8,328.9,164.2,316.8,164.2,316.8z"/>
		<path class="st5" d="M173,234.3l-8.8,82.4c0,0-28.4,12.1-73.2-7.8l8.8-82.4C138.4,214.2,173,234.3,173,234.3z"/>
		<polygon class="st3" points="195.4,277 171.4,238 133.3,270.4 163.9,310.7 		"/>
		<g>
			<path class="st1" d="M187.7,276.9c-5.4-8.8-10.9-17.7-16.3-26.5c-0.8-1.2-1.5-2.5-2.3-3.7c0.4,0,0.8,0.1,1.2,0.1
				c-3.3,2.8-6.7,5.7-10,8.5c-5.3,4.5-10.6,9-15.8,13.5c-1.2,1-2.4,2.1-3.7,3.1c0-0.4,0.1-0.8,0.1-1.2c2.7,3.5,5.3,7,8,10.6
				c4.3,5.6,8.5,11.2,12.8,16.8c1,1.3,2,2.6,2.9,3.9c-0.5,0-0.9,0-1.4,0c7.1-7.6,14.2-15.2,21.3-22.9c1-1.1,2-2.2,3-3.3
				c0.7-0.8,2.1,0.2,1.4,1c-7.1,7.6-14.2,15.2-21.3,22.9c-1,1.1-2,2.2-3,3.3c-0.4,0.4-1,0.5-1.4,0c-2.7-3.5-5.3-7-8-10.6
				c-4.3-5.6-8.5-11.2-12.8-16.8c-1-1.3-2-2.6-2.9-3.9c-0.3-0.4-0.2-0.9,0.1-1.2c3.3-2.8,6.7-5.7,10-8.5c5.3-4.5,10.6-9,15.8-13.5
				c1.2-1,2.4-2.1,3.7-3.1c0.3-0.3,1-0.3,1.2,0.1c5.4,8.8,10.9,17.7,16.3,26.5c0.8,1.2,1.5,2.5,2.3,3.7
				C189.6,276.7,188.3,277.8,187.7,276.9z"/>
		</g>
		<g>
			<polygon class="st6" points="176,275.2 167.6,261.5 154.3,272.8 165,286.9 			"/>
		</g>
		<polygon class="st3" points="68.3,263.4 99.9,230.4 130.3,270.1 91.9,303 		"/>
		<g>
			<path class="st1" d="M74.7,263.6c7.2-7.5,14.4-15,21.6-22.5c1-1,2-2.1,3-3.1c0.3-0.3,1-0.2,1.2,0.1c2.7,3.5,5.3,6.9,8,10.4
				c4.2,5.5,8.4,11,12.6,16.5c1,1.3,2,2.5,2.9,3.8c0.3,0.4,0.2,0.9-0.1,1.2c-3.4,2.9-6.7,5.8-10.1,8.6c-5.3,4.6-10.7,9.2-16,13.8
				c-1.2,1.1-2.5,2.1-3.7,3.2c-0.5,0.4-1.1,0.1-1.3-0.3c-5.3-8.9-10.7-17.9-16-26.8c-0.8-1.3-1.5-2.6-2.3-3.8c-0.6-1,1-1.7,1.6-0.7
				c5.3,8.9,10.7,17.9,16,26.8c0.8,1.3,1.5,2.6,2.3,3.8c-0.4-0.1-0.9-0.2-1.3-0.3c3.4-2.9,6.7-5.8,10.1-8.6
				c5.3-4.6,10.7-9.2,16-13.8c1.2-1.1,2.5-2.1,3.7-3.2c0,0.4-0.1,0.8-0.1,1.2c-2.7-3.5-5.3-6.9-8-10.4c-4.2-5.5-8.4-11-12.6-16.5
				c-1-1.3-2-2.5-2.9-3.8c0.4,0,0.8,0.1,1.2,0.1c-7.2,7.5-14.4,15-21.6,22.5c-1,1-2,2.1-3,3.1C75,265.7,73.9,264.4,74.7,263.6z"/>
		</g>
		<polygon class="st6" points="150,308.3 130.6,284.4 107.7,304.7 		"/>
		<polygon class="st6" points="114.6,234.5 133.9,258.5 156.9,238.4 		"/>
		<g>
			<polygon class="st6" points="84.7,265.4 95.7,253.9 106.3,267.7 92.9,279.2 			"/>
		</g>
	</g>
	<g>
		<path class="st3" d="M233.1,189c0,0-8,13.9-28.1,13.3c0-3.7,0.5-6.3,0.5-6.3c1.2-4,4.2-12.2,27.4-12.9c14.3-0.4,21.8,5,25.3,9
			c1.9,2.1,2.9,4.9,3,7.7c0,0.5,0,1.1,0,1.7C255.7,202.6,243.9,202.8,233.1,189z"/>
		<path class="st4" d="M233.1,189c10.8,13.8,22.6,13.6,28.1,12.5c0,9.5-3.2,28-28,27.5c-24.4-0.6-28-17.3-28.1-26.7
			C225,202.9,233.1,189,233.1,189z"/>
		<path class="st2" d="M219,200c2.9,7.9,9.9,15.6,26.3,16c5.7,0.1,10.2-0.7,13.9-2.3c-2.9,8-10,15.6-26,15.2
			c-24.4-0.6-28-17.3-28.1-26.7C210.6,202.4,215.2,201.5,219,200z"/>
		<circle class="st1" cx="254.5" cy="208.7" r="3.4"/>
		<circle class="st1" cx="243.2" cy="205.6" r="3.4"/>
		<circle class="st1" cx="211.2" cy="208.4" r="3.4"/>
		<circle class="st1" cx="224" cy="205" r="3.4"/>
		<circle class="st1" cx="233.5" cy="198.3" r="3.4"/>
		<path class="st0" d="M232.9,136.7L232.9,136.7l0.2-0.2c6.3,6.8,14.1,18.3,14.5,29.9s-13.7,12.3-13.7,12.3l0-0.1
			c-0.3,0-0.7,0.1-1,0.1c-0.2,0-0.4,0-0.6,0l0,0c0,0-14.1-0.7-13.7-12.3C218.9,154.9,226.6,143.5,232.9,136.7z"/>
		<path class="st1" d="M232.9,148.7L232.9,148.7l0.2-0.2c4.6,4.9,10.2,13.2,10.5,21.6c0.3,8.4-9.9,8.9-9.9,8.9l0,0
			c-0.2,0-0.5,0-0.7,0c-0.1,0-0.3,0-0.4,0l0,0c0,0-10.2-0.5-9.9-8.9C222.8,161.8,228.4,153.6,232.9,148.7z"/>
		<path class="st3" d="M233,155.6L233,155.6l0.1-0.1c3.5,3.8,7.8,10.2,8.1,16.6c0.2,6.4-7.6,6.8-7.6,6.8l0,0c-0.2,0-0.4,0-0.6,0
			c-0.1,0-0.2,0-0.3,0l0,0c0,0-7.8-0.4-7.6-6.8C225.2,165.7,229.5,159.4,233,155.6z"/>
	</g>
	<g>
		<g>
			<path class="st0" d="M153.6,115.2c0,0,2.9-25.4-0.8-25.4C148.7,89.7,153.6,115.2,153.6,115.2z"/>
			<path class="st0" d="M144.4,119.1c0,0-15.5-20.3-18.2-17.8C123.3,104.1,144.4,119.1,144.4,119.1z"/>
			<path class="st0" d="M140.6,128.2c0,0-25.3-3.9-25.5-0.3C114.9,132.1,140.6,128.2,140.6,128.2z"/>
			<path class="st0" d="M144.1,137.5c0,0-21,14.7-18.6,17.4C128.3,158,144.1,137.5,144.1,137.5z"/>
			<path class="st0" d="M153.1,141.8c0,0-5,25.1-1.3,25.4C155.9,167.5,153.1,141.8,153.1,141.8z"/>
			<path class="st0" d="M162.5,138.6c0,0,13.8,21.6,16.6,19.3C182.4,155.3,162.5,138.6,162.5,138.6z"/>
			<path class="st0" d="M167.1,129.8c0,0,24.9,6,25.3,2.4C193,128.1,167.1,129.8,167.1,129.8z"/>
			<path class="st0" d="M164.4,120.3c0,0,22.1-12.9,19.9-15.8C181.8,101.1,164.4,120.3,164.4,120.3z"/>
		</g>
		<g>
			<path class="st0" d="M150.8,122.3c0,0-3.9-12.9-5.6-12.1C143.2,111,150.8,122.3,150.8,122.3z"/>
			<path class="st0" d="M147.2,126c0,0-11.7-6.6-12.5-4.8C133.9,123.2,147.2,126,147.2,126z"/>
			<path class="st0" d="M147.3,131.3c0,0-13,3.4-12.3,5.1C135.7,138.4,147.3,131.3,147.3,131.3z"/>
			<path class="st0" d="M150.9,135c0,0-7.1,11.4-5.3,12.2C147.5,148.2,150.9,135,150.9,135z"/>
			<path class="st0" d="M156.1,135.2c0,0,2.8,13.1,4.6,12.5C162.8,147,156.1,135.2,156.1,135.2z"/>
			<path class="st0" d="M160,131.7c0,0,11.1,7.5,12,5.8C173,135.6,160,131.7,160,131.7z"/>
			<path class="st0" d="M160.4,126.5c0,0,13.2-2.3,12.7-4.1C172.5,120.3,160.4,126.5,160.4,126.5z"/>
			<path class="st0" d="M157.1,122.5c0,0,8-10.8,6.3-11.8C161.5,109.6,157.1,122.5,157.1,122.5z"/>
		</g>
	</g>
	<g>
		<g>
			<g>
				<path class="st1" d="M278.7,125c0,0,1.8-16-0.5-16C275.6,108.9,278.7,125,278.7,125z"/>
				<path class="st1" d="M273,127.4c0,0-9.8-12.8-11.4-11.2C259.6,118,273,127.4,273,127.4z"/>
				<path class="st1" d="M270.5,133.2c0,0-15.9-2.5-16-0.2C254.4,135.6,270.5,133.2,270.5,133.2z"/>
				<path class="st1" d="M272.8,139.1c0,0-13.2,9.3-11.7,11C262.8,152,272.8,139.1,272.8,139.1z"/>
				<path class="st1" d="M278.4,141.7c0,0-3.1,15.8-0.8,16C280.2,158,278.4,141.7,278.4,141.7z"/>
				<path class="st1" d="M284.4,139.7c0,0,8.7,13.6,10.5,12.1C296.9,150.2,284.4,139.7,284.4,139.7z"/>
				<path class="st1" d="M287.3,134.2c0,0,15.7,3.8,16,1.5C303.6,133.1,287.3,134.2,287.3,134.2z"/>
				<path class="st1" d="M285.5,128.2c0,0,13.9-8.1,12.6-10C296.5,116.1,285.5,128.2,285.5,128.2z"/>
			</g>
			<g>
				<path class="st1" d="M277,129.4c0,0-2.4-8.1-3.6-7.6C272.2,122.4,277,129.4,277,129.4z"/>
				<path class="st1" d="M274.7,131.8c0,0-7.4-4.1-7.8-3C266.3,130,274.7,131.8,274.7,131.8z"/>
				<path class="st1" d="M274.7,135.1c0,0-8.2,2.1-7.8,3.2C267.5,139.6,274.7,135.1,274.7,135.1z"/>
				<path class="st1" d="M277,137.5c0,0-4.4,7.2-3.4,7.7C274.9,145.8,277,137.5,277,137.5z"/>
				<path class="st1" d="M280.3,137.6c0,0,1.8,8.3,2.9,7.9C284.5,145,280.3,137.6,280.3,137.6z"/>
				<path class="st1" d="M282.8,135.4c0,0,7,4.7,7.6,3.7C291,137.9,282.8,135.4,282.8,135.4z"/>
				<path class="st1" d="M283,132.1c0,0,8.3-1.4,8-2.6C290.6,128.2,283,132.1,283,132.1z"/>
				<path class="st1" d="M280.9,129.6c0,0,5-6.8,4-7.4C283.7,121.5,280.9,129.6,280.9,129.6z"/>
			</g>
		</g>
	</g>
	<g>
		<g>
			<path class="st0" d="M33.1,297.2c0,0,1.8-16-0.5-16C30,281.2,33.1,297.2,33.1,297.2z"/>
			<path class="st0" d="M27.3,299.7c0,0-9.8-12.8-11.4-11.2C14,290.3,27.3,299.7,27.3,299.7z"/>
			<path class="st0" d="M24.9,305.5c0,0-15.9-2.5-16-0.2C8.7,307.9,24.9,305.5,24.9,305.5z"/>
			<path class="st0" d="M27.1,311.3c0,0-13.2,9.3-11.7,11C17.1,324.2,27.1,311.3,27.1,311.3z"/>
			<path class="st0" d="M32.8,314c0,0-3.1,15.8-0.8,16C34.5,330.2,32.8,314,32.8,314z"/>
			<path class="st0" d="M38.7,312c0,0,8.7,13.6,10.5,12.1C51.2,322.5,38.7,312,38.7,312z"/>
			<path class="st0" d="M41.6,306.4c0,0,15.7,3.8,16,1.5C57.9,305.4,41.6,306.4,41.6,306.4z"/>
			<path class="st0" d="M39.9,300.4c0,0,13.9-8.1,12.6-10C50.9,288.4,39.9,300.4,39.9,300.4z"/>
		</g>
		<g>
			<path class="st0" d="M31.3,301.7c0,0-2.4-8.1-3.6-7.6C26.5,294.6,31.3,301.7,31.3,301.7z"/>
			<path class="st0" d="M29.1,304.1c0,0-7.4-4.1-7.8-3C20.7,302.3,29.1,304.1,29.1,304.1z"/>
			<path class="st0" d="M29.1,307.4c0,0-8.2,2.1-7.8,3.2C21.8,311.9,29.1,307.4,29.1,307.4z"/>
			<path class="st0" d="M31.4,309.7c0,0-4.4,7.2-3.4,7.7C29.3,318,31.4,309.7,31.4,309.7z"/>
			<path class="st0" d="M34.7,309.8c0,0,1.8,8.3,2.9,7.9C38.9,317.3,34.7,309.8,34.7,309.8z"/>
			<path class="st0" d="M37.1,307.6c0,0,7,4.7,7.6,3.7C45.3,310.1,37.1,307.6,37.1,307.6z"/>
			<path class="st0" d="M37.4,304.4c0,0,8.3-1.4,8-2.6C45,300.5,37.4,304.4,37.4,304.4z"/>
			<path class="st0" d="M35.3,301.8c0,0,5-6.8,4-7.4C38.1,293.7,35.3,301.8,35.3,301.8z"/>
		</g>
	</g>
	<g>
		<g>
			<path class="st0" d="M93.9,454.4c0,0,1.9-17.1-0.5-17.1C90.6,437.3,93.9,454.4,93.9,454.4z"/>
			<path class="st0" d="M87.8,457c0,0-10.4-13.6-12.2-12C73.6,447,87.8,457,87.8,457z"/>
			<path class="st0" d="M85.2,463.1c0,0-17-2.6-17.1-0.2C68,465.7,85.2,463.1,85.2,463.1z"/>
			<path class="st0" d="M87.5,469.4c0,0-14.1,9.9-12.5,11.7C76.9,483.1,87.5,469.4,87.5,469.4z"/>
			<path class="st0" d="M93.6,472.2c0,0-3.3,16.8-0.9,17.1C95.4,489.5,93.6,472.2,93.6,472.2z"/>
			<path class="st0" d="M99.9,470.1c0,0,9.3,14.5,11.2,12.9C113.2,481.3,99.9,470.1,99.9,470.1z"/>
			<path class="st0" d="M103,464.2c0,0,16.7,4,17,1.6C120.3,463,103,464.2,103,464.2z"/>
			<path class="st0" d="M101.1,457.8c0,0,14.8-8.7,13.4-10.6C112.8,444.9,101.1,457.8,101.1,457.8z"/>
		</g>
		<g>
			<path class="st0" d="M92,459.1c0,0-2.6-8.6-3.8-8.1C86.9,451.6,92,459.1,92,459.1z"/>
			<path class="st0" d="M89.6,461.7c0,0-7.9-4.4-8.4-3.2C80.7,459.8,89.6,461.7,89.6,461.7z"/>
			<path class="st0" d="M89.6,465.2c0,0-8.7,2.3-8.3,3.4C81.9,470,89.6,465.2,89.6,465.2z"/>
			<path class="st0" d="M92.1,467.7c0,0-4.7,7.7-3.6,8.2C89.8,476.5,92.1,467.7,92.1,467.7z"/>
			<path class="st0" d="M95.6,467.8c0,0,1.9,8.8,3.1,8.4C100.1,475.7,95.6,467.8,95.6,467.8z"/>
			<path class="st0" d="M98.2,465.5c0,0,7.5,5,8.1,3.9C106.9,468.1,98.2,465.5,98.2,465.5z"/>
			<path class="st0" d="M98.5,462c0,0,8.9-1.5,8.5-2.8C106.6,457.8,98.5,462,98.5,462z"/>
			<path class="st0" d="M96.2,459.3c0,0,5.4-7.2,4.2-7.9C99.2,450.7,96.2,459.3,96.2,459.3z"/>
		</g>
	</g>
	<g class="st9">
		<g>
			<path class="st0" d="M109.6,465.3c0,0,1.9-17.1-0.5-17.1C106.3,448.3,109.6,465.3,109.6,465.3z"/>
			<path class="st0" d="M103.4,468c0,0-10.4-13.6-12.2-12C89.2,457.9,103.4,468,103.4,468z"/>
			<path class="st0" d="M100.8,474.1c0,0-17-2.6-17.1-0.2C83.6,476.7,100.8,474.1,100.8,474.1z"/>
			<path class="st0" d="M103.2,480.3c0,0-14.1,9.9-12.5,11.7C92.6,494.1,103.2,480.3,103.2,480.3z"/>
			<path class="st0" d="M109.2,483.2c0,0-3.3,16.8-0.9,17.1C111.1,500.5,109.2,483.2,109.2,483.2z"/>
			<path class="st0" d="M115.6,481.1c0,0,9.3,14.5,11.2,12.9C128.9,492.2,115.6,481.1,115.6,481.1z"/>
			<path class="st0" d="M118.7,475.2c0,0,16.7,4,17,1.6C136,474,118.7,475.2,118.7,475.2z"/>
			<path class="st0" d="M116.8,468.8c0,0,14.8-8.7,13.4-10.6C128.5,455.9,116.8,468.8,116.8,468.8z"/>
		</g>
		<g>
			<path class="st0" d="M107.7,470.1c0,0-2.6-8.6-3.8-8.1C102.6,462.6,107.7,470.1,107.7,470.1z"/>
			<path class="st0" d="M105.3,472.6c0,0-7.9-4.4-8.4-3.2C96.4,470.7,105.3,472.6,105.3,472.6z"/>
			<path class="st0" d="M105.3,476.1c0,0-8.7,2.3-8.3,3.4C97.6,481,105.3,476.1,105.3,476.1z"/>
			<path class="st0" d="M107.8,478.6c0,0-4.7,7.7-3.6,8.2C105.5,487.5,107.8,478.6,107.8,478.6z"/>
			<path class="st0" d="M111.3,478.8c0,0,1.9,8.8,3.1,8.4C115.7,486.7,111.3,478.8,111.3,478.8z"/>
			<path class="st0" d="M113.9,476.4c0,0,7.5,5,8.1,3.9C122.6,479.1,113.9,476.4,113.9,476.4z"/>
			<path class="st0" d="M114.1,473c0,0,8.9-1.5,8.5-2.8C122.3,468.8,114.1,473,114.1,473z"/>
			<path class="st0" d="M111.9,470.3c0,0,5.4-7.2,4.2-7.9C114.9,461.6,111.9,470.3,111.9,470.3z"/>
		</g>
	</g>
	<g class="st9">
		<g>
			<path class="st0" d="M115.4,143.1c0,0,1.9-17.1-0.5-17.1C112.1,126,115.4,143.1,115.4,143.1z"/>
			<path class="st0" d="M109.3,145.7c0,0-10.4-13.6-12.2-12C95.1,135.7,109.3,145.7,109.3,145.7z"/>
			<path class="st0" d="M106.7,151.8c0,0-17-2.6-17.1-0.2C89.5,154.4,106.7,151.8,106.7,151.8z"/>
			<path class="st0" d="M109.1,158.1c0,0-14.1,9.9-12.5,11.7C98.4,171.8,109.1,158.1,109.1,158.1z"/>
			<path class="st0" d="M115.1,160.9c0,0-3.3,16.8-0.9,17.1C117,178.2,115.1,160.9,115.1,160.9z"/>
			<path class="st0" d="M121.4,158.8c0,0,9.3,14.5,11.2,12.9C134.7,170,121.4,158.8,121.4,158.8z"/>
			<path class="st0" d="M124.5,152.9c0,0,16.7,4,17,1.6C141.9,151.7,124.5,152.9,124.5,152.9z"/>
			<path class="st0" d="M122.7,146.5c0,0,14.8-8.7,13.4-10.6C134.4,133.6,122.7,146.5,122.7,146.5z"/>
		</g>
		<g>
			<path class="st0" d="M113.6,147.8c0,0-2.6-8.6-3.8-8.1C108.4,140.3,113.6,147.8,113.6,147.8z"/>
			<path class="st0" d="M111.2,150.4c0,0-7.9-4.4-8.4-3.2C102.2,148.5,111.2,150.4,111.2,150.4z"/>
			<path class="st0" d="M111.2,153.9c0,0-8.7,2.3-8.3,3.4C103.4,158.7,111.2,153.9,111.2,153.9z"/>
			<path class="st0" d="M113.6,156.4c0,0-4.7,7.7-3.6,8.2C111.4,165.2,113.6,156.4,113.6,156.4z"/>
			<path class="st0" d="M117.1,156.5c0,0,1.9,8.8,3.1,8.4C121.6,164.4,117.1,156.5,117.1,156.5z"/>
			<path class="st0" d="M119.7,154.2c0,0,7.5,5,8.1,3.9C128.5,156.8,119.7,154.2,119.7,154.2z"/>
			<path class="st0" d="M120,150.7c0,0,8.9-1.5,8.5-2.8C128.1,146.5,120,150.7,120,150.7z"/>
			<path class="st0" d="M117.8,148c0,0,5.4-7.2,4.2-7.9C120.7,139.4,117.8,148,117.8,148z"/>
		</g>
	</g>
	<g class="st9">
		<g>
			<path class="st0" d="M576.6,139.7c0,0,1.9-17.1-0.5-17.1C573.3,122.7,576.6,139.7,576.6,139.7z"/>
			<path class="st0" d="M570.4,142.4c0,0-10.4-13.6-12.2-12C556.2,132.3,570.4,142.4,570.4,142.4z"/>
			<path class="st0" d="M567.8,148.5c0,0-17-2.6-17.1-0.2C550.6,151.1,567.8,148.5,567.8,148.5z"/>
			<path class="st0" d="M570.2,154.7c0,0-14.1,9.9-12.5,11.7C559.6,168.5,570.2,154.7,570.2,154.7z"/>
			<path class="st0" d="M576.2,157.6c0,0-3.3,16.8-0.9,17.1C578.1,174.9,576.2,157.6,576.2,157.6z"/>
			<path class="st0" d="M582.6,155.5c0,0,9.3,14.5,11.2,12.9C595.9,166.6,582.6,155.5,582.6,155.5z"/>
			<path class="st0" d="M585.7,149.6c0,0,16.7,4,17,1.6C603,148.4,585.7,149.6,585.7,149.6z"/>
			<path class="st0" d="M583.8,143.2c0,0,14.8-8.7,13.4-10.6C595.5,130.3,583.8,143.2,583.8,143.2z"/>
		</g>
		<g>
			<path class="st0" d="M574.7,144.5c0,0-2.6-8.6-3.8-8.1C569.6,137,574.7,144.5,574.7,144.5z"/>
			<path class="st0" d="M572.3,147c0,0-7.9-4.4-8.4-3.2C563.4,145.2,572.3,147,572.3,147z"/>
			<path class="st0" d="M572.3,150.5c0,0-8.7,2.3-8.3,3.4C564.6,155.4,572.3,150.5,572.3,150.5z"/>
			<path class="st0" d="M574.8,153.1c0,0-4.7,7.7-3.6,8.2C572.5,161.9,574.8,153.1,574.8,153.1z"/>
			<path class="st0" d="M578.3,153.2c0,0,1.9,8.8,3.1,8.4C582.7,161.1,578.3,153.2,578.3,153.2z"/>
			<path class="st0" d="M580.9,150.8c0,0,7.5,5,8.1,3.9C589.6,153.5,580.9,150.8,580.9,150.8z"/>
			<path class="st0" d="M581.1,147.4c0,0,8.9-1.5,8.5-2.8C589.2,143.2,581.1,147.4,581.1,147.4z"/>
			<path class="st0" d="M578.9,144.7c0,0,5.4-7.2,4.2-7.9C581.9,136,578.9,144.7,578.9,144.7z"/>
		</g>
	</g>
	<g>
		<g>
			<path class="st0" d="M211,429.9L211,429.9l0.3-0.3c7.5,8,16.8,21.7,17.2,35.4c0.4,13.7-16.3,14.5-16.3,14.5l0-0.1
				c-0.4,0-0.8,0.1-1.2,0.1c-0.2,0-0.4,0-0.7,0l0,0c0,0-16.7-0.8-16.3-14.5C194.5,451.4,203.5,437.9,211,429.9z"/>
			<path class="st1" d="M211,444L211,444l0.2-0.2c5.4,5.8,12.1,15.7,12.4,25.6c0.3,9.9-11.8,10.5-11.8,10.5l0-0.1
				c-0.3,0-0.6,0.1-0.9,0.1c-0.2,0-0.3,0-0.5,0l0,0c0,0-12.1-0.6-11.8-10.5C199.1,459.6,205.7,449.9,211,444z"/>
			<path class="st8" d="M211.1,452.3L211.1,452.3l0.1-0.2c4.1,4.4,9.3,12,9.5,19.7s-9,8.1-9,8.1l0,0c-0.2,0-0.4,0-0.7,0
				c-0.1,0-0.2,0-0.4,0l0,0c0,0-9.3-0.4-9-8.1C201.9,464.3,206.9,456.8,211.1,452.3z"/>
		</g>
		<g>
			<path class="st4" d="M211,510.4c10.6,4.6,17.7,2.2,22.5-2.1c-8.1,21.7-29.4,23.3-29.4,23.3c-53.2,4.8-52.5-40.5-52.5-41.9
				C174.4,526.6,211,510.4,211,510.4z"/>
			<path class="st3" d="M211,483.3c9,16.8,25.4,11.7,25.4,11.7c-0.4,5.1-1.4,9.4-2.8,13.2c-4.8,4.4-11.9,6.7-22.5,2.1
				c0,0-36.6,16.2-59.4-20.8c0,0,0-0.1,0-0.1C193,508.8,211,483.3,211,483.3z"/>
			<circle class="st5" cx="228.9" cy="502.8" r="3.1"/>
			<circle class="st5" cx="220.1" cy="499.7" r="3.1"/>
			<circle class="st5" cx="211.2" cy="496.6" r="3.1"/>
			<circle class="st5" cx="192.6" cy="502.8" r="3.1"/>
			<circle class="st5" cx="172.1" cy="501.7" r="3.1"/>
			<circle class="st5" cx="201.8" cy="500.4" r="3.1"/>
			<circle class="st5" cx="182.5" cy="502.8" r="3.1"/>
			<circle class="st5" cx="163.6" cy="497.4" r="3.1"/>
		</g>
	</g>
	<circle class="st2" cx="218.6" cy="261.5" r="4"/>
	<circle class="st2" cx="76.6" cy="163.7" r="4"/>
	<circle class="st2" cx="225" cy="89.7" r="4"/>
	<circle class="st2" cx="46.2" cy="359.8" r="4"/>
	<circle class="st3" cx="44.5" cy="229" r="7.2"/>
	<circle class="st3" cx="44.5" cy="418.5" r="7.2"/>
	<circle class="st3" cx="194" cy="330" r="7.2"/>
	<circle class="st3" cx="271.8" cy="529.7" r="7.2"/>
	<circle class="st3" cx="290.4" cy="73.8" r="7.2"/>
	<circle class="st2" cx="100.6" cy="529.7" r="4"/>
	<circle class="st2" cx="200.7" cy="389.7" r="4"/>
	<g>
		<path class="st10" d="M350.2,421.3c0.5,7.1,0.9,22.8-4.1,34.7h16.2C373.4,445.1,357.3,427.9,350.2,421.3z"/>
		<path class="st0" d="M350.2,421.3c-1.8-1.7-3.1-2.7-3.1-2.8c0,0,0,0,0,0c-0.2,0.2-11.4,11.4-15.9,21.1c-4.5,9.8,1.1,16.3,1.1,16.3
			h13.9C351.1,444.1,350.7,428.4,350.2,421.3z"/>
		<path class="st2" d="M386.9,493.1c-0.3-2.3-1.1-4.6-2.3-6.7c-0.6-1.1-1.4-2.2-2.2-3.2c-1-1.4-3-3.9-5.8-7h-58.3
			c-4.4,4.8-6.7,8.2-6.7,8.2l0,0c-0.5,0.6-0.9,1.3-1.3,2c-1.2,2.1-2,4.4-2.3,6.7c-0.1,0.8-0.2,1.5-0.2,2.3c0,2.8,0.7,5.5,2,8h75.4
			c1.3-2.5,2-5.2,2-8C387.1,494.6,387,493.8,386.9,493.1z"/>
		<path class="st3" d="M373.1,472.7c-1.1-1.1-2.1-2.2-2.9-3.3c-3.8-5.3-3.8-10-3.8-10H350h-5.4h-16.4c0,0,0,4.7-3.8,10
			c-0.8,1.1-1.7,2.2-2.9,3.3c-1.2,1.2-2.4,2.3-3.4,3.4h58.3C375.5,475.1,374.4,473.9,373.1,472.7z"/>
		<path class="st3" d="M309.7,503.4c1.2,2.4,3,4.7,5.2,6.7c2.9,2.7,6.5,5,10.8,6.8l0,0c0,0,6.8,2.8,8.9,7.1h25.6
			c0,0,1.2-3.5,8.6-6.9c0.6-0.2,1.1-0.5,1.6-0.7c0.1,0,0.1-0.1,0.2-0.1c0.1,0,0.1,0,0.1-0.1c3.5-1.7,6.6-3.7,9.1-6
			c2.2-2,4-4.3,5.2-6.7H309.7z"/>
		<path class="st2" d="M362.1,529.8h-29.5c-1.2,0-2.1-1-2.1-2.1v-2.4c0-1.2,1-2.1,2.1-2.1h29.5c1.2,0,2.1,1,2.1,2.1v2.4
			C364.2,528.8,363.3,529.8,362.1,529.8z"/>
		<g>
			<path class="st3" d="M329.1,463.5c0,0-13.6-3.9-13.7-16.1C315.4,447.4,325.8,449.1,329.1,463.5z"/>
			<path class="st3" d="M330.7,463.2c0,0-10.2-9.9-4.6-20.6C326.2,442.5,334.5,448.9,330.7,463.2z"/>
			<path class="st3" d="M334.9,463.4c0,0-8.2-11.6-0.7-21.1C334.2,442.3,341.2,450.1,334.9,463.4z"/>
			<path class="st3" d="M341.4,463.4c0,0-8.2-11.6-0.7-21.1C340.7,442.3,347.8,450.1,341.4,463.4z"/>
			<path class="st3" d="M347.9,463.4c0,0-8.2-11.6-0.7-21.1C347.2,442.3,354.3,450.1,347.9,463.4z"/>
			<path class="st3" d="M365.5,463.4c0,0,13.6-3.9,13.7-16.1C379.2,447.4,368.8,449.1,365.5,463.4z"/>
			<path class="st3" d="M363.9,463.1c0,0,10.2-9.9,4.6-20.6C368.5,442.5,360.1,448.9,363.9,463.1z"/>
			<path class="st3" d="M359.8,463.4c0,0,8.2-11.6,0.7-21.1C360.5,442.3,353.4,450.1,359.8,463.4z"/>
			<path class="st3" d="M353.3,463.4c0,0,8.2-11.6,0.7-21.1C353.9,442.3,346.9,450.1,353.3,463.4z"/>
		</g>
		<path class="st3" d="M365.9,460.6h-37c-1.2,0-2.1-1-2.1-2.1v-2.4c0-1.2,1-2.1,2.1-2.1h37c1.2,0,2.1,1,2.1,2.1v2.4
			C368.1,459.7,367.1,460.6,365.9,460.6z"/>
		<g>
			<path class="st0" d="M330.2,470.6c-0.1-1.9-1.3-3.7-2.3-4.8l0,0l0,0c-1,1.1-2.3,3-2.4,4.8c0,1.1,0.7,1.6,1.4,1.8
				c0.4,0.2,0.9,0.2,0.9,0.2l0,0c0,0,0.1,0,0.1,0c0,0,0,0,0.1,0l0,0c0,0,0.5,0,0.9-0.2C329.5,472.2,330.3,471.7,330.2,470.6z"/>
			<path class="st0" d="M338,470.6c-0.1-1.9-1.3-3.7-2.3-4.8l0,0l0,0c-1,1.1-2.3,3-2.4,4.8c0,1.1,0.7,1.6,1.4,1.8
				c0.4,0.2,0.9,0.2,0.9,0.2l0,0c0,0,0.1,0,0.1,0c0,0,0,0,0.1,0l0,0c0,0,0.5,0,0.9-0.2C337.3,472.2,338.1,471.7,338,470.6z"/>
			<path class="st0" d="M345.8,470.6c-0.1-1.9-1.3-3.7-2.3-4.8l0,0l0,0c-1,1.1-2.3,3-2.4,4.8c0,1.1,0.7,1.6,1.4,1.8
				c0.4,0.2,0.9,0.2,0.9,0.2l0,0c0,0,0.1,0,0.1,0c0,0,0,0,0.1,0l0,0c0,0,0.5,0,0.9-0.2C345.1,472.2,345.8,471.7,345.8,470.6z"/>
			<path class="st0" d="M353.6,470.6c-0.1-1.9-1.3-3.7-2.3-4.8l0,0l0,0c-1,1.1-2.3,3-2.4,4.8c0,1.1,0.7,1.6,1.4,1.8
				c0.4,0.2,0.9,0.2,0.9,0.2l0,0c0,0,0.1,0,0.1,0c0,0,0,0,0.1,0l0,0c0,0,0.5,0,0.9-0.2C352.9,472.2,353.6,471.7,353.6,470.6z"/>
			<path class="st0" d="M361.4,470.6c-0.1-1.9-1.3-3.7-2.3-4.8l0,0l0,0c-1,1.1-2.3,3-2.4,4.8c0,1.1,0.7,1.6,1.4,1.8
				c0.4,0.2,0.9,0.2,0.9,0.2l0,0c0,0,0.1,0,0.1,0c0,0,0,0,0.1,0l0,0c0,0,0.5,0,0.9-0.2C360.6,472.2,361.4,471.7,361.4,470.6z"/>
			<path class="st0" d="M369.2,470.6c-0.1-1.9-1.3-3.7-2.3-4.8l0,0l0,0c-1,1.1-2.3,3-2.4,4.8c0,1.1,0.7,1.6,1.4,1.8
				c0.4,0.2,0.9,0.2,0.9,0.2l0,0c0,0,0.1,0,0.1,0c0,0,0,0,0.1,0l0,0c0,0,0.5,0,0.9-0.2C368.4,472.2,369.2,471.7,369.2,470.6z"/>
		</g>
		<g>
			<circle class="st1" cx="311.1" cy="490.8" r="2.2"/>
			<circle class="st1" cx="319.2" cy="490.8" r="2.2"/>
			<circle class="st1" cx="327.3" cy="490.8" r="2.2"/>
			<circle class="st1" cx="335.3" cy="490.8" r="2.2"/>
			<circle class="st1" cx="343.4" cy="490.8" r="2.2"/>
			<circle class="st1" cx="351.4" cy="490.8" r="2.2"/>
			<circle class="st1" cx="359.5" cy="490.8" r="2.2"/>
			<circle class="st1" cx="367.6" cy="490.8" r="2.2"/>
			<circle class="st1" cx="375.6" cy="490.8" r="2.2"/>
			<circle class="st1" cx="383.7" cy="490.8" r="2.2"/>
		</g>
	</g>
	<g>
		<g>
			<path class="st0" d="M348.7,86.7L348.7,86.7l-0.3-0.4c-9.4,10.1-21.1,27.3-21.7,44.6s20.5,18.3,20.5,18.3l0-0.1
				c0.5,0,1,0.1,1.5,0.1c0.3,0,0.6,0,0.8-0.1l0,0.1c0,0,21.1-1,20.5-18.3C369.5,113.8,358,96.8,348.7,86.7z"/>
			<path class="st1" d="M348.5,109.2L348.5,109.2l-0.2-0.2c-4.4,4.7-9.9,12.8-10.2,21c-0.3,8.1,9.6,8.6,9.6,8.6l0,0
				c0.2,0,0.5,0,0.7,0c0.1,0,0.3,0,0.4,0l0,0c0,0,9.9-0.5,9.6-8.6C358.3,121.9,352.9,114,348.5,109.2z"/>
			<path class="st8" d="M348.4,115.9L348.4,115.9l-0.1-0.1c-3.4,3.6-7.6,9.8-7.8,16.1c-0.2,6.2,7.4,6.6,7.4,6.6l0,0
				c0.2,0,0.4,0,0.5,0c0.1,0,0.2,0,0.3,0l0,0c0,0,7.6-0.4,7.4-6.6C355.9,125.7,351.8,119.6,348.4,115.9z"/>
			<circle class="st1" cx="348.3" cy="146.3" r="1.3"/>
			<g>
				<circle class="st1" cx="343.8" cy="145.4" r="1.3"/>
				<circle class="st1" cx="339.3" cy="144" r="1.3"/>
				<circle class="st1" cx="335.2" cy="141.4" r="1.3"/>
				<circle class="st1" cx="331.9" cy="138.4" r="1.3"/>
				<circle class="st1" cx="330" cy="134" r="1.3"/>
				<circle class="st1" cx="329.6" cy="129.3" r="1.3"/>
				<circle class="st1" cx="330.2" cy="124.6" r="1.3"/>
				<circle class="st1" cx="331.4" cy="119.8" r="1.3"/>
				<circle class="st1" cx="332.9" cy="115.1" r="1.3"/>
				<circle class="st1" cx="335.4" cy="110" r="1.3"/>
				<circle class="st1" cx="337.6" cy="105.3" r="1.3"/>
				<circle class="st1" cx="340.2" cy="100.6" r="1.3"/>
				<circle class="st1" cx="343" cy="96.4" r="1.3"/>
				<circle class="st1" cx="345.5" cy="92.8" r="1.3"/>
			</g>
			<g>
				<circle class="st1" cx="352.9" cy="145.4" r="1.3"/>
				<circle class="st1" cx="357.4" cy="144" r="1.3"/>
				<circle class="st1" cx="361.5" cy="141.4" r="1.3"/>
				<circle class="st1" cx="364.8" cy="138.4" r="1.3"/>
				<circle class="st1" cx="366.7" cy="134" r="1.3"/>
				<circle class="st1" cx="367.1" cy="129.3" r="1.3"/>
				<circle class="st1" cx="366.5" cy="124.6" r="1.3"/>
				<circle class="st1" cx="365.3" cy="119.8" r="1.3"/>
				<circle class="st1" cx="363.9" cy="115.1" r="1.3"/>
				<circle class="st1" cx="361.3" cy="110" r="1.3"/>
				<circle class="st1" cx="359.1" cy="105.3" r="1.3"/>
				<circle class="st1" cx="356.5" cy="100.6" r="1.3"/>
				<circle class="st1" cx="353.7" cy="96.4" r="1.3"/>
				<circle class="st1" cx="351.2" cy="92.8" r="1.3"/>
			</g>
			<circle class="st1" cx="348.1" cy="89.2" r="1.3"/>
		</g>
		<g>
			<path class="st4" d="M349.6,163c0,0,9.5,16.5,33.2,15.7c0.1-4.4-0.5-7.4-0.5-7.4c-1.4-4.7-5-14.5-32.4-15.2
				c-17-0.5-25.8,6-29.9,10.6c-2.2,2.5-3.4,5.7-3.5,9.1c0,0.6,0,1.3,0,2C322.8,179.1,336.8,179.4,349.6,163z"/>
			<path class="st3" d="M349.6,163c-12.8,16.4-26.8,16.1-33.2,14.8c0,11.3,3.8,33.2,33.2,32.5c28.9-0.7,33.2-20.5,33.3-31.6
				C359.1,179.4,349.6,163,349.6,163z"/>
			<path class="st11" d="M366.3,176c-3.4,9.3-11.7,18.5-31.1,18.9c-6.7,0.2-12.1-0.9-16.4-2.7c3.5,9.5,11.8,18.5,30.8,18.1
				c28.9-0.7,33.2-20.5,33.3-31.6C376.3,178.9,370.8,177.8,366.3,176z"/>
			<g>
				<path class="st1" d="M349.6,193.2L349.6,193.2L349.6,193.2c1.3-2.1,2.9-5.7,2.9-9.3c0-3.6-2.9-3.8-2.9-3.8l0,0
					c-0.1,0-0.1,0-0.2,0c0,0-0.1,0-0.1,0l0,0c0,0-2.9,0.3-2.8,3.9C346.6,187.6,348.3,191.1,349.6,193.2z"/>
				<path class="st1" d="M347.8,194.3L347.8,194.3L347.8,194.3c-0.4-2.4-1.6-6.2-4-8.9c-2.4-2.7-4.7-0.9-4.7-0.9l0,0
					c-0.1,0-0.1,0.1-0.2,0.1c0,0-0.1,0.1-0.1,0.1l0,0c0,0-2,2.1,0.5,4.7C341.8,192,345.4,193.6,347.8,194.3z"/>
				<path class="st1" d="M351.9,193.8L351.9,193.8L351.9,193.8c2.3-0.8,5.8-2.6,8.1-5.4c2.3-2.8,0.1-4.8,0.1-4.8l0,0
					c0,0-0.1-0.1-0.1-0.1c0,0-0.1,0-0.1-0.1l0,0c0,0-2.4-1.6-4.6,1.2C353.2,187.6,352.2,191.3,351.9,193.8z"/>
			</g>
			<g>
				<path class="st5" d="M371.5,191.9L371.5,191.9L371.5,191.9c1.1-1.4,2.5-3.9,2.8-6.5c0.3-2.6-1.8-3-1.8-3l0,0c0,0-0.1,0-0.1,0
					c0,0-0.1,0-0.1,0l0,0c0,0-2.1,0-2.3,2.6C369.8,187.6,370.7,190.3,371.5,191.9z"/>
				<path class="st5" d="M370.1,192.6L370.1,192.6L370.1,192.6c-0.1-1.8-0.7-4.6-2.2-6.8s-3.3-1-3.3-1l0,0c0,0-0.1,0-0.1,0.1
					c0,0,0,0-0.1,0.1l0,0c0,0-1.6,1.4,0,3.5C366,190.5,368.5,191.9,370.1,192.6z"/>
				<path class="st5" d="M373.1,192.6L373.1,192.6L373.1,192.6c1.7-0.4,4.4-1.4,6.3-3.2c1.9-1.8,0.5-3.4,0.5-3.4l0,0
					c0,0-0.1-0.1-0.1-0.1c0,0,0,0-0.1-0.1l0,0c0,0-1.6-1.4-3.4,0.5C374.6,188.2,373.6,190.8,373.1,192.6z"/>
			</g>
			<g>
				<path class="st5" d="M328.3,192.5L328.3,192.5L328.3,192.5c0.8-1.6,1.5-4.4,1.2-7s-2.5-2.5-2.5-2.5l0,0c-0.1,0-0.1,0-0.2,0
					c0,0-0.1,0-0.1,0l0,0c0,0-2.1,0.5-1.6,3.1C325.6,188.7,327.2,191.1,328.3,192.5z"/>
				<path class="st5" d="M327.1,193.5L327.1,193.5L327.1,193.5c-0.5-1.7-1.7-4.3-3.7-6.1c-2-1.8-3.5-0.2-3.5-0.2l0,0
					c0,0-0.1,0.1-0.1,0.1c0,0,0,0,0,0.1l0,0c0,0-1.3,1.7,0.8,3.4C322.6,192.4,325.3,193.2,327.1,193.5z"/>
				<path class="st5" d="M330,192.7L330,192.7L330,192.7c1.6-0.8,4-2.4,5.4-4.7c1.4-2.2-0.3-3.5-0.3-3.5l0,0c0,0-0.1-0.1-0.1-0.1
					c0,0-0.1,0-0.1,0l0,0c0,0-1.9-1-3.2,1.3C330.4,188.1,330,190.9,330,192.7z"/>
			</g>
			<path class="st3" d="M318.5,174.3c0,0,7.7-14.7,25.3-14.3C343.8,160,338,176.2,318.5,174.3z"/>
			<path class="st3" d="M380.6,174.3c0,0-7.7-14.7-25.3-14.3C355.4,160,361.1,176.2,380.6,174.3z"/>
			<circle class="st5" cx="329.1" cy="200.2" r="2.1"/>
			<circle class="st5" cx="337.7" cy="204" r="2.1"/>
			<circle class="st5" cx="349.5" cy="204.8" r="2.1"/>
			<circle class="st5" cx="361.4" cy="203" r="2.1"/>
			<circle class="st5" cx="370.5" cy="198.4" r="2.1"/>
		</g>
	</g>
</g>
</svg>
