<?xml version="1.0" encoding="utf-8"?>
<!-- Generator: Adobe Illustrator 25.3.1, SVG Export Plug-In . SVG Version: 6.00 Build 0)  -->
<svg version="1.1" id="Layer_1" xmlns="http://www.w3.org/2000/svg" xmlns:xlink="http://www.w3.org/1999/xlink" x="0px" y="0px"
	 viewBox="0 0 172.7 149.8" style="enable-background:new 0 0 172.7 149.8;" xml:space="preserve">
<style type="text/css">
	.st0{fill:url(#SVGID_1_);}
	.st1{fill:url(#SVGID_2_);}
	.st2{fill:url(#SVGID_3_);}
	.st3{fill:url(#SVGID_4_);}
	.st4{fill:url(#SVGID_5_);}
	.st5{fill:url(#SVGID_6_);}
	.st6{fill:url(#SVGID_7_);}
	.st7{fill:url(#SVGID_8_);}
	.st8{fill:url(#SVGID_9_);}
	.st9{fill:url(#SVGID_10_);}
	.st10{fill:url(#SVGID_11_);}
	.st11{fill:url(#SVGID_12_);}
	.st12{clip-path:url(#SVGID_14_);}
	.st13{fill:url(#SVGID_15_);}
	.st14{fill:url(#SVGID_16_);}
	.st15{fill:url(#SVGID_17_);}
	.st16{fill:url(#SVGID_18_);}
	.st17{fill:url(#SVGID_19_);}
	.st18{fill:url(#SVGID_20_);}
	.st19{fill:url(#SVGID_21_);}
	.st20{fill:url(#SVGID_22_);}
	.st21{fill:url(#SVGID_23_);}
	.st22{fill:url(#SVGID_24_);}
	.st23{fill:url(#SVGID_25_);}
	.st24{fill:url(#SVGID_26_);}
	.st25{fill:url(#SVGID_27_);}
	.st26{clip-path:url(#SVGID_28_);}
	.st27{fill:url(#SVGID_29_);}
</style>
<g>
	<g>
		
			<radialGradient id="SVGID_1_" cx="-504.4748" cy="2423.668" r="22.3026" gradientTransform="matrix(1.7185 0 0 0.3556 918.155 -760.3752)" gradientUnits="userSpaceOnUse">
			<stop  offset="0.3978" style="stop-color:#4C110E"/>
			<stop  offset="0.4177" style="stop-color:#521611"/>
			<stop  offset="0.4502" style="stop-color:#632218"/>
			<stop  offset="0.4912" style="stop-color:#813822"/>
			<stop  offset="0.5386" style="stop-color:#AD5F2E"/>
			<stop  offset="0.5591" style="stop-color:#C37333"/>
			<stop  offset="0.595" style="stop-color:#CA834A;stop-opacity:0.9187"/>
			<stop  offset="0.703" style="stop-color:#DCAE8A;stop-opacity:0.6737"/>
			<stop  offset="0.8013" style="stop-color:#EBD1BC;stop-opacity:0.4507"/>
			<stop  offset="0.8867" style="stop-color:#F6EAE1;stop-opacity:0.257"/>
			<stop  offset="0.9558" style="stop-color:#FDF9F7;stop-opacity:0.1002"/>
			<stop  offset="1" style="stop-color:#FFFFFF;stop-opacity:0"/>
		</radialGradient>
		<ellipse class="st0" cx="51.2" cy="101.5" rx="38.3" ry="7.9"/>
		<g>
			<g>
				<radialGradient id="SVGID_2_" cx="45.6509" cy="76.0965" r="46.721" gradientUnits="userSpaceOnUse">
					<stop  offset="9.139780e-02" style="stop-color:#FBBF4E"/>
					<stop  offset="0.371" style="stop-color:#F4991C"/>
					<stop  offset="0.5915" style="stop-color:#CD6C14"/>
					<stop  offset="0.6063" style="stop-color:#C86716"/>
					<stop  offset="0.8042" style="stop-color:#902B1B"/>
					<stop  offset="0.8978" style="stop-color:#7D1718"/>
					<stop  offset="1" style="stop-color:#F4991C"/>
				</radialGradient>
				<ellipse class="st1" cx="51.2" cy="81.9" rx="31.6" ry="6.4"/>
				<radialGradient id="SVGID_3_" cx="51.8959" cy="101.0248" r="35.6384" gradientUnits="userSpaceOnUse">
					<stop  offset="9.139780e-02" style="stop-color:#FBBF4E"/>
					<stop  offset="0.371" style="stop-color:#F4991C"/>
					<stop  offset="0.5915" style="stop-color:#CD6C14"/>
					<stop  offset="0.6063" style="stop-color:#C86716"/>
					<stop  offset="0.8042" style="stop-color:#902B1B"/>
					<stop  offset="0.8978" style="stop-color:#7D1718"/>
					<stop  offset="1" style="stop-color:#F4991C"/>
				</radialGradient>
				<path class="st2" d="M20.1,83c2.5-3,15.5-5.3,31.1-5.3c15.2,0,28,2.2,30.9,5.1l-6.7,2.6L47.3,90L23,86.6L20.1,83z"/>
				<radialGradient id="SVGID_4_" cx="51.3916" cy="67.1136" r="39.177" gradientUnits="userSpaceOnUse">
					<stop  offset="9.139780e-02" style="stop-color:#FBBF4E"/>
					<stop  offset="0.371" style="stop-color:#F4991C"/>
					<stop  offset="0.5915" style="stop-color:#CD6C14"/>
					<stop  offset="0.6063" style="stop-color:#C86716"/>
					<stop  offset="0.8042" style="stop-color:#902B1B"/>
					<stop  offset="0.8978" style="stop-color:#7D1718"/>
					<stop  offset="1" style="stop-color:#F4991C"/>
				</radialGradient>
				<path class="st3" d="M82.8,81.9c0,0-0.1,1.4-0.6,3.4c-3.8,13.7-16.5,19.3-30.9,19.3c-12.5,0-20.1-3.9-24.7-8.4
					c-0.2-0.2-0.5-0.5-0.7-0.7c-0.1,0-0.1-0.1-0.1-0.1c-0.1-0.1-0.1-0.2-0.2-0.2c-0.1-0.2-0.3-0.3-0.4-0.5c-0.2-0.3-0.4-0.5-0.6-0.8
					c-0.5-0.6-0.9-1.2-1.2-1.8c-0.2-0.3-0.4-0.6-0.5-0.8c-0.4-0.6-0.7-1.2-0.9-1.8c-0.3-0.7-0.6-1.3-0.8-2c-0.1-0.3-0.2-0.5-0.3-0.8
					c-0.1-0.4-0.2-0.7-0.3-1c-0.7-2.3-0.7-3.8-0.7-3.8c6,5.3,20.8,2.3,24.8-5.4C48.9,84.9,70,88.7,82.8,81.9z"/>
				<radialGradient id="SVGID_5_" cx="50.9655" cy="74.7677" r="39.2272" gradientUnits="userSpaceOnUse">
					<stop  offset="9.139780e-02" style="stop-color:#FBBF4E"/>
					<stop  offset="0.371" style="stop-color:#F4991C"/>
					<stop  offset="0.5915" style="stop-color:#CD6C14"/>
					<stop  offset="0.6063" style="stop-color:#C86716"/>
					<stop  offset="0.8042" style="stop-color:#902B1B"/>
					<stop  offset="0.8978" style="stop-color:#7D1718"/>
					<stop  offset="1" style="stop-color:#F4991C"/>
				</radialGradient>
				<path class="st4" d="M82.1,85.3c-0.1,0.3-0.2,0.7-0.3,1v0c-0.1,0.3-0.2,0.5-0.3,0.8v0c-0.2,0.6-0.4,1.2-0.7,1.8
					c-13.2,5.2-32.4,1.1-36.5-4.3c-2.9,4.8-15.3,7.7-22.6,4.8c-0.3-0.7-0.6-1.3-0.8-2c-0.1-0.3-0.2-0.5-0.3-0.8
					c-0.1-0.4-0.2-0.7-0.3-1c6.9,3.9,21.3,0.7,24.1-5.3C48.3,87.1,69,91.3,82.1,85.3z"/>
			</g>
			<g>
				<g>
					<g>
						<radialGradient id="SVGID_6_" cx="50.9428" cy="61.401" r="41.4871" gradientUnits="userSpaceOnUse">
							<stop  offset="9.139780e-02" style="stop-color:#FBBF4E"/>
							<stop  offset="0.371" style="stop-color:#F4991C"/>
							<stop  offset="0.5915" style="stop-color:#CD6C14"/>
							<stop  offset="0.6063" style="stop-color:#C86716"/>
							<stop  offset="0.8042" style="stop-color:#902B1B"/>
							<stop  offset="0.8978" style="stop-color:#7D1718"/>
							<stop  offset="1" style="stop-color:#F4991C"/>
						</radialGradient>
						<path class="st5" d="M21,87.3c0,0.1,0,0.2,0,0.2c-0.1-0.3-0.2-0.5-0.3-0.8c0.1,0,0.1,0.1,0.1,0.1C21,86.9,21,87.1,21,87.3z"/>
					</g>
					<g>
						<radialGradient id="SVGID_7_" cx="50.9438" cy="61.3986" r="41.4896" gradientUnits="userSpaceOnUse">
							<stop  offset="9.139780e-02" style="stop-color:#FBBF4E"/>
							<stop  offset="0.371" style="stop-color:#F4991C"/>
							<stop  offset="0.5915" style="stop-color:#CD6C14"/>
							<stop  offset="0.6063" style="stop-color:#C86716"/>
							<stop  offset="0.8042" style="stop-color:#902B1B"/>
							<stop  offset="0.8978" style="stop-color:#7D1718"/>
							<stop  offset="1" style="stop-color:#F4991C"/>
						</radialGradient>
						<path class="st6" d="M43.4,84.3c-0.1-0.2-0.3-0.2-0.5-0.2c-0.1,0-0.3,0-0.4,0.1c-0.3,0.2-0.3,0.6-0.1,0.9
							c0.1,0.2,0.3,0.2,0.5,0.2c0.1,0,0.3,0,0.4-0.1h0c0.2-0.1,0.2-0.3,0.2-0.5C43.5,84.5,43.5,84.4,43.4,84.3z M41.3,85.8
							c-0.1-0.2-0.3-0.3-0.6-0.3c-0.1,0-0.2,0-0.3,0.1c-0.3,0.2-0.4,0.6-0.3,0.9c0.1,0.2,0.3,0.3,0.6,0.3c0.1,0,0.2,0,0.3-0.1
							c0.2-0.1,0.3-0.3,0.3-0.6C41.3,86,41.3,85.9,41.3,85.8z M38.9,87c-0.1-0.3-0.3-0.4-0.6-0.4c-0.1,0-0.2,0-0.2,0
							c-0.3,0.1-0.5,0.5-0.4,0.8c0.1,0.3,0.3,0.4,0.6,0.4c0.1,0,0.2,0,0.2,0c0.3-0.1,0.4-0.3,0.4-0.6C38.9,87.1,38.9,87.1,38.9,87z
							 M36.4,87.9c-0.1-0.3-0.3-0.5-0.6-0.5c-0.1,0-0.1,0-0.2,0c-0.3,0.1-0.5,0.4-0.4,0.8c0.1,0.3,0.3,0.5,0.6,0.5
							c0.1,0,0.1,0,0.2,0c0.3-0.1,0.5-0.3,0.5-0.6C36.4,88,36.4,87.9,36.4,87.9z M23,87.7c-0.1,0-0.1,0-0.2,0
							c-0.3,0-0.5,0.2-0.6,0.5c-0.1,0.3,0.1,0.7,0.4,0.8c0.1,0,0.1,0,0.2,0c0.3,0,0.5-0.2,0.6-0.5c0-0.1,0-0.1,0-0.2
							C23.5,88,23.3,87.8,23,87.7z M33.9,88.5c-0.1-0.3-0.3-0.5-0.6-0.5c0,0-0.1,0-0.1,0c-0.4,0.1-0.6,0.4-0.5,0.7
							c0.1,0.3,0.3,0.5,0.6,0.5c0,0,0.1,0,0.1,0c0.3-0.1,0.5-0.3,0.5-0.6C33.9,88.6,33.9,88.5,33.9,88.5z M25.5,88.2
							C25.4,88.2,25.4,88.2,25.5,88.2c-0.4,0-0.7,0.2-0.7,0.5c0,0.3,0.2,0.7,0.5,0.7c0,0,0.1,0,0.1,0c0.3,0,0.6-0.2,0.6-0.5
							c0,0,0-0.1,0-0.1C26,88.5,25.8,88.2,25.5,88.2z M30.6,88.3L30.6,88.3c-0.4,0-0.7,0.3-0.6,0.7c0,0.3,0.3,0.6,0.6,0.6
							c0,0,0,0,0.1,0c0.3,0,0.6-0.3,0.6-0.6v-0.1C31.2,88.5,31,88.3,30.6,88.3z M28,88.4c-0.4,0-0.6,0.3-0.7,0.6
							c0,0.4,0.3,0.6,0.6,0.6c0,0,0,0,0,0c0.3,0,0.6-0.3,0.6-0.6c0,0,0,0,0,0C28.6,88.7,28.4,88.4,28,88.4z"/>
					</g>
					<g>
						<radialGradient id="SVGID_8_" cx="50.9436" cy="61.3991" r="41.4887" gradientUnits="userSpaceOnUse">
							<stop  offset="9.139780e-02" style="stop-color:#FBBF4E"/>
							<stop  offset="0.371" style="stop-color:#F4991C"/>
							<stop  offset="0.5915" style="stop-color:#CD6C14"/>
							<stop  offset="0.6063" style="stop-color:#C86716"/>
							<stop  offset="0.8042" style="stop-color:#902B1B"/>
							<stop  offset="0.8978" style="stop-color:#7D1718"/>
							<stop  offset="1" style="stop-color:#F4991C"/>
						</radialGradient>
						<path class="st7" d="M44.7,83.4c-0.2,0-0.3-0.1-0.5-0.2c-0.1-0.1-0.2-0.3-0.2-0.5c0-0.2,0.1-0.3,0.2-0.5
							c0.2-0.2,0.7-0.2,0.9,0c0.1,0.1,0.2,0.3,0.2,0.5c0,0.2-0.1,0.3-0.2,0.5C45,83.3,44.8,83.4,44.7,83.4z"/>
					</g>
					<g>
						<radialGradient id="SVGID_9_" cx="50.9438" cy="61.3986" r="41.4897" gradientUnits="userSpaceOnUse">
							<stop  offset="9.139780e-02" style="stop-color:#FBBF4E"/>
							<stop  offset="0.371" style="stop-color:#F4991C"/>
							<stop  offset="0.5915" style="stop-color:#CD6C14"/>
							<stop  offset="0.6063" style="stop-color:#C86716"/>
							<stop  offset="0.8042" style="stop-color:#902B1B"/>
							<stop  offset="0.8978" style="stop-color:#7D1718"/>
							<stop  offset="1" style="stop-color:#F4991C"/>
						</radialGradient>
						<path class="st8" d="M46.8,84c-0.1-0.1-0.2-0.1-0.4-0.1c-0.2,0-0.4,0.1-0.5,0.3c-0.2,0.3-0.2,0.7,0.1,0.9
							c0.1,0.1,0.2,0.1,0.4,0.1c0.2,0,0.4-0.1,0.5-0.2c0.1-0.1,0.1-0.2,0.1-0.4C47.1,84.3,47,84.1,46.8,84z M48.8,85.2
							C48.8,85.2,48.8,85.2,48.8,85.2c-0.1,0-0.2-0.1-0.3-0.1c-0.2,0-0.4,0.1-0.6,0.3c-0.2,0.3-0.1,0.7,0.3,0.9
							c0.1,0.1,0.2,0.1,0.3,0.1c0.2,0,0.4-0.1,0.6-0.3c0.1-0.1,0.1-0.2,0.1-0.3C49.1,85.6,49,85.3,48.8,85.2z M51,86.3
							c-0.1,0-0.2-0.1-0.2-0.1c-0.2,0-0.5,0.2-0.6,0.4c-0.1,0.3,0,0.7,0.3,0.8c0.1,0,0.2,0.1,0.2,0.1c0.2,0,0.5-0.2,0.6-0.4
							c0-0.1,0.1-0.2,0.1-0.2C51.4,86.6,51.2,86.4,51,86.3z M53.3,87.1c-0.1,0-0.1,0-0.2,0c-0.3,0-0.5,0.2-0.6,0.4
							c-0.1,0.3,0.1,0.7,0.4,0.8c0.1,0,0.1,0,0.2,0c0.3,0,0.5-0.2,0.6-0.4c0-0.1,0-0.1,0-0.2C53.7,87.4,53.5,87.2,53.3,87.1z
							 M80.4,87.6c-0.1-0.3-0.3-0.4-0.6-0.4c-0.1,0-0.1,0-0.2,0c-0.3,0.1-0.5,0.5-0.4,0.8c0.1,0.3,0.3,0.4,0.6,0.4
							c0.1,0,0.1,0,0.2,0c0.3-0.1,0.4-0.3,0.4-0.6C80.5,87.7,80.5,87.7,80.4,87.6z M55.6,87.8c-0.1,0-0.1,0-0.2,0
							c-0.3,0-0.5,0.2-0.6,0.5c-0.1,0.3,0.1,0.7,0.5,0.8c0.1,0,0.1,0,0.2,0c0.3,0,0.5-0.2,0.6-0.5c0-0.1,0-0.1,0-0.2
							C56.1,88.1,55.9,87.8,55.6,87.8z M78.1,88.4c-0.1-0.3-0.3-0.5-0.6-0.5c-0.1,0-0.1,0-0.2,0c-0.3,0.1-0.5,0.4-0.5,0.8
							c0.1,0.3,0.3,0.5,0.6,0.5c0.1,0,0.1,0,0.2,0c0.3-0.1,0.5-0.3,0.5-0.6C78.1,88.5,78.1,88.4,78.1,88.4z M58,88.3
							c0,0-0.1,0-0.1,0c-0.3,0-0.6,0.2-0.6,0.5c-0.1,0.3,0.2,0.7,0.5,0.7c0,0,0.1,0,0.1,0c0.3,0,0.6-0.2,0.6-0.5c0,0,0-0.1,0-0.1
							C58.5,88.6,58.3,88.4,58,88.3z M75.7,89c-0.1-0.3-0.3-0.5-0.6-0.5c0,0-0.1,0-0.1,0c-0.3,0.1-0.6,0.4-0.5,0.7
							c0.1,0.3,0.3,0.5,0.6,0.5c0,0,0.1,0,0.1,0c0.3-0.1,0.5-0.3,0.5-0.6C75.7,89.1,75.7,89,75.7,89z M60.4,88.7
							C60.4,88.7,60.3,88.7,60.4,88.7c-0.4,0-0.7,0.2-0.7,0.5c-0.1,0.4,0.2,0.7,0.5,0.7c0,0,0.1,0,0.1,0c0.3,0,0.6-0.2,0.6-0.5
							c0,0,0-0.1,0-0.1C60.9,89,60.7,88.7,60.4,88.7z M73.3,89.4c0-0.3-0.3-0.6-0.6-0.6c0,0-0.1,0-0.1,0c-0.4,0-0.6,0.4-0.6,0.7
							c0,0.3,0.3,0.6,0.6,0.6h0.1C73,90.1,73.3,89.8,73.3,89.4C73.3,89.5,73.3,89.4,73.3,89.4z M62.8,89L62.8,89
							c-0.4,0-0.7,0.2-0.7,0.6c0,0.4,0.2,0.7,0.6,0.7h0.1c0.3,0,0.6-0.2,0.6-0.6v-0.1C63.4,89.3,63.1,89,62.8,89z M70.2,89.1
							L70.2,89.1c-0.4,0-0.7,0.3-0.6,0.7c0,0.3,0.3,0.6,0.6,0.6c0,0,0,0,0,0c0.3,0,0.6-0.3,0.6-0.6v0C70.8,89.3,70.5,89.1,70.2,89.1
							z M65.2,89.1c-0.3,0-0.7,0.3-0.7,0.6v0c0,0.3,0.3,0.6,0.6,0.6h0c0.3,0,0.6-0.3,0.6-0.6v0C65.9,89.4,65.6,89.2,65.2,89.1z
							 M67.7,89.2C67.7,89.2,67.7,89.2,67.7,89.2c-0.4,0-0.6,0.3-0.6,0.6c0,0,0,0,0,0c0,0.3,0.3,0.6,0.6,0.6c0,0-0.1,0-0.1,0
							s0,0,0.2,0c0.4,0,0.6-0.3,0.6-0.7C68.3,89.5,68,89.2,67.7,89.2z"/>
					</g>
					<g>
						<radialGradient id="SVGID_10_" cx="50.9472" cy="61.3997" r="41.4861" gradientUnits="userSpaceOnUse">
							<stop  offset="9.139780e-02" style="stop-color:#FBBF4E"/>
							<stop  offset="0.371" style="stop-color:#F4991C"/>
							<stop  offset="0.5915" style="stop-color:#CD6C14"/>
							<stop  offset="0.6063" style="stop-color:#C86716"/>
							<stop  offset="0.8042" style="stop-color:#902B1B"/>
							<stop  offset="0.8978" style="stop-color:#7D1718"/>
							<stop  offset="1" style="stop-color:#F4991C"/>
						</radialGradient>
						<path class="st9" d="M81.8,86.3c-0.1,0.3-0.2,0.5-0.3,0.8c0-0.1-0.1-0.2-0.1-0.3c0-0.2,0.1-0.3,0.2-0.5
							C81.7,86.4,81.8,86.4,81.8,86.3z"/>
					</g>
				</g>
				<g>
					<radialGradient id="SVGID_11_" cx="50.9438" cy="61.3989" r="41.4894" gradientUnits="userSpaceOnUse">
						<stop  offset="9.139780e-02" style="stop-color:#FBBF4E"/>
						<stop  offset="0.371" style="stop-color:#F4991C"/>
						<stop  offset="0.5915" style="stop-color:#CD6C14"/>
						<stop  offset="0.6063" style="stop-color:#C86716"/>
						<stop  offset="0.8042" style="stop-color:#902B1B"/>
						<stop  offset="0.8978" style="stop-color:#7D1718"/>
						<stop  offset="1" style="stop-color:#F4991C"/>
					</radialGradient>
					<path class="st10" d="M80,90.7c-0.2,0.3-0.3,0.6-0.5,0.8v0c-4.1,1.4-8.7,2-13.1,2c-9.5,0-18.5-2.7-21.9-5.9
						C41,91.8,31,94.5,23.3,92.1c-0.2-0.3-0.4-0.6-0.5-0.8c8,2.9,18.6-0.4,21.4-4.3l0.2-0.3l0.3,0.3C49.1,91.7,67.2,95.3,80,90.7z"
						/>
				</g>
				<radialGradient id="SVGID_12_" cx="50.9439" cy="61.3989" r="41.4892" gradientUnits="userSpaceOnUse">
					<stop  offset="9.139780e-02" style="stop-color:#FBBF4E"/>
					<stop  offset="0.371" style="stop-color:#F4991C"/>
					<stop  offset="0.5915" style="stop-color:#CD6C14"/>
					<stop  offset="0.6063" style="stop-color:#C86716"/>
					<stop  offset="0.8042" style="stop-color:#902B1B"/>
					<stop  offset="0.8978" style="stop-color:#7D1718"/>
					<stop  offset="1" style="stop-color:#F4991C"/>
				</radialGradient>
				<path class="st11" d="M78.3,93.3c-12.6,3.8-29.4,0.2-33.6-4.4l-0.3-0.3L44.2,89c-0.1,0.1-0.2,0.2-0.3,0.4c0,0,0,0,0,0
					c-3,3.5-11.9,6.3-19.4,4.5c0.2,0.3,0.4,0.5,0.6,0.8c0.2,0,0.4,0.1,0.6,0.1c0,0.1-0.1,0.2-0.2,0.4c0.1,0.1,0.1,0.2,0.2,0.2
					c0,0,0.1-0.1,0.1-0.1c0,0.1,0,0.2,0.1,0.2c0.2,0.2,0.4,0.5,0.7,0.7c0,0,0,0,0,0c0.1,0,0.1,0,0.1,0c0.2,0,0.3-0.1,0.5-0.2
					c0.2-0.1,0.3-0.3,0.4-0.5c0.1,0.2,0.1,0.4,0.3,0.6c0.2,0.2,0.4,0.3,0.6,0.3c0,0,0,0,0,0c0.2,0,0.4-0.1,0.6-0.2
					c0.1-0.1,0.3-0.3,0.4-0.5c0.1,0.2,0.2,0.4,0.3,0.6c0.2,0.2,0.4,0.3,0.6,0.3c0.2,0,0.4-0.1,0.6-0.3c0.1-0.1,0.2-0.3,0.3-0.5
					c0.1,0.2,0.2,0.4,0.4,0.6c0.2,0.1,0.3,0.2,0.5,0.2c0,0,0.1,0,0.1,0c0.2,0,0.4-0.1,0.6-0.3c0.1-0.2,0.2-0.3,0.3-0.6
					c0.1,0.2,0.2,0.4,0.4,0.5c0.2,0.1,0.3,0.2,0.5,0.2c0,0,0.1,0,0.1,0c0.2,0,0.4-0.2,0.6-0.4c0.1-0.2,0.2-0.4,0.2-0.6
					c0.1,0.2,0.3,0.3,0.4,0.4c0.2,0.1,0.3,0.1,0.5,0.1c0.1,0,0.1,0,0.2,0c0.2-0.1,0.4-0.2,0.5-0.4c0.1-0.2,0.2-0.4,0.2-0.6
					c0.1,0.2,0.3,0.3,0.5,0.4c0.1,0.1,0.3,0.1,0.4,0.1c0.1,0,0.2,0,0.2,0c0.2-0.1,0.4-0.2,0.5-0.4c0.1-0.2,0.1-0.4,0.1-0.7
					c0.1,0.2,0.3,0.3,0.5,0.4c0.1,0.1,0.2,0.1,0.4,0.1c0.1,0,0.2,0,0.3-0.1c0.2-0.1,0.4-0.3,0.4-0.5c0.1-0.2,0.1-0.4,0-0.6
					c0.2,0.2,0.4,0.3,0.6,0.3c0.1,0,0.2,0,0.2,0c0.1,0,0.3,0,0.4-0.1c0.2-0.1,0.3-0.3,0.4-0.6c0-0.2,0-0.4,0-0.6
					c0.2,0.1,0.4,0.2,0.6,0.2c0.1,0,0.1,0,0.2,0c0.2,0,0.4-0.1,0.5-0.2c0.2-0.1,0.3-0.3,0.3-0.6c0-0.2,0-0.4-0.1-0.7
					c0.2,0.1,0.4,0.2,0.6,0.2c0,0,0,0,0,0c0.3,0,0.5-0.1,0.6-0.3c0,0,0,0,0-0.1c0.1,0.1,0.1,0.2,0.2,0.3c0.2,0.1,0.3,0.2,0.6,0.2
					c0,0,0.1,0,0.1,0c0.2,0,0.4-0.1,0.6-0.2c-0.1,0.2-0.1,0.4,0,0.6c0,0.3,0.2,0.5,0.4,0.6c0.1,0.1,0.3,0.1,0.4,0.1
					c0.1,0,0.2,0,0.3,0c0.2-0.1,0.4-0.2,0.5-0.3c0,0.2,0,0.4,0,0.6c0.1,0.2,0.2,0.4,0.4,0.5c0.1,0,0.2,0.1,0.3,0.1
					c0.1,0,0.2,0,0.4-0.1c0.2-0.1,0.4-0.2,0.5-0.4c0,0.2,0,0.4,0.1,0.6c0.1,0.2,0.3,0.4,0.5,0.5c0.1,0,0.2,0,0.3,0
					c0.1,0,0.3,0,0.4-0.1c0.2-0.1,0.3-0.2,0.5-0.4c0,0.2,0.1,0.4,0.1,0.6c0.1,0.2,0.3,0.4,0.5,0.5c0.1,0,0.2,0,0.2,0
					c0.1,0,0.3,0,0.4-0.1c0.2-0.1,0.3-0.2,0.5-0.4c0,0.2,0.1,0.4,0.2,0.6c0.1,0.2,0.3,0.4,0.5,0.4c0.1,0,0.1,0,0.2,0
					c0.2,0,0.3,0,0.5-0.1c0.2-0.1,0.3-0.3,0.5-0.5c0,0.2,0.1,0.4,0.2,0.6c0.1,0.2,0.3,0.3,0.5,0.4c0.1,0,0.1,0,0.2,0
					c0.2,0,0.3-0.1,0.5-0.2c0.2-0.1,0.3-0.3,0.4-0.5c0,0.2,0.1,0.4,0.2,0.6c0.1,0.2,0.3,0.3,0.6,0.4c0,0,0.1,0,0.1,0
					c0.2,0,0.3-0.1,0.5-0.2c0.2-0.1,0.3-0.3,0.4-0.5c0,0.2,0.1,0.4,0.3,0.6c0.2,0.2,0.3,0.3,0.6,0.3c0,0,0.1,0,0.1,0
					c0.2,0,0.4-0.1,0.5-0.2c0.2-0.1,0.3-0.3,0.4-0.5c0.1,0.2,0.1,0.4,0.3,0.6c0.2,0.2,0.4,0.3,0.6,0.3c0,0,0.1,0,0.1,0
					c0.2,0,0.4-0.1,0.5-0.2c0.2-0.1,0.3-0.3,0.4-0.5c0.1,0.2,0.2,0.4,0.3,0.6c0.2,0.2,0.4,0.3,0.6,0.3h0c0.2,0,0.4-0.1,0.6-0.2
					c0.1-0.1,0.3-0.3,0.4-0.5c0.1,0.2,0.2,0.4,0.3,0.6c0.2,0.2,0.4,0.3,0.6,0.3h0c0.2,0,0.4-0.1,0.6-0.3c0.1-0.1,0.3-0.3,0.3-0.5
					c0.1,0.2,0.2,0.4,0.3,0.5c0.2,0.2,0.4,0.3,0.6,0.3c0,0,0,0,0,0c0.2,0,0.4-0.1,0.6-0.3c0.1-0.1,0.2-0.3,0.3-0.5
					c0.1,0.2,0.2,0.4,0.4,0.5c0.2,0.2,0.4,0.2,0.6,0.2c0,0,0,0,0.1,0c0.2,0,0.4-0.1,0.6-0.3c0.1-0.1,0.2-0.3,0.3-0.6
					c0.1,0.2,0.2,0.4,0.4,0.5c0.2,0.2,0.4,0.2,0.6,0.2c0,0,0,0,0.1,0c0.2,0,0.4-0.1,0.6-0.3c0.1-0.2,0.2-0.4,0.3-0.6
					c0.1,0.2,0.2,0.4,0.4,0.5c0.2,0.1,0.4,0.2,0.6,0.2c0,0,0.1,0,0.1,0c0.2,0,0.4-0.2,0.6-0.4c0.1-0.2,0.2-0.4,0.2-0.6
					c0.1,0.2,0.3,0.4,0.4,0.5c0.2,0.1,0.3,0.2,0.5,0.2c0,0,0.1,0,0.1,0c0.2,0,0.4-0.2,0.6-0.4c0.1-0.2,0.2-0.4,0.2-0.6
					c0.1,0.2,0.3,0.4,0.4,0.5c0.2,0.1,0.3,0.2,0.5,0.2c0.1,0,0.1,0,0.2,0c0.1,0,0.1,0,0.2-0.1c0.1-0.1,0.2-0.2,0.3-0.3
					c0,0,0-0.1,0-0.1c0.1-0.2,0.1-0.3,0.2-0.5c0,0.1,0.1,0.1,0.1,0.2C77,95,77,95,77.1,94.9c-0.1-0.1-0.2-0.3-0.3-0.5
					c0.3-0.1,0.6-0.1,0.9-0.2C77.9,93.9,78.1,93.6,78.3,93.3z M27,95.8c-0.1,0.1-0.2,0.1-0.4,0.1c-0.2,0-0.3-0.2-0.4-0.2
					c-0.1-0.2-0.2-0.5-0.2-0.8c0.5,0.1,0.9,0.1,1.4,0.2C27.4,95.3,27.2,95.6,27,95.8z M28.9,96c-0.1,0.1-0.2,0.2-0.4,0.2
					c-0.2,0-0.3-0.1-0.4-0.2c-0.2-0.2-0.3-0.5-0.3-0.9c0.5,0,0.9,0.1,1.4,0.1C29.2,95.4,29.1,95.8,28.9,96z M30.8,96
					c-0.1,0.1-0.2,0.2-0.4,0.2c-0.2,0-0.3-0.1-0.4-0.2c-0.2-0.2-0.3-0.5-0.3-0.9c0.5,0,0.9,0,1.4,0C31.1,95.4,31,95.8,30.8,96z
					 M32.6,95.8c-0.1,0.1-0.2,0.2-0.4,0.2c-0.1,0-0.2,0-0.4-0.1c-0.2-0.2-0.4-0.5-0.4-0.9c0.5,0,0.9-0.1,1.4-0.1
					C32.9,95.2,32.8,95.6,32.6,95.8z M34.5,95.6c-0.1,0.1-0.2,0.2-0.4,0.2c-0.1,0-0.3,0-0.4-0.1c-0.2-0.2-0.4-0.5-0.5-0.9
					c0.5-0.1,0.9-0.1,1.4-0.2C34.7,95,34.6,95.3,34.5,95.6z M36.3,95.1c-0.1,0.1-0.2,0.2-0.3,0.3c-0.2,0-0.3,0-0.4-0.1
					c-0.2-0.2-0.4-0.5-0.5-0.8c0.5-0.1,0.9-0.2,1.4-0.3C36.5,94.5,36.4,94.9,36.3,95.1z M38.1,94.6c-0.1,0.1-0.2,0.2-0.3,0.3
					c-0.2,0.1-0.3,0-0.4-0.1c-0.2-0.1-0.5-0.4-0.6-0.8c0.5-0.1,0.9-0.3,1.3-0.4C38.2,94,38.2,94.4,38.1,94.6z M39.8,93.8
					c0,0.1-0.1,0.3-0.3,0.3c-0.2,0.1-0.3,0-0.4,0c-0.2-0.1-0.5-0.3-0.6-0.6c0.4-0.2,0.9-0.3,1.3-0.5C39.9,93.3,39.9,93.6,39.8,93.8z
					 M41.4,92.9c0,0.1-0.1,0.3-0.2,0.4c-0.1,0.1-0.2,0.1-0.4,0c-0.2-0.1-0.5-0.3-0.7-0.5c0.4-0.2,0.8-0.4,1.2-0.6
					C41.4,92.5,41.5,92.7,41.4,92.9z M42.8,92.2c-0.2,0.1-0.3,0.1-0.4,0.1c-0.2,0-0.4-0.2-0.6-0.4c0.4-0.2,0.8-0.5,1.1-0.7
					c0.1,0.2,0.2,0.5,0.2,0.7C42.9,92,42.9,92.2,42.8,92.2z M44.2,90.9c-0.1,0.1-0.2,0.2-0.4,0.2h0c-0.2,0-0.4-0.1-0.6-0.2
					c0.3-0.3,0.6-0.6,0.9-0.9c0.1,0.1,0.1,0.3,0.2,0.4C44.3,90.6,44.3,90.8,44.2,90.9z M44.5,90.1c0-0.1-0.1-0.2-0.2-0.3
					c0-0.1,0.1-0.1,0.1-0.2c0.1,0.1,0.1,0.1,0.2,0.2C44.6,89.9,44.6,90,44.5,90.1z M45.3,91.2c-0.2,0-0.3,0-0.4-0.1
					c-0.1-0.1-0.2-0.3-0.1-0.6c0-0.2,0.1-0.3,0.2-0.4c0.3,0.3,0.7,0.5,1.1,0.8C45.8,91.1,45.5,91.2,45.3,91.2z M46.9,92.3
					c-0.1,0-0.3,0.1-0.4,0c-0.2-0.1-0.2-0.3-0.2-0.4c0-0.2,0-0.5,0.2-0.8c0.4,0.2,0.8,0.5,1.2,0.7C47.4,92,47.1,92.2,46.9,92.3z
					 M48.6,93.2c-0.1,0-0.3,0.1-0.4,0c-0.2-0.1-0.2-0.2-0.3-0.3c-0.1-0.3-0.1-0.6,0.1-0.9c0.4,0.2,0.8,0.4,1.3,0.6
					C49.1,92.8,48.8,93.1,48.6,93.2z M50.3,93.9c-0.1,0.1-0.3,0.1-0.4,0c-0.2-0.1-0.2-0.2-0.3-0.3c-0.1-0.3-0.1-0.6,0-0.9
					c0.4,0.2,0.9,0.3,1.3,0.5C50.8,93.5,50.6,93.8,50.3,93.9z M52.1,94.5c-0.1,0.1-0.3,0.1-0.4,0.1c-0.2-0.1-0.3-0.2-0.3-0.3
					c-0.1-0.3-0.1-0.6,0-1c0.4,0.1,0.9,0.3,1.4,0.4C52.6,94.1,52.3,94.4,52.1,94.5z M53.9,95c-0.1,0.1-0.2,0.1-0.4,0.1
					c-0.2,0-0.3-0.2-0.3-0.3c-0.1-0.2-0.2-0.6-0.1-1c0.5,0.1,0.9,0.2,1.4,0.4C54.4,94.6,54.2,94.9,53.9,95z M55.7,95.4
					c-0.1,0.1-0.2,0.1-0.4,0.1c-0.2,0-0.3-0.2-0.3-0.2c-0.2-0.2-0.2-0.6-0.1-1c0.5,0.1,0.9,0.2,1.4,0.3C56.2,95,56,95.3,55.7,95.4z
					 M57.6,95.8c-0.1,0.1-0.2,0.1-0.4,0.1c-0.2,0-0.3-0.1-0.4-0.2c-0.2-0.2-0.2-0.6-0.2-1c0.5,0.1,0.9,0.2,1.4,0.2
					C58,95.3,57.8,95.6,57.6,95.8z M59.5,96c-0.1,0.1-0.2,0.2-0.4,0.1c-0.2,0-0.3-0.1-0.3-0.2c-0.2-0.2-0.3-0.6-0.2-1
					c0.5,0.1,1,0.1,1.4,0.2C59.8,95.5,59.7,95.9,59.5,96z M61.3,96.3c-0.1,0.1-0.2,0.2-0.4,0.1c-0.2,0-0.3-0.1-0.4-0.2
					c-0.2-0.2-0.3-0.6-0.2-0.9c0.5,0.1,1,0.1,1.4,0.1C61.7,95.7,61.5,96.1,61.3,96.3z M63.2,96.4c-0.1,0.1-0.2,0.2-0.4,0.2
					c-0.2,0-0.3-0.1-0.4-0.2c-0.2-0.2-0.3-0.6-0.3-0.9c0.5,0,1,0.1,1.4,0.1C63.5,95.9,63.4,96.2,63.2,96.4z M65.1,96.4
					c-0.1,0.1-0.2,0.2-0.4,0.2c-0.2,0-0.3-0.1-0.4-0.2c-0.2-0.2-0.3-0.5-0.3-0.9c0.5,0,1,0,1.4,0.1C65.4,95.9,65.3,96.3,65.1,96.4z
					 M66.9,96.4c-0.1,0.1-0.2,0.2-0.4,0.2c-0.2,0-0.3-0.1-0.4-0.2c-0.2-0.2-0.3-0.5-0.4-0.9c0.2,0,0.4,0,0.5,0c0.3,0,0.6,0,0.9,0
					C67.2,95.9,67.1,96.2,66.9,96.4z M68.8,96.4c-0.1,0.1-0.2,0.2-0.4,0.2c-0.2,0-0.3-0.1-0.4-0.2c-0.2-0.2-0.3-0.5-0.4-0.8
					c0.5,0,1,0,1.4-0.1C69.1,95.8,69,96.2,68.8,96.4z M70.7,96.2c-0.1,0.1-0.2,0.2-0.4,0.2c-0.2,0-0.3-0.1-0.4-0.2
					c-0.2-0.2-0.3-0.5-0.4-0.8c0.5,0,1-0.1,1.4-0.1C71,95.7,70.8,96,70.7,96.2z M72.6,96c-0.1,0.1-0.2,0.2-0.4,0.2
					c-0.2,0-0.3-0.1-0.4-0.1c-0.2-0.2-0.4-0.4-0.4-0.8c0.5-0.1,1-0.1,1.4-0.2C72.8,95.5,72.7,95.8,72.6,96z M74.4,95.7
					c-0.1,0.1-0.2,0.2-0.4,0.2c-0.2,0-0.3,0-0.4-0.1c-0.2-0.1-0.4-0.4-0.5-0.8c0.5-0.1,0.9-0.1,1.4-0.2
					C74.6,95.2,74.6,95.5,74.4,95.7z M76.3,95.4c-0.1,0.1-0.2,0.2-0.3,0.2c-0.2,0-0.3,0-0.4-0.1c-0.2-0.1-0.4-0.4-0.5-0.7
					c0.5-0.1,0.9-0.2,1.4-0.3C76.4,94.8,76.4,95.2,76.3,95.4z"/>
			</g>
		</g>
		<g>
			<g>
				<defs>
					<ellipse id="SVGID_13_" cx="44.6" cy="51.4" rx="7.1" ry="25"/>
				</defs>
				<clipPath id="SVGID_14_">
					<use xlink:href="#SVGID_13_"  style="overflow:visible;"/>
				</clipPath>
				<g class="st12">
				</g>
			</g>
		</g>
	</g>
	
		<radialGradient id="SVGID_15_" cx="308.5773" cy="-395.7737" r="35.8457" gradientTransform="matrix(0.8271 0 0 1.3338 -209.8737 579.5433)" gradientUnits="userSpaceOnUse">
		<stop  offset="2.475250e-03" style="stop-color:#F4951E"/>
		<stop  offset="0.2178" style="stop-color:#F07F1F"/>
		<stop  offset="0.2317" style="stop-color:#DE7724;stop-opacity:0.9823"/>
		<stop  offset="0.2857" style="stop-color:#A55C2C;stop-opacity:0.9132"/>
		<stop  offset="0.3442" style="stop-color:#76462C;stop-opacity:0.8384"/>
		<stop  offset="0.4058" style="stop-color:#523528;stop-opacity:0.7597"/>
		<stop  offset="0.4713" style="stop-color:#362621;stop-opacity:0.6759"/>
		<stop  offset="0.5418" style="stop-color:#221A19;stop-opacity:0.5858"/>
		<stop  offset="0.6193" style="stop-color:#130F10;stop-opacity:0.4867"/>
		<stop  offset="0.7074" style="stop-color:#070607;stop-opacity:0.374"/>
		<stop  offset="0.8153" style="stop-color:#030304;stop-opacity:0.2361"/>
		<stop  offset="1" style="stop-color:#020203;stop-opacity:0"/>
	</radialGradient>
	<ellipse class="st13" cx="45.4" cy="51.7" rx="29.6" ry="47.8"/>
</g>
<g>
	<g>
		
			<radialGradient id="SVGID_16_" cx="-477.0603" cy="2457.8584" r="28.0314" gradientTransform="matrix(1.7185 0 0 0.3556 918.155 -760.3752)" gradientUnits="userSpaceOnUse">
			<stop  offset="0.3978" style="stop-color:#4C110E"/>
			<stop  offset="0.4177" style="stop-color:#521611"/>
			<stop  offset="0.4502" style="stop-color:#632218"/>
			<stop  offset="0.4912" style="stop-color:#813822"/>
			<stop  offset="0.5386" style="stop-color:#AD5F2E"/>
			<stop  offset="0.5591" style="stop-color:#C37333"/>
			<stop  offset="0.595" style="stop-color:#CA834A;stop-opacity:0.9187"/>
			<stop  offset="0.703" style="stop-color:#DCAE8A;stop-opacity:0.6737"/>
			<stop  offset="0.8013" style="stop-color:#EBD1BC;stop-opacity:0.4507"/>
			<stop  offset="0.8867" style="stop-color:#F6EAE1;stop-opacity:0.257"/>
			<stop  offset="0.9558" style="stop-color:#FDF9F7;stop-opacity:0.1002"/>
			<stop  offset="1" style="stop-color:#FFFFFF;stop-opacity:0"/>
		</radialGradient>
		<ellipse class="st14" cx="98.3" cy="113.6" rx="48.2" ry="10"/>
		<g>
			<g>
				<radialGradient id="SVGID_17_" cx="91.3335" cy="81.7341" r="58.7221" gradientUnits="userSpaceOnUse">
					<stop  offset="9.139780e-02" style="stop-color:#FBBF4E"/>
					<stop  offset="0.371" style="stop-color:#F4991C"/>
					<stop  offset="0.5915" style="stop-color:#CD6C14"/>
					<stop  offset="0.6063" style="stop-color:#C86716"/>
					<stop  offset="0.8042" style="stop-color:#902B1B"/>
					<stop  offset="0.8978" style="stop-color:#7D1718"/>
					<stop  offset="1" style="stop-color:#F4991C"/>
				</radialGradient>
				<ellipse class="st15" cx="98.3" cy="89.1" rx="39.7" ry="8"/>
				<radialGradient id="SVGID_18_" cx="99.1825" cy="113.0657" r="44.7927" gradientUnits="userSpaceOnUse">
					<stop  offset="9.139780e-02" style="stop-color:#FBBF4E"/>
					<stop  offset="0.371" style="stop-color:#F4991C"/>
					<stop  offset="0.5915" style="stop-color:#CD6C14"/>
					<stop  offset="0.6063" style="stop-color:#C86716"/>
					<stop  offset="0.8042" style="stop-color:#902B1B"/>
					<stop  offset="0.8978" style="stop-color:#7D1718"/>
					<stop  offset="1" style="stop-color:#F4991C"/>
				</radialGradient>
				<path class="st16" d="M59.2,90.4c3.2-3.8,19.5-6.6,39.1-6.6c19.2,0,35.2,2.7,38.9,6.4l-8.4,3.2l-35.4,5.8l-30.5-4.3L59.2,90.4z"
					/>
				<radialGradient id="SVGID_19_" cx="98.5487" cy="70.4438" r="49.2402" gradientUnits="userSpaceOnUse">
					<stop  offset="9.139780e-02" style="stop-color:#FBBF4E"/>
					<stop  offset="0.371" style="stop-color:#F4991C"/>
					<stop  offset="0.5915" style="stop-color:#CD6C14"/>
					<stop  offset="0.6063" style="stop-color:#C86716"/>
					<stop  offset="0.8042" style="stop-color:#902B1B"/>
					<stop  offset="0.8978" style="stop-color:#7D1718"/>
					<stop  offset="1" style="stop-color:#F4991C"/>
				</radialGradient>
				<path class="st17" d="M138,89.1c0,0-0.1,1.7-0.8,4.3c-4.8,17.2-20.7,24.2-38.9,24.2c-15.8,0-25.3-4.9-31-10.6
					c-0.3-0.3-0.6-0.6-0.9-0.9c-0.1-0.1-0.1-0.1-0.2-0.2c-0.1-0.1-0.2-0.2-0.3-0.3c-0.2-0.2-0.3-0.4-0.5-0.6c-0.3-0.3-0.5-0.7-0.8-1
					c-0.6-0.7-1.1-1.5-1.5-2.2c-0.2-0.4-0.4-0.7-0.6-1.1c-0.4-0.8-0.8-1.5-1.2-2.2c-0.4-0.9-0.8-1.7-1-2.5c-0.1-0.3-0.2-0.7-0.3-1
					c-0.2-0.4-0.3-0.9-0.4-1.3c-0.8-2.8-0.9-4.7-0.9-4.7c7.5,6.7,26.2,2.9,31.2-6.8C95.4,92.8,121.9,97.6,138,89.1z"/>
				<radialGradient id="SVGID_20_" cx="98.0133" cy="80.0639" r="49.3034" gradientUnits="userSpaceOnUse">
					<stop  offset="9.139780e-02" style="stop-color:#FBBF4E"/>
					<stop  offset="0.371" style="stop-color:#F4991C"/>
					<stop  offset="0.5915" style="stop-color:#CD6C14"/>
					<stop  offset="0.6063" style="stop-color:#C86716"/>
					<stop  offset="0.8042" style="stop-color:#902B1B"/>
					<stop  offset="0.8978" style="stop-color:#7D1718"/>
					<stop  offset="1" style="stop-color:#F4991C"/>
				</radialGradient>
				<path class="st18" d="M137.2,93.3c-0.1,0.4-0.2,0.8-0.4,1.3v0c-0.1,0.3-0.2,0.7-0.4,1v0c-0.2,0.7-0.6,1.5-0.9,2.3
					c-16.5,6.5-40.7,1.3-45.8-5.4c-3.6,6-19.3,9.7-28.4,6.1c-0.4-0.9-0.8-1.7-1-2.5c-0.1-0.3-0.2-0.7-0.3-1
					c-0.2-0.4-0.3-0.9-0.4-1.3c8.7,4.9,26.8,0.9,30.3-6.7C94.7,95.5,120.6,100.9,137.2,93.3z"/>
			</g>
			<g>
				<g>
					<g>
						<radialGradient id="SVGID_21_" cx="97.9927" cy="63.2636" r="52.1502" gradientUnits="userSpaceOnUse">
							<stop  offset="9.139780e-02" style="stop-color:#FBBF4E"/>
							<stop  offset="0.371" style="stop-color:#F4991C"/>
							<stop  offset="0.5915" style="stop-color:#CD6C14"/>
							<stop  offset="0.6063" style="stop-color:#C86716"/>
							<stop  offset="0.8042" style="stop-color:#902B1B"/>
							<stop  offset="0.8978" style="stop-color:#7D1718"/>
							<stop  offset="1" style="stop-color:#F4991C"/>
						</radialGradient>
						<path class="st19" d="M60.4,95.8c0,0.1,0,0.2-0.1,0.3c-0.1-0.3-0.2-0.7-0.3-1c0.1,0,0.1,0.1,0.2,0.1
							C60.3,95.4,60.4,95.6,60.4,95.8z"/>
					</g>
					<g>
						<radialGradient id="SVGID_22_" cx="97.986" cy="63.2607" r="52.1471" gradientUnits="userSpaceOnUse">
							<stop  offset="9.139780e-02" style="stop-color:#FBBF4E"/>
							<stop  offset="0.371" style="stop-color:#F4991C"/>
							<stop  offset="0.5915" style="stop-color:#CD6C14"/>
							<stop  offset="0.6063" style="stop-color:#C86716"/>
							<stop  offset="0.8042" style="stop-color:#902B1B"/>
							<stop  offset="0.8978" style="stop-color:#7D1718"/>
							<stop  offset="1" style="stop-color:#F4991C"/>
						</radialGradient>
						<path class="st20" d="M88.5,92c-0.2-0.2-0.4-0.3-0.6-0.3c-0.2,0-0.4,0.1-0.5,0.2C87,92.2,87,92.7,87.2,93
							c0.2,0.2,0.4,0.3,0.6,0.3c0.2,0,0.4-0.1,0.5-0.2h0c0.2-0.2,0.3-0.4,0.3-0.6C88.7,92.3,88.6,92.2,88.5,92z M85.8,93.9
							c-0.1-0.3-0.4-0.4-0.7-0.4c-0.1,0-0.3,0-0.4,0.1c-0.4,0.2-0.5,0.7-0.3,1.1c0.1,0.3,0.4,0.4,0.7,0.4c0.1,0,0.3,0,0.4-0.1
							c0.3-0.1,0.4-0.4,0.4-0.7C85.9,94.2,85.9,94.1,85.8,93.9z M82.9,95.4c-0.1-0.3-0.4-0.5-0.8-0.5c-0.1,0-0.2,0-0.3,0.1
							c-0.4,0.2-0.6,0.6-0.5,1c0.1,0.3,0.4,0.5,0.7,0.5c0.1,0,0.2,0,0.3-0.1c0.3-0.1,0.5-0.4,0.5-0.8C82.9,95.6,82.9,95.5,82.9,95.4
							z M79.7,96.5c-0.1-0.4-0.4-0.6-0.8-0.6c-0.1,0-0.1,0-0.2,0c-0.4,0.1-0.7,0.6-0.6,1c0.1,0.4,0.4,0.6,0.8,0.6c0.1,0,0.1,0,0.2,0
							c0.4-0.1,0.6-0.4,0.6-0.8C79.8,96.6,79.8,96.6,79.7,96.5z M62.9,96.3c-0.1,0-0.2,0-0.2,0c-0.3,0-0.7,0.2-0.8,0.6
							c-0.1,0.4,0.1,0.9,0.5,1c0.1,0,0.2,0,0.2,0c0.3,0,0.7-0.2,0.8-0.6c0-0.1,0-0.2,0-0.2C63.4,96.7,63.2,96.4,62.9,96.3z
							 M76.5,97.3c-0.1-0.4-0.4-0.7-0.8-0.7c0,0-0.1,0-0.1,0c-0.4,0.1-0.7,0.5-0.6,0.9c0.1,0.4,0.4,0.7,0.8,0.7c0,0,0.1,0,0.1,0
							c0.4-0.1,0.7-0.4,0.7-0.8C76.5,97.4,76.5,97.3,76.5,97.3z M66,96.9c0,0-0.1,0-0.1,0c-0.4,0-0.7,0.3-0.8,0.7
							c-0.1,0.4,0.2,0.8,0.7,0.9c0,0,0.1,0,0.1,0c0.4,0,0.7-0.3,0.8-0.7c0,0,0-0.1,0-0.1C66.7,97.3,66.4,97,66,96.9z M72.5,97.1
							L72.5,97.1c-0.5,0-0.8,0.4-0.8,0.9c0,0.4,0.4,0.7,0.8,0.7c0,0,0,0,0.1,0c0.4,0,0.7-0.4,0.7-0.8v-0.1
							C73.2,97.4,72.9,97.1,72.5,97.1z M69.2,97.2c-0.4,0-0.8,0.4-0.8,0.8c0,0.4,0.4,0.8,0.8,0.8c0,0,0,0,0,0c0.4,0,0.8-0.4,0.8-0.8
							c0,0,0,0,0,0C70,97.6,69.6,97.2,69.2,97.2z"/>
					</g>
					<g>
						<radialGradient id="SVGID_23_" cx="97.9859" cy="63.2597" r="52.1489" gradientUnits="userSpaceOnUse">
							<stop  offset="9.139780e-02" style="stop-color:#FBBF4E"/>
							<stop  offset="0.371" style="stop-color:#F4991C"/>
							<stop  offset="0.5915" style="stop-color:#CD6C14"/>
							<stop  offset="0.6063" style="stop-color:#C86716"/>
							<stop  offset="0.8042" style="stop-color:#902B1B"/>
							<stop  offset="0.8978" style="stop-color:#7D1718"/>
							<stop  offset="1" style="stop-color:#F4991C"/>
						</radialGradient>
						<path class="st21" d="M90.1,90.9c-0.2,0-0.4-0.1-0.6-0.2c-0.2-0.2-0.2-0.4-0.2-0.6c0-0.2,0.1-0.4,0.2-0.6
							c0.3-0.3,0.8-0.3,1.1,0c0.2,0.2,0.2,0.4,0.2,0.6c0,0.2-0.1,0.4-0.2,0.6C90.5,90.8,90.3,90.9,90.1,90.9z"/>
					</g>
					<g>
						<radialGradient id="SVGID_24_" cx="97.9859" cy="63.2608" r="52.147" gradientUnits="userSpaceOnUse">
							<stop  offset="9.139780e-02" style="stop-color:#FBBF4E"/>
							<stop  offset="0.371" style="stop-color:#F4991C"/>
							<stop  offset="0.5915" style="stop-color:#CD6C14"/>
							<stop  offset="0.6063" style="stop-color:#C86716"/>
							<stop  offset="0.8042" style="stop-color:#902B1B"/>
							<stop  offset="0.8978" style="stop-color:#7D1718"/>
							<stop  offset="1" style="stop-color:#F4991C"/>
						</radialGradient>
						<path class="st22" d="M92.8,91.6c-0.1-0.1-0.3-0.2-0.5-0.2c-0.2,0-0.5,0.1-0.6,0.3c-0.3,0.4-0.2,0.9,0.2,1.1
							c0.1,0.1,0.3,0.2,0.5,0.2c0.2,0,0.5-0.1,0.6-0.3c0.1-0.1,0.2-0.3,0.2-0.5C93.1,92,93,91.8,92.8,91.6z M95.3,93.2
							C95.3,93.2,95.3,93.2,95.3,93.2c-0.1-0.1-0.3-0.1-0.4-0.1c-0.3,0-0.6,0.2-0.7,0.4c-0.2,0.4-0.1,0.9,0.3,1.1
							c0.1,0.1,0.2,0.1,0.4,0.1c0.3,0,0.6-0.2,0.7-0.4c0.1-0.1,0.1-0.3,0.1-0.4C95.7,93.6,95.6,93.4,95.3,93.2z M98,94.5
							c-0.1,0-0.2-0.1-0.3-0.1c-0.3,0-0.6,0.2-0.7,0.5c-0.2,0.4,0,0.9,0.4,1c0.1,0,0.2,0.1,0.3,0.1c0.3,0,0.6-0.2,0.7-0.5
							c0-0.1,0.1-0.2,0.1-0.3C98.5,94.9,98.4,94.6,98,94.5z M100.9,95.5c-0.1,0-0.2,0-0.2,0c-0.3,0-0.6,0.2-0.8,0.6
							c-0.1,0.4,0.1,0.9,0.5,1c0.1,0,0.2,0,0.2,0c0.3,0,0.6-0.2,0.8-0.6c0-0.1,0-0.2,0-0.2C101.5,96,101.2,95.7,100.9,95.5z
							 M135.1,96.2c-0.1-0.3-0.4-0.5-0.8-0.5c-0.1,0-0.2,0-0.3,0c-0.4,0.1-0.6,0.6-0.5,1c0.1,0.3,0.4,0.5,0.8,0.5c0.1,0,0.2,0,0.3,0
							c0.3-0.1,0.5-0.4,0.5-0.8C135.1,96.4,135.1,96.3,135.1,96.2z M103.8,96.4c-0.1,0-0.1,0-0.2,0c-0.4,0-0.7,0.2-0.8,0.6
							c-0.1,0.4,0.1,0.9,0.6,1c0.1,0,0.1,0,0.2,0c0.4,0,0.7-0.2,0.8-0.6c0-0.1,0-0.1,0-0.2C104.4,96.8,104.2,96.5,103.8,96.4z
							 M132.1,97.2c-0.1-0.4-0.4-0.6-0.8-0.6c-0.1,0-0.1,0-0.2,0c-0.4,0.1-0.7,0.5-0.6,1c0.1,0.4,0.4,0.6,0.8,0.6c0.1,0,0.1,0,0.2,0
							c0.4-0.1,0.6-0.4,0.6-0.8C132.1,97.3,132.1,97.2,132.1,97.2z M106.8,97.1c-0.1,0-0.1,0-0.2,0c-0.4,0-0.7,0.3-0.8,0.6
							c-0.1,0.4,0.2,0.8,0.6,0.9c0,0,0.1,0,0.2,0c0.4,0,0.7-0.3,0.8-0.6c0-0.1,0-0.1,0-0.2C107.5,97.5,107.2,97.1,106.8,97.1z
							 M129.1,97.9c-0.1-0.4-0.4-0.6-0.8-0.6c-0.1,0-0.1,0-0.2,0c-0.4,0.1-0.7,0.5-0.6,0.9c0.1,0.4,0.4,0.6,0.8,0.6c0,0,0.1,0,0.2,0
							c0.4-0.1,0.6-0.4,0.6-0.8C129.1,98,129.1,98,129.1,97.9z M109.9,97.6c0,0-0.1,0-0.1,0c-0.4,0-0.7,0.3-0.8,0.7
							c-0.1,0.4,0.2,0.8,0.7,0.9c0,0,0.1,0,0.1,0c0.4,0,0.7-0.3,0.8-0.7c0,0,0-0.1,0-0.1C110.5,98,110.3,97.6,109.9,97.6z M126,98.5
							c0-0.4-0.4-0.7-0.8-0.7c0,0-0.1,0-0.1,0c-0.4,0.1-0.8,0.5-0.7,0.9c0,0.4,0.4,0.7,0.8,0.7h0.1c0.4,0,0.7-0.4,0.7-0.8
							C126,98.5,126,98.5,126,98.5z M112.9,97.9L112.9,97.9c-0.5,0-0.8,0.3-0.9,0.7c0,0.4,0.3,0.8,0.7,0.9h0.1
							c0.4,0,0.8-0.3,0.8-0.7v-0.1C113.6,98.3,113.3,98,112.9,97.9z M122.1,98.1L122.1,98.1c-0.5,0-0.8,0.4-0.8,0.8
							c0,0.4,0.4,0.8,0.8,0.8c0,0,0,0,0.1,0c0.4,0,0.7-0.4,0.7-0.8v-0.1C122.9,98.4,122.6,98.1,122.1,98.1z M116,98.1
							c-0.4,0-0.8,0.3-0.8,0.8v0c0,0.4,0.3,0.8,0.8,0.8h0c0.4,0,0.8-0.3,0.8-0.8v0C116.7,98.5,116.4,98.1,116,98.1z M119,98.2
							C119,98.2,119,98.2,119,98.2c-0.4,0-0.8,0.4-0.8,0.8c0,0,0,0,0,0c0,0.4,0.4,0.8,0.8,0.8c0,0-0.2,0-0.2,0s0,0,0.2,0
							c0.4,0,0.8-0.4,0.8-0.8C119.8,98.5,119.5,98.2,119,98.2z"/>
					</g>
					<g>
						<radialGradient id="SVGID_25_" cx="97.9876" cy="63.261" r="52.1453" gradientUnits="userSpaceOnUse">
							<stop  offset="9.139780e-02" style="stop-color:#FBBF4E"/>
							<stop  offset="0.371" style="stop-color:#F4991C"/>
							<stop  offset="0.5915" style="stop-color:#CD6C14"/>
							<stop  offset="0.6063" style="stop-color:#C86716"/>
							<stop  offset="0.8042" style="stop-color:#902B1B"/>
							<stop  offset="0.8978" style="stop-color:#7D1718"/>
							<stop  offset="1" style="stop-color:#F4991C"/>
						</radialGradient>
						<path class="st23" d="M136.8,94.6c-0.1,0.3-0.2,0.7-0.4,1c0-0.1-0.1-0.2-0.1-0.3c0-0.2,0.1-0.4,0.2-0.6
							C136.7,94.7,136.8,94.6,136.8,94.6z"/>
					</g>
				</g>
				<g>
					<radialGradient id="SVGID_26_" cx="97.986" cy="63.2608" r="52.1468" gradientUnits="userSpaceOnUse">
						<stop  offset="9.139780e-02" style="stop-color:#FBBF4E"/>
						<stop  offset="0.371" style="stop-color:#F4991C"/>
						<stop  offset="0.5915" style="stop-color:#CD6C14"/>
						<stop  offset="0.6063" style="stop-color:#C86716"/>
						<stop  offset="0.8042" style="stop-color:#902B1B"/>
						<stop  offset="0.8978" style="stop-color:#7D1718"/>
						<stop  offset="1" style="stop-color:#F4991C"/>
					</radialGradient>
					<path class="st24" d="M134.5,100.1c-0.2,0.3-0.4,0.7-0.6,1.1v0c-5.2,1.7-10.9,2.5-16.5,2.5c-11.9,0-23.3-3.3-27.5-7.5
						c-4.4,5.3-16.9,8.7-26.7,5.7c-0.2-0.4-0.4-0.7-0.6-1.1c10.1,3.7,23.3-0.5,26.9-5.5l0.3-0.4l0.3,0.4
						C95.7,101.3,118.4,105.9,134.5,100.1z"/>
				</g>
				<radialGradient id="SVGID_27_" cx="97.986" cy="63.2611" r="52.1465" gradientUnits="userSpaceOnUse">
					<stop  offset="9.139780e-02" style="stop-color:#FBBF4E"/>
					<stop  offset="0.371" style="stop-color:#F4991C"/>
					<stop  offset="0.5915" style="stop-color:#CD6C14"/>
					<stop  offset="0.6063" style="stop-color:#C86716"/>
					<stop  offset="0.8042" style="stop-color:#902B1B"/>
					<stop  offset="0.8978" style="stop-color:#7D1718"/>
					<stop  offset="1" style="stop-color:#F4991C"/>
				</radialGradient>
				<path class="st25" d="M132.4,103.4c-15.9,4.7-36.9,0.3-42.3-5.5l-0.3-0.4l-0.3,0.4c-0.1,0.2-0.2,0.3-0.4,0.5c0,0,0,0,0,0
					c-3.8,4.4-15,8-24.4,5.7c0.3,0.3,0.5,0.7,0.8,1c0.2,0.1,0.5,0.1,0.7,0.1c-0.1,0.2-0.1,0.3-0.2,0.4c0.1,0.1,0.2,0.2,0.3,0.3
					c0,0,0.1-0.1,0.1-0.1c0,0.1,0,0.2,0.1,0.3c0.3,0.3,0.6,0.6,0.9,0.9c0,0,0,0,0,0c0.1,0,0.1,0,0.2,0c0.2,0,0.4-0.1,0.6-0.2
					c0.2-0.2,0.4-0.4,0.5-0.7c0.1,0.3,0.2,0.5,0.3,0.7c0.2,0.2,0.5,0.4,0.7,0.4c0,0,0,0,0.1,0c0.3,0,0.5-0.1,0.7-0.3
					c0.2-0.2,0.3-0.4,0.4-0.7c0.1,0.3,0.2,0.5,0.4,0.7c0.2,0.2,0.5,0.3,0.8,0.3c0.3,0,0.5-0.1,0.8-0.4c0.2-0.2,0.3-0.4,0.4-0.7
					c0.1,0.3,0.3,0.5,0.5,0.7c0.2,0.2,0.4,0.2,0.6,0.2c0,0,0.1,0,0.1,0c0.3,0,0.5-0.2,0.7-0.4c0.2-0.2,0.3-0.4,0.3-0.7
					c0.1,0.3,0.3,0.5,0.5,0.6c0.2,0.1,0.4,0.2,0.6,0.2c0.1,0,0.1,0,0.2,0c0.3-0.1,0.5-0.2,0.7-0.5c0.1-0.2,0.2-0.5,0.3-0.7
					c0.2,0.2,0.3,0.4,0.5,0.6c0.2,0.1,0.4,0.2,0.6,0.2c0.1,0,0.2,0,0.2,0c0.3-0.1,0.5-0.2,0.7-0.5c0.1-0.2,0.2-0.5,0.2-0.8
					c0.2,0.2,0.4,0.4,0.6,0.5c0.2,0.1,0.4,0.1,0.5,0.1c0.1,0,0.2,0,0.3,0c0.3-0.1,0.5-0.3,0.6-0.5c0.1-0.2,0.2-0.5,0.2-0.8
					c0.2,0.2,0.4,0.4,0.6,0.5c0.2,0.1,0.3,0.1,0.5,0.1c0.1,0,0.3,0,0.4-0.1c0.3-0.1,0.4-0.4,0.5-0.7c0.1-0.2,0.1-0.5,0.1-0.8
					c0.2,0.2,0.5,0.4,0.7,0.4c0.1,0,0.2,0,0.3,0c0.2,0,0.4,0,0.5-0.2c0.2-0.2,0.4-0.4,0.5-0.7c0.1-0.2,0-0.5,0-0.8
					c0.2,0.2,0.5,0.3,0.7,0.3c0.1,0,0.1,0,0.2,0c0.2,0,0.5-0.1,0.6-0.2c0.2-0.2,0.4-0.4,0.4-0.7c0-0.3,0-0.6-0.1-0.8
					c0.3,0.1,0.5,0.2,0.8,0.2c0,0,0,0,0,0c0.3,0,0.6-0.1,0.8-0.3c0,0,0-0.1,0.1-0.1c0.1,0.1,0.1,0.3,0.2,0.4
					c0.2,0.2,0.4,0.3,0.7,0.3c0,0,0.1,0,0.1,0c0.2,0,0.5-0.1,0.8-0.3c-0.1,0.3-0.1,0.5,0,0.8c0.1,0.3,0.2,0.6,0.5,0.8
					c0.2,0.1,0.3,0.1,0.5,0.1c0.1,0,0.2,0,0.3,0c0.2-0.1,0.5-0.2,0.7-0.4c0,0.3,0,0.6,0,0.8c0.1,0.3,0.3,0.5,0.6,0.7
					c0.1,0.1,0.3,0.1,0.4,0.1c0.1,0,0.3,0,0.4-0.1c0.2-0.1,0.4-0.2,0.6-0.4c0,0.3,0,0.6,0.1,0.8c0.1,0.3,0.3,0.5,0.6,0.6
					c0.1,0,0.2,0.1,0.3,0.1c0.2,0,0.3,0,0.5-0.1c0.2-0.1,0.4-0.3,0.6-0.5c0,0.3,0.1,0.6,0.2,0.8c0.1,0.3,0.4,0.5,0.6,0.6
					c0.1,0,0.2,0,0.3,0c0.2,0,0.4,0,0.5-0.2c0.2-0.1,0.4-0.3,0.6-0.5c0,0.3,0.1,0.6,0.2,0.8c0.2,0.3,0.4,0.5,0.6,0.5
					c0.1,0,0.2,0,0.3,0c0.2,0,0.4-0.1,0.6-0.2c0.2-0.1,0.4-0.3,0.6-0.6c0,0.3,0.1,0.6,0.3,0.8c0.2,0.3,0.4,0.4,0.7,0.5
					c0.1,0,0.1,0,0.2,0c0.2,0,0.4-0.1,0.6-0.2c0.2-0.1,0.4-0.3,0.5-0.6c0,0.3,0.1,0.5,0.3,0.7c0.2,0.3,0.4,0.4,0.7,0.5
					c0.1,0,0.1,0,0.2,0c0.2,0,0.4-0.1,0.6-0.2c0.2-0.1,0.4-0.4,0.5-0.6c0.1,0.3,0.2,0.5,0.3,0.8c0.2,0.2,0.4,0.4,0.7,0.4
					c0,0,0.1,0,0.1,0c0.2,0,0.5-0.1,0.7-0.2c0.2-0.2,0.4-0.4,0.5-0.6c0.1,0.3,0.2,0.5,0.3,0.7c0.2,0.2,0.5,0.4,0.7,0.4
					c0,0,0.1,0,0.1,0c0.2,0,0.5-0.1,0.7-0.3c0.2-0.2,0.4-0.4,0.5-0.7c0.1,0.3,0.2,0.5,0.4,0.7c0.2,0.2,0.5,0.4,0.7,0.4h0
					c0.3,0,0.5-0.1,0.7-0.3c0.2-0.2,0.3-0.4,0.4-0.7c0.1,0.3,0.2,0.5,0.4,0.7c0.2,0.2,0.5,0.4,0.8,0.4h0c0.3,0,0.5-0.1,0.7-0.3
					c0.2-0.2,0.3-0.4,0.4-0.7c0.1,0.3,0.2,0.5,0.4,0.7c0.2,0.2,0.5,0.3,0.8,0.3c0,0,0,0,0,0c0.3,0,0.5-0.1,0.8-0.4
					c0.2-0.2,0.3-0.4,0.4-0.7c0.1,0.3,0.3,0.5,0.5,0.7c0.2,0.2,0.5,0.3,0.7,0.3c0,0,0,0,0.1,0c0.3,0,0.5-0.1,0.7-0.4
					c0.2-0.2,0.3-0.4,0.4-0.7c0.1,0.3,0.3,0.5,0.5,0.6c0.2,0.2,0.5,0.3,0.7,0.3c0,0,0.1,0,0.1,0c0.3,0,0.5-0.2,0.7-0.4
					c0.2-0.2,0.3-0.4,0.4-0.7c0.1,0.3,0.3,0.5,0.5,0.6c0.2,0.2,0.5,0.3,0.7,0.3c0,0,0.1,0,0.1,0c0.3,0,0.5-0.2,0.7-0.4
					c0.1-0.2,0.3-0.4,0.3-0.7c0.1,0.3,0.3,0.5,0.5,0.6c0.2,0.1,0.4,0.2,0.6,0.2c0.1,0,0.1,0,0.2,0c0.3,0,0.5-0.2,0.7-0.5
					c0.1-0.2,0.2-0.5,0.3-0.7c0.1,0.2,0.3,0.4,0.5,0.6c0.2,0.1,0.4,0.2,0.6,0.2c0.1,0,0.1,0,0.2,0c0.1,0,0.2,0,0.3-0.1
					c0.2-0.1,0.3-0.2,0.4-0.4c0,0,0-0.1,0.1-0.1c0.1-0.2,0.2-0.4,0.2-0.7c0.1,0.1,0.1,0.2,0.2,0.2c0.1-0.1,0.2-0.2,0.3-0.3
					c-0.1-0.2-0.3-0.4-0.3-0.6c0.4-0.1,0.7-0.2,1.1-0.3C131.9,104.1,132.1,103.7,132.4,103.4z M67.9,106.5c-0.2,0.1-0.3,0.2-0.5,0.1
					c-0.2,0-0.4-0.2-0.4-0.3c-0.2-0.3-0.2-0.6-0.2-1c0.6,0.1,1.1,0.2,1.7,0.2C68.4,105.9,68.2,106.3,67.9,106.5z M70.3,106.7
					c-0.1,0.1-0.3,0.2-0.5,0.2c-0.2,0-0.4-0.2-0.5-0.3c-0.2-0.3-0.3-0.7-0.3-1.1c0.6,0,1.2,0.1,1.7,0.1
					C70.7,106,70.5,106.4,70.3,106.7z M72.6,106.7c-0.1,0.1-0.3,0.2-0.5,0.2c-0.2,0-0.4-0.1-0.5-0.2c-0.2-0.2-0.4-0.7-0.4-1.1
					c0.6,0,1.2,0,1.7-0.1C73,106,72.9,106.4,72.6,106.7z M75,106.5c-0.1,0.1-0.2,0.3-0.5,0.3c-0.2,0-0.3,0-0.5-0.2
					c-0.3-0.2-0.5-0.7-0.5-1.2c0.6,0,1.2-0.1,1.7-0.2C75.3,105.8,75.2,106.2,75,106.5z M77.3,106.2c-0.1,0.1-0.2,0.3-0.4,0.3
					c-0.2,0-0.3,0-0.5-0.1c-0.3-0.2-0.5-0.6-0.6-1.1c0.6-0.1,1.2-0.2,1.7-0.3C77.6,105.4,77.5,105.9,77.3,106.2z M79.6,105.7
					c-0.1,0.1-0.2,0.3-0.4,0.3c-0.2,0.1-0.4,0-0.5-0.1c-0.3-0.2-0.6-0.6-0.7-1.1c0.6-0.1,1.1-0.2,1.7-0.4
					C79.8,104.9,79.7,105.4,79.6,105.7z M81.8,105c-0.1,0.2-0.2,0.3-0.4,0.3c-0.2,0.1-0.4,0-0.5-0.1c-0.3-0.2-0.6-0.5-0.8-0.9
					c0.6-0.2,1.1-0.3,1.7-0.5C81.9,104.2,81.9,104.7,81.8,105z M84,104c0,0.1-0.1,0.3-0.3,0.4c-0.2,0.1-0.4,0-0.6,0
					c-0.3-0.1-0.6-0.4-0.8-0.8c0.6-0.2,1.1-0.4,1.6-0.6C84,103.4,84.1,103.7,84,104z M86,102.9c0,0.1-0.1,0.3-0.3,0.5
					c-0.1,0.1-0.3,0.1-0.5,0.1c-0.3-0.1-0.6-0.3-0.8-0.7c0.5-0.2,1-0.5,1.5-0.8C86,102.3,86.1,102.6,86,102.9z M87.7,102
					c-0.2,0.1-0.4,0.1-0.6,0.1c-0.3,0-0.5-0.2-0.8-0.4c0.5-0.3,0.9-0.6,1.4-0.9c0.1,0.3,0.2,0.6,0.2,0.8
					C87.9,101.8,87.9,101.9,87.7,102z M89.5,100.4c-0.1,0.1-0.3,0.2-0.5,0.2h0c-0.2,0-0.5-0.1-0.7-0.2c0.4-0.3,0.8-0.7,1.2-1.1
					c0.1,0.2,0.2,0.4,0.2,0.5C89.7,100,89.6,100.2,89.5,100.4z M89.9,99.4c-0.1-0.1-0.1-0.3-0.2-0.4c0.1-0.1,0.1-0.1,0.2-0.2
					c0.1,0.1,0.2,0.2,0.3,0.2C90.1,99.1,90,99.2,89.9,99.4z M90.9,100.8c-0.2,0-0.4,0-0.5-0.2c-0.2-0.2-0.3-0.4-0.2-0.8
					c0-0.2,0.1-0.4,0.3-0.6c0.4,0.3,0.9,0.7,1.3,1C91.5,100.6,91.2,100.7,90.9,100.8z M92.9,102.1c-0.1,0-0.4,0.1-0.5,0
					c-0.2-0.1-0.3-0.3-0.3-0.5c-0.1-0.3,0-0.7,0.2-1c0.5,0.3,1,0.6,1.5,0.8C93.5,101.8,93.2,102,92.9,102.1z M95,103.2
					c-0.1,0.1-0.4,0.1-0.6,0c-0.2-0.1-0.3-0.3-0.3-0.4c-0.1-0.3-0.1-0.7,0.1-1.1c0.5,0.3,1,0.5,1.6,0.7
					C95.6,102.8,95.3,103.1,95,103.2z M97.2,104.1c-0.1,0.1-0.3,0.1-0.5,0c-0.2-0.1-0.3-0.3-0.4-0.4c-0.1-0.3-0.1-0.8,0-1.2
					c0.5,0.2,1.1,0.4,1.7,0.6C97.8,103.6,97.5,104,97.2,104.1z M99.4,104.9c-0.1,0.1-0.3,0.1-0.5,0.1c-0.2-0.1-0.3-0.2-0.4-0.4
					c-0.2-0.3-0.2-0.8,0-1.2c0.6,0.2,1.1,0.4,1.7,0.5C100,104.3,99.7,104.7,99.4,104.9z M101.7,105.5c-0.1,0.1-0.3,0.2-0.5,0.1
					c-0.2-0.1-0.3-0.2-0.4-0.3c-0.2-0.3-0.2-0.8-0.1-1.2c0.6,0.2,1.2,0.3,1.7,0.5C102.3,104.9,102,105.3,101.7,105.5z M104,106
					c-0.1,0.1-0.3,0.2-0.5,0.1c-0.2,0-0.3-0.2-0.4-0.3c-0.2-0.3-0.3-0.8-0.2-1.2c0.6,0.1,1.2,0.3,1.8,0.4
					C104.6,105.4,104.3,105.8,104,106z M106.3,106.5c-0.1,0.1-0.3,0.2-0.5,0.1c-0.2,0-0.4-0.2-0.4-0.3c-0.2-0.3-0.3-0.7-0.2-1.2
					c0.6,0.1,1.2,0.2,1.8,0.3C106.8,105.9,106.6,106.3,106.3,106.5z M108.7,106.8c-0.1,0.1-0.3,0.2-0.5,0.2c-0.2,0-0.3-0.2-0.4-0.3
					c-0.2-0.3-0.3-0.7-0.3-1.2c0.6,0.1,1.2,0.2,1.8,0.3C109.2,106.2,109,106.6,108.7,106.8z M111,107.1c-0.1,0.1-0.3,0.2-0.5,0.2
					c-0.2,0-0.4-0.2-0.5-0.3c-0.2-0.3-0.3-0.7-0.3-1.2c0.6,0.1,1.2,0.1,1.8,0.2C111.5,106.4,111.3,106.8,111,107.1z M113.4,107.2
					c-0.1,0.1-0.3,0.2-0.5,0.2c-0.2,0-0.4-0.1-0.5-0.2c-0.2-0.3-0.4-0.7-0.4-1.2c0.6,0,1.2,0.1,1.8,0.1
					C113.8,106.6,113.6,107,113.4,107.2z M115.7,107.3c-0.1,0.1-0.3,0.2-0.5,0.2c-0.2,0-0.4-0.1-0.5-0.2c-0.2-0.3-0.4-0.7-0.4-1.1
					c0.6,0,1.2,0,1.8,0.1C116.1,106.7,116,107.1,115.7,107.3z M118.1,107.3c-0.1,0.1-0.3,0.2-0.5,0.2c-0.2,0-0.4-0.1-0.5-0.2
					c-0.2-0.2-0.4-0.6-0.4-1.1c0.2,0,0.4,0,0.7,0c0.4,0,0.8,0,1.1,0C118.5,106.7,118.3,107.1,118.1,107.3z M120.5,107.2
					c-0.1,0.1-0.3,0.2-0.5,0.3c-0.2,0-0.4-0.1-0.5-0.2c-0.2-0.2-0.4-0.6-0.5-1.1c0.6,0,1.2,0,1.8-0.1
					C120.8,106.6,120.7,106.9,120.5,107.2z M122.8,107c-0.1,0.1-0.2,0.2-0.4,0.3c-0.2,0-0.4-0.1-0.5-0.2c-0.2-0.2-0.4-0.6-0.5-1
					c0.6,0,1.2-0.1,1.8-0.1C123.1,106.4,123,106.8,122.8,107z M125.2,106.8c-0.1,0.1-0.2,0.3-0.4,0.3c-0.2,0-0.4-0.1-0.5-0.2
					c-0.3-0.2-0.4-0.6-0.5-1c0.6-0.1,1.2-0.1,1.8-0.2C125.4,106.1,125.3,106.5,125.2,106.8z M127.5,106.4c-0.1,0.1-0.2,0.3-0.4,0.3
					c-0.2,0-0.4,0-0.5-0.1c-0.3-0.2-0.5-0.5-0.6-0.9c0.6-0.1,1.2-0.2,1.8-0.3C127.8,105.7,127.7,106.1,127.5,106.4z M129.8,106
					c-0.1,0.1-0.2,0.3-0.4,0.3c-0.2,0-0.4,0-0.5-0.1c-0.3-0.2-0.5-0.5-0.6-0.9c0.6-0.1,1.2-0.2,1.7-0.4
					C130,105.3,130,105.7,129.8,106z"/>
			</g>
		</g>
		<g>
			<g>
				<defs>
					<ellipse id="SVGID_30_" cx="90.5" cy="53.1" rx="7.9" ry="28.6"/>
				</defs>
				<clipPath id="SVGID_28_">
					<use xlink:href="#SVGID_30_"  style="overflow:visible;"/>
				</clipPath>
				<g class="st26">
				</g>
			</g>
		</g>
	</g>
	
		<radialGradient id="SVGID_29_" cx="364.5781" cy="-393.8479" r="45.0533" gradientTransform="matrix(0.8271 0 0 1.3338 -209.8737 579.5433)" gradientUnits="userSpaceOnUse">
		<stop  offset="2.475250e-03" style="stop-color:#F4951E"/>
		<stop  offset="0.2178" style="stop-color:#F07F1F"/>
		<stop  offset="0.2317" style="stop-color:#DE7724;stop-opacity:0.9823"/>
		<stop  offset="0.2857" style="stop-color:#A55C2C;stop-opacity:0.9132"/>
		<stop  offset="0.3442" style="stop-color:#76462C;stop-opacity:0.8384"/>
		<stop  offset="0.4058" style="stop-color:#523528;stop-opacity:0.7597"/>
		<stop  offset="0.4713" style="stop-color:#362621;stop-opacity:0.6759"/>
		<stop  offset="0.5418" style="stop-color:#221A19;stop-opacity:0.5858"/>
		<stop  offset="0.6193" style="stop-color:#130F10;stop-opacity:0.4867"/>
		<stop  offset="0.7074" style="stop-color:#070607;stop-opacity:0.374"/>
		<stop  offset="0.8153" style="stop-color:#030304;stop-opacity:0.2361"/>
		<stop  offset="1" style="stop-color:#020203;stop-opacity:0"/>
	</radialGradient>
	<ellipse class="st27" cx="91.7" cy="54.2" rx="37.3" ry="60.1"/>
</g>
</svg>
