<?xml version="1.0" encoding="utf-8"?>
<!-- Generator: Adobe Illustrator 25.3.1, SVG Export Plug-In . SVG Version: 6.00 Build 0)  -->
<svg version="1.1" id="Layer_1" xmlns="http://www.w3.org/2000/svg" xmlns:xlink="http://www.w3.org/1999/xlink" x="0px" y="0px"
	 viewBox="0 0 595.3 841.9" style="enable-background:new 0 0 595.3 841.9;" xml:space="preserve">
<style type="text/css">
	.st0{display:none;}
	.st1{fill:url(#SVGID_1_);}
	.st2{fill:url(#SVGID_2_);}
	.st3{fill:url(#SVGID_3_);}
	.st4{fill:#009640;}
	.st5{fill:url(#SVGID_4_);}
	.st6{fill:url(#SVGID_5_);}
	.st7{fill:url(#SVGID_6_);}
	.st8{fill:#2FAC66;}
	.st9{fill:url(#SVGID_7_);}
	.st10{fill:url(#SVGID_8_);}
	.st11{fill:url(#SVGID_9_);}
	.st12{fill:url(#SVGID_10_);}
	.st13{font-family:'ArialRoundedMTBold';}
	.st14{font-size:34px;}
	.st15{fill:#36A9E1;}
	.st16{font-size:18px;}
</style>
<g id="DgVFnO_1_" class="st0">
	
		<image style="display:inline;overflow:visible;enable-background:new    ;" width="1278" height="1219" id="DgVFnO_2_" xlink:href="F2D744269AEA750D.jpg"  transform="matrix(0.5858 0 0 0.5738 -34.3384 112.9156)">
	</image>
</g>
<g>
	
		<linearGradient id="SVGID_1_" gradientUnits="userSpaceOnUse" x1="295.8196" y1="338.1594" x2="376.2036" y2="371.8441" gradientTransform="matrix(1 0 0 1 0 -6.103516e-05)">
		<stop  offset="0.1783" style="stop-color:#E30613"/>
		<stop  offset="0.7494" style="stop-color:#A6151C"/>
	</linearGradient>
	<path class="st1" d="M356.4,342.5c0,42.1-28.6,77.2-67.5,86.3c-39.5-8.8-69.1-44.1-69.1-86.2c-0.8-56.4,54.3-98.9,107.7-86.2
		c-39.2,8.9-68.1,45.2-67.4,87.4C262.6,406.3,355.2,404.9,356.4,342.5L356.4,342.5z"/>
	
		<linearGradient id="SVGID_2_" gradientUnits="userSpaceOnUse" x1="376.9402" y1="344.0357" x2="255.4669" y2="342.9385" gradientTransform="matrix(1 0 0 1 0 -6.103516e-05)">
		<stop  offset="0.1674" style="stop-color:#E30613"/>
		<stop  offset="0.9904" style="stop-color:#901416"/>
	</linearGradient>
	<path class="st2" d="M396.5,342.5c0,42.1-29.5,77.4-69,86.2c-12.3,2.8-26.3,2.8-38.6,0c38.8-9,67.4-44.2,67.5-86.3h-0.1
		c-0.2-62.2-94.4-63.2-96.2-1.2c0.7-41.6,28.9-76.1,67.4-85C367,265.1,396.5,300.3,396.5,342.5z"/>
</g>
<linearGradient id="SVGID_3_" gradientUnits="userSpaceOnUse" x1="407.9365" y1="261.9648" x2="345.234" y2="261.3983" gradientTransform="matrix(1 0 0 1 0 -6.103516e-05)">
	<stop  offset="0" style="stop-color:#E30613"/>
	<stop  offset="1" style="stop-color:#901416"/>
</linearGradient>
<path class="st3" d="M389.7,243.3c24.3,0.4,24.3,36.6,0,37C365.4,279.9,365.4,243.7,389.7,243.3z"/>
<g>
	<path class="st4" d="M87.4,223.4c-16.6,30.3-27.2,64.2-30,100.3C59.7,287.3,70.3,253.3,87.4,223.4z"/>
	
		<linearGradient id="SVGID_4_" gradientUnits="userSpaceOnUse" x1="483.1702" y1="343.6955" x2="232.4401" y2="660.569" gradientTransform="matrix(1 0 0 1 0 -6.103516e-05)">
		<stop  offset="0" style="stop-color:#2FAC66"/>
		<stop  offset="1" style="stop-color:#006C28"/>
	</linearGradient>
	<path class="st5" d="M559.7,174.4c-2.4,50.2,2.9,187.3-9.4,235C518.2,534.1,360,605.7,243.2,545.6
		c133.7,43.8,277.8-62.3,275.4-204.9c-0.3-0.1,0.6-121.8-0.3-121.4c-0.1-22.8-17.5-42.1-40.1-44.4c-0.2-0.2-0.5-0.4-0.8-0.6
		C489.2,174.4,546.8,174.1,559.7,174.4z"/>
	
		<linearGradient id="SVGID_5_" gradientUnits="userSpaceOnUse" x1="297.1237" y1="589.0373" x2="248.8684" y2="238.2284" gradientTransform="matrix(1 0 0 1 0 -6.103516e-05)">
		<stop  offset="0" style="stop-color:#005A20"/>
		<stop  offset="1" style="stop-color:#2FAC66"/>
	</linearGradient>
	<path class="st6" d="M550.3,409.5c-40.1,169.2-269.7,244.6-401.4,128.1L60.5,626c-8.8,8.8-22.9,8.8-31.6,0
		c-8.7-8.7-8.7-22.9,0-31.6c0,0,88.1-88.1,88.1-88.1c-14.3-16.7-26.4-35.3-35.9-55.4l0,0C39.1,334,106.7,196.1,217.7,152
		C90.9,203.2,56.1,393.2,157,489.2C278.1,610.8,499,582.9,550.3,409.5z"/>
	
		<linearGradient id="SVGID_6_" gradientUnits="userSpaceOnUse" x1="66.3637" y1="318.5916" x2="647.8008" y2="48.5293" gradientTransform="matrix(1 0 0 1 0 -6.103516e-05)">
		<stop  offset="0" style="stop-color:#00712A"/>
		<stop  offset="0.1539" style="stop-color:#067D35"/>
		<stop  offset="0.5744" style="stop-color:#259E56"/>
		<stop  offset="0.7808" style="stop-color:#2FAC66"/>
	</linearGradient>
	<path class="st7" d="M559.7,91.6v40.8c0.2,0.2-249.4,0-249.4,0.1c-157.4-1.2-280,166.2-229.4,318.2c-34.1-69-32-160.8,6.8-227.8
		C178.5,46.7,398.9,98.3,559.6,91.4C559.6,91.4,559.7,91.5,559.7,91.6z"/>
	<path class="st8" d="M478.2,174.9c-1.6-0.2-3.2-0.2-4.8-0.2v-0.4h4C477.7,174.5,477.9,174.7,478.2,174.9z"/>
	
		<linearGradient id="SVGID_7_" gradientUnits="userSpaceOnUse" x1="407.4261" y1="207.2065" x2="522.8994" y2="180.0031" gradientTransform="matrix(1 0 0 1 0 -6.103516e-05)">
		<stop  offset="0" style="stop-color:#2FAC66"/>
		<stop  offset="1" style="stop-color:#006F29"/>
	</linearGradient>
	<path class="st9" d="M518.2,219.3c-50.2,0-126.4,0-177.2,0c1.8-50.6,51.1-45.8,87.8-45c11.1,0,33.5,0,44.5,0v0.4
		C498.1,174.7,518.1,194.6,518.2,219.3z"/>
</g>
<g>
	
		<linearGradient id="SVGID_8_" gradientUnits="userSpaceOnUse" x1="225.2361" y1="307.9835" x2="112.0722" y2="316.3943" gradientTransform="matrix(1 0 0 1 0 -6.103516e-05)">
		<stop  offset="0" style="stop-color:#009FE3"/>
		<stop  offset="0.8257" style="stop-color:#312783"/>
	</linearGradient>
	<path class="st10" d="M316.7,174.2c-0.5,15.6-18.2,43.8-33.8,47.3c-56.3,12.1-98.4,62.5-97.6,122.7c0.2,22.4,7.1,44.4,19.2,63.2
		c5.3,8.4,11.7,16.3,18.9,23.2l0,0c1.2,1.1,2.4,2.3,3.6,3.3l-0.4,1C130.3,350.2,187,181.2,316.7,174.2z"/>
	
		<linearGradient id="SVGID_9_" gradientUnits="userSpaceOnUse" x1="402.8464" y1="426.4867" x2="154.2267" y2="471.6207" gradientTransform="matrix(1 0 0 1 0 -6.103516e-05)">
		<stop  offset="0" style="stop-color:#009FE3"/>
		<stop  offset="1" style="stop-color:#312783"/>
	</linearGradient>
	<path class="st11" d="M478.4,342.5c0,93.6-75.8,169.4-169.4,169.4c-31.7,0-61.3-8.7-86.7-23.8c19.8,10.5,42.4,17.5,66.3,16.5
		c40.6-1.6,76-17.5,102.7-44.1c22.1-23.3,36.4-54,38.6-88.1c8.9-17.8,26.9-29.6,47.2-29.8c0.2,0,0.5,0,0.7,0h0.6L478.4,342.5
		L478.4,342.5z"/>
	
		<linearGradient id="SVGID_10_" gradientUnits="userSpaceOnUse" x1="180.5982" y1="392.9977" x2="435.2496" y2="271.0412" gradientTransform="matrix(1 0 0 1 0 -6.103516e-05)">
		<stop  offset="0.1256" style="stop-color:#009FE3"/>
		<stop  offset="1" style="stop-color:#312783"/>
	</linearGradient>
	<path class="st12" d="M430.1,372.3c-3.7,99.9-120.9,164.6-207.6,115.7c-149.6-86.9-79.8-325.2,94.3-314.3c0,0.1,0,0.3,0,0.4
		c-130.5,8.1-186.2,175.9-90.4,260.6l0.4-1c1.4,1.2,2.7,2.3,4.1,3.5c0,0,0.1,0,0.1,0.1C298.7,497.3,409,455.9,430.1,372.3z"/>
</g>

</svg>
